<ttFont>
    <TTGlyph name="A" xMin="58" yMin="0" xMax="699" yMax="716">
      <contour>
        <pt x="526" y="714" on="1"/>
        <pt x="529" y="716" on="0"/>
        <pt x="551" y="716" on="1"/>
        <pt x="575" y="716" on="0"/>
        <pt x="578" y="711" on="1"/>
        <pt x="580" y="709" on="0"/>
        <pt x="597" y="386" on="1"/>
        <pt x="613" y="64" on="0"/>
        <pt x="615" y="62" on="1"/>
        <pt x="618" y="59" on="0"/>
        <pt x="621" y="59" on="1"/>
        <pt x="632" y="56" on="0"/>
        <pt x="672" y="56" on="1"/>
        <pt x="691" y="56" on="0"/>
        <pt x="693" y="54" on="1"/>
        <pt x="699" y="52" on="0"/>
        <pt x="699" y="45" on="1"/>
        <pt x="689" y="6" on="1"/>
        <pt x="685" y="0" on="0"/>
        <pt x="669" y="1" on="1"/>
        <pt x="665" y="1" on="0"/>
        <pt x="652" y="1" on="1"/>
        <pt x="584" y="5" on="0"/>
        <pt x="470" y="2" on="1"/>
        <pt x="460" y="1" on="0"/>
        <pt x="453" y="1" on="1"/>
        <pt x="420" y="0" on="0"/>
        <pt x="416" y="6" on="1"/>
        <pt x="414" y="9" on="0"/>
        <pt x="418" y="29" on="1"/>
        <pt x="423" y="50" on="0"/>
        <pt x="427" y="54" on="1"/>
        <pt x="430" y="56" on="0"/>
        <pt x="443" y="56" on="1"/>
        <pt x="484" y="56" on="0"/>
        <pt x="500" y="64" on="1"/>
        <pt x="505" y="66" on="1"/>
        <pt x="505" y="74" on="1"/>
        <pt x="501" y="136" on="1"/>
        <pt x="499" y="191" on="0"/>
        <pt x="498" y="193" on="1"/>
        <pt x="498" y="196" on="1"/>
        <pt x="396" y="196" on="1"/>
        <pt x="293" y="196" on="1"/>
        <pt x="265" y="145" on="1"/>
        <pt x="236" y="93" on="0"/>
        <pt x="234" y="84" on="1"/>
        <pt x="229" y="67" on="0"/>
        <pt x="258" y="59" on="1"/>
        <pt x="266" y="57" on="0"/>
        <pt x="276" y="56" on="1"/>
        <pt x="290" y="56" on="0"/>
        <pt x="293" y="49" on="1"/>
        <pt x="294" y="44" on="0"/>
        <pt x="289" y="26" on="1"/>
        <pt x="285" y="7" on="0"/>
        <pt x="281" y="3" on="1"/>
        <pt x="278" y="0" on="1"/>
        <pt x="265" y="0" on="1"/>
        <pt x="176" y="5" on="0"/>
        <pt x="85" y="1" on="1"/>
        <pt x="63" y="0" on="0"/>
        <pt x="60" y="6" on="1"/>
        <pt x="58" y="9" on="0"/>
        <pt x="62" y="29" on="1"/>
        <pt x="68" y="52" on="0"/>
        <pt x="73" y="54" on="1"/>
        <pt x="76" y="55" on="0"/>
        <pt x="88" y="56" on="1"/>
        <pt x="152" y="59" on="0"/>
        <pt x="180" y="99" on="1"/>
        <pt x="186" y="107" on="0"/>
        <pt x="351" y="407" on="1"/>
        <pt x="518" y="709" on="1"/>
        <pt x="522" y="712" on="0"/>
      </contour>
      <contour>
        <pt x="489" y="389" on="1"/>
        <pt x="481" y="529" on="0"/>
        <pt x="481" y="530" on="1"/>
        <pt x="481" y="536" on="1"/>
        <pt x="402" y="394" on="1"/>
        <pt x="324" y="253" on="1"/>
        <pt x="409" y="252" on="1"/>
        <pt x="495" y="252" on="0"/>
        <pt x="495" y="253" on="1"/>
      </contour>
    </TTGlyph>
    <TTGlyph name="B" xMin="51" yMin="0" xMax="735" yMax="683">
      <contour>
        <pt x="221" y="680" on="1"/>
        <pt x="224" y="683" on="1"/>
        <pt x="402" y="683" on="1"/>
        <pt x="583" y="683" on="0"/>
        <pt x="590" y="682" on="1"/>
        <pt x="640" y="677" on="0"/>
        <pt x="675" y="653" on="1"/>
        <pt x="697" y="639" on="0"/>
        <pt x="711" y="618" on="1"/>
        <pt x="726" y="593" on="0"/>
        <pt x="731" y="570" on="1"/>
        <pt x="735" y="547" on="0"/>
        <pt x="731" y="520" on="1"/>
        <pt x="715" y="436" on="0"/>
        <pt x="623" y="386" on="1"/>
        <pt x="618" y="383" on="0"/>
        <pt x="613" y="381" on="1"/>
        <pt x="594" y="371" on="0"/>
        <pt x="561" y="360" on="1"/>
        <pt x="551" y="359" on="0"/>
        <pt x="551" y="357" on="1"/>
        <pt x="564" y="357" on="0"/>
        <pt x="587" y="347" on="1"/>
        <pt x="662" y="318" on="0"/>
        <pt x="676" y="247" on="1"/>
        <pt x="678" y="235" on="0"/>
        <pt x="678" y="222" on="1"/>
        <pt x="678" y="151" on="0"/>
        <pt x="615" y="85" on="1"/>
        <pt x="613" y="83" on="0"/>
        <pt x="611" y="81" on="1"/>
        <pt x="556" y="26" on="0"/>
        <pt x="480" y="7" on="1"/>
        <pt x="456" y="1" on="0"/>
        <pt x="393" y="1" on="1"/>
        <pt x="397" y="1" on="0"/>
        <pt x="253" y="0" on="1"/>
        <pt x="59" y="0" on="0"/>
        <pt x="55" y="3" on="1"/>
        <pt x="54" y="3" on="0"/>
        <pt x="53" y="7" on="1"/>
        <pt x="51" y="10" on="0"/>
        <pt x="56" y="30" on="1"/>
        <pt x="61" y="51" on="0"/>
        <pt x="64" y="53" on="1"/>
        <pt x="67" y="56" on="1"/>
        <pt x="99" y="56" on="1"/>
        <pt x="145" y="57" on="0"/>
        <pt x="151" y="60" on="1"/>
        <pt x="156" y="63" on="0"/>
        <pt x="159" y="72" on="1"/>
        <pt x="166" y="92" on="0"/>
        <pt x="228" y="342" on="1"/>
        <pt x="297" y="618" on="0"/>
        <pt x="297" y="620" on="1"/>
        <pt x="297" y="623" on="0"/>
        <pt x="295" y="623" on="1"/>
        <pt x="289" y="625" on="0"/>
        <pt x="248" y="627" on="1"/>
        <pt x="213" y="627" on="0"/>
        <pt x="209" y="634" on="1"/>
        <pt x="208" y="637" on="0"/>
        <pt x="212" y="657" on="1"/>
        <pt x="217" y="676" on="0"/>
      </contour>
      <contour>
        <pt x="567" y="626" on="1"/>
        <pt x="562" y="627" on="0"/>
        <pt x="489" y="627" on="1"/>
        <pt x="415" y="627" on="0"/>
        <pt x="406" y="625" on="1"/>
        <pt x="401" y="623" on="0"/>
        <pt x="400" y="621" on="1"/>
        <pt x="368" y="499" on="1"/>
        <pt x="338" y="379" on="1"/>
        <pt x="408" y="379" on="1"/>
        <pt x="479" y="379" on="0"/>
        <pt x="488" y="381" on="1"/>
        <pt x="550" y="394" on="0"/>
        <pt x="589" y="453" on="1"/>
        <pt x="632" y="517" on="0"/>
        <pt x="615" y="577" on="1"/>
        <pt x="604" y="618" on="0"/>
      </contour>
      <contour>
        <pt x="504" y="331" on="1"/>
        <pt x="498" y="332" on="0"/>
        <pt x="411" y="332" on="1"/>
        <pt x="326" y="332" on="1"/>
        <pt x="293" y="197" on="1"/>
        <pt x="259" y="63" on="0"/>
        <pt x="259" y="59" on="1"/>
        <pt x="259" y="57" on="0"/>
        <pt x="267" y="57" on="1"/>
        <pt x="270" y="56" on="0"/>
        <pt x="351" y="56" on="1"/>
        <pt x="428" y="57" on="1"/>
        <pt x="437" y="59" on="1"/>
        <pt x="509" y="80" on="0"/>
        <pt x="544" y="151" on="1"/>
        <pt x="559" y="182" on="0"/>
        <pt x="563" y="217" on="1"/>
        <pt x="570" y="288" on="0"/>
        <pt x="530" y="319" on="1"/>
        <pt x="518" y="328" on="0"/>
      </contour>
    </TTGlyph>
    <TTGlyph name="C" xMin="148" yMin="-23" xMax="813" yMax="705">
      <contour>
        <pt x="546" y="704" on="1"/>
        <pt x="567" y="705" on="1"/>
        <pt x="568" y="705" on="1"/>
        <pt x="656" y="705" on="0"/>
        <pt x="705" y="641" on="1"/>
        <pt x="712" y="630" on="0"/>
        <pt x="713" y="630" on="1"/>
        <pt x="751" y="667" on="1"/>
        <pt x="789" y="705" on="1"/>
        <pt x="797" y="705" on="1"/>
        <pt x="810" y="705" on="0"/>
        <pt x="812" y="699" on="1"/>
        <pt x="813" y="697" on="0"/>
        <pt x="779" y="557" on="1"/>
        <pt x="743" y="413" on="0"/>
        <pt x="743" y="416" on="1"/>
        <pt x="741" y="410" on="0"/>
        <pt x="715" y="410" on="1"/>
        <pt x="694" y="410" on="1"/>
        <pt x="691" y="413" on="1"/>
        <pt x="687" y="417" on="0"/>
        <pt x="689" y="431" on="1"/>
        <pt x="697" y="483" on="0"/>
        <pt x="692" y="530" on="1"/>
        <pt x="681" y="628" on="0"/>
        <pt x="615" y="646" on="1"/>
        <pt x="606" y="648" on="0"/>
        <pt x="587" y="648" on="1"/>
        <pt x="550" y="649" on="0"/>
        <pt x="509" y="636" on="1"/>
        <pt x="460" y="620" on="0"/>
        <pt x="421" y="588" on="1"/>
        <pt x="332" y="520" on="0"/>
        <pt x="289" y="371" on="1"/>
        <pt x="262" y="272" on="0"/>
        <pt x="262" y="208" on="1"/>
        <pt x="262" y="162" on="0"/>
        <pt x="274" y="131" on="1"/>
        <pt x="300" y="63" on="0"/>
        <pt x="372" y="42" on="1"/>
        <pt x="379" y="40" on="0"/>
        <pt x="386" y="39" on="1"/>
        <pt x="481" y="19" on="0"/>
        <pt x="559" y="95" on="1"/>
        <pt x="617" y="155" on="0"/>
        <pt x="643" y="241" on="1"/>
        <pt x="648" y="258" on="0"/>
        <pt x="653" y="259" on="1"/>
        <pt x="656" y="260" on="0"/>
        <pt x="673" y="260" on="1"/>
        <pt x="698" y="260" on="0"/>
        <pt x="701" y="254" on="1"/>
        <pt x="702" y="250" on="0"/>
        <pt x="699" y="240" on="1"/>
        <pt x="666" y="120" on="0"/>
        <pt x="568" y="43" on="1"/>
        <pt x="540" y="21" on="0"/>
        <pt x="509" y="6" on="1"/>
        <pt x="447" y="-23" on="0"/>
        <pt x="385" y="-22" on="1"/>
        <pt x="342" y="-21" on="0"/>
        <pt x="301" y="-4" on="1"/>
        <pt x="233" y="22" on="0"/>
        <pt x="195" y="83" on="1"/>
        <pt x="160" y="135" on="0"/>
        <pt x="152" y="206" on="1"/>
        <pt x="148" y="231" on="0"/>
        <pt x="151" y="276" on="1"/>
        <pt x="152" y="281" on="0"/>
        <pt x="152" y="284" on="1"/>
        <pt x="164" y="396" on="0"/>
        <pt x="230" y="497" on="1"/>
        <pt x="250" y="525" on="0"/>
        <pt x="265" y="543" on="1"/>
        <pt x="292" y="576" on="0"/>
        <pt x="332" y="610" on="1"/>
        <pt x="434" y="693" on="0"/>
      </contour>
    </TTGlyph>
    <TTGlyph name="D" xMin="50" yMin="0" xMax="777" yMax="683">
      <contour>
        <pt x="220" y="680" on="1"/>
        <pt x="223" y="683" on="1"/>
        <pt x="401" y="683" on="1"/>
        <pt x="582" y="683" on="0"/>
        <pt x="589" y="682" on="1"/>
        <pt x="691" y="672" on="0"/>
        <pt x="742" y="579" on="1"/>
        <pt x="769" y="530" on="0"/>
        <pt x="774" y="467" on="1"/>
        <pt x="777" y="436" on="0"/>
        <pt x="773" y="393" on="1"/>
        <pt x="754" y="234" on="0"/>
        <pt x="640" y="118" on="1"/>
        <pt x="627" y="104" on="0"/>
        <pt x="613" y="92" on="1"/>
        <pt x="530" y="18" on="0"/>
        <pt x="432" y="2" on="1"/>
        <pt x="423" y="1" on="0"/>
        <pt x="240" y="0" on="1"/>
        <pt x="57" y="0" on="0"/>
        <pt x="54" y="3" on="1"/>
        <pt x="53" y="3" on="0"/>
        <pt x="52" y="7" on="1"/>
        <pt x="50" y="10" on="0"/>
        <pt x="55" y="30" on="1"/>
        <pt x="60" y="51" on="0"/>
        <pt x="63" y="53" on="1"/>
        <pt x="66" y="56" on="1"/>
        <pt x="98" y="56" on="1"/>
        <pt x="144" y="57" on="0"/>
        <pt x="150" y="60" on="1"/>
        <pt x="155" y="63" on="0"/>
        <pt x="158" y="72" on="1"/>
        <pt x="165" y="92" on="0"/>
        <pt x="227" y="342" on="1"/>
        <pt x="296" y="618" on="0"/>
        <pt x="296" y="620" on="1"/>
        <pt x="296" y="623" on="0"/>
        <pt x="294" y="623" on="1"/>
        <pt x="288" y="625" on="0"/>
        <pt x="247" y="627" on="1"/>
        <pt x="212" y="627" on="0"/>
        <pt x="208" y="634" on="1"/>
        <pt x="207" y="637" on="0"/>
        <pt x="211" y="657" on="1"/>
        <pt x="216" y="676" on="0"/>
      </contour>
      <contour>
        <pt x="544" y="626" on="1"/>
        <pt x="417" y="626" on="1"/>
        <pt x="403" y="625" on="0"/>
        <pt x="402" y="621" on="1"/>
        <pt x="261" y="60" on="1"/>
        <pt x="261" y="57" on="0"/>
        <pt x="269" y="57" on="1"/>
        <pt x="272" y="56" on="0"/>
        <pt x="340" y="56" on="1"/>
        <pt x="405" y="57" on="0"/>
        <pt x="417" y="59" on="1"/>
        <pt x="512" y="76" on="0"/>
        <pt x="572" y="154" on="1"/>
        <pt x="608" y="201" on="0"/>
        <pt x="633" y="286" on="1"/>
        <pt x="656" y="368" on="0"/>
        <pt x="663" y="415" on="1"/>
        <pt x="682" y="521" on="0"/>
        <pt x="642" y="574" on="1"/>
        <pt x="608" y="618" on="0"/>
      </contour>
    </TTGlyph>
    <TTGlyph name="E" xMin="51" yMin="0" xMax="743" yMax="680">
      <contour>
        <pt x="221" y="678" on="1"/>
        <pt x="223" y="680" on="0"/>
        <pt x="480" y="680" on="1"/>
        <pt x="736" y="680" on="1"/>
        <pt x="740" y="677" on="1"/>
        <pt x="743" y="673" on="0"/>
        <pt x="743" y="669" on="1"/>
        <pt x="710" y="436" on="1"/>
        <pt x="707" y="433" on="0"/>
        <pt x="706" y="432" on="1"/>
        <pt x="704" y="430" on="0"/>
        <pt x="684" y="430" on="1"/>
        <pt x="663" y="430" on="0"/>
        <pt x="660" y="432" on="1"/>
        <pt x="655" y="435" on="0"/>
        <pt x="657" y="459" on="1"/>
        <pt x="663" y="500" on="0"/>
        <pt x="663" y="529" on="1"/>
        <pt x="663" y="572" on="0"/>
        <pt x="652" y="588" on="1"/>
        <pt x="641" y="606" on="0"/>
        <pt x="612" y="615" on="1"/>
        <pt x="579" y="624" on="0"/>
        <pt x="480" y="624" on="1"/>
        <pt x="408" y="623" on="0"/>
        <pt x="405" y="619" on="1"/>
        <pt x="404" y="618" on="0"/>
        <pt x="373" y="500" on="1"/>
        <pt x="344" y="382" on="1"/>
        <pt x="344" y="381" on="0"/>
        <pt x="388" y="381" on="1"/>
        <pt x="443" y="382" on="0"/>
        <pt x="459" y="388" on="1"/>
        <pt x="489" y="398" on="0"/>
        <pt x="503" y="429" on="1"/>
        <pt x="510" y="444" on="0"/>
        <pt x="518" y="474" on="1"/>
        <pt x="523" y="493" on="0"/>
        <pt x="526" y="495" on="1"/>
        <pt x="529" y="498" on="1"/>
        <pt x="549" y="498" on="1"/>
        <pt x="573" y="498" on="0"/>
        <pt x="577" y="491" on="1"/>
        <pt x="578" y="487" on="0"/>
        <pt x="545" y="352" on="1"/>
        <pt x="510" y="215" on="0"/>
        <pt x="509" y="214" on="1"/>
        <pt x="507" y="208" on="0"/>
        <pt x="482" y="208" on="1"/>
        <pt x="462" y="208" on="1"/>
        <pt x="458" y="211" on="1"/>
        <pt x="454" y="216" on="0"/>
        <pt x="459" y="239" on="1"/>
        <pt x="466" y="271" on="0"/>
        <pt x="466" y="289" on="1"/>
        <pt x="464" y="302" on="1"/>
        <pt x="459" y="316" on="0"/>
        <pt x="439" y="321" on="1"/>
        <pt x="422" y="325" on="0"/>
        <pt x="368" y="325" on="1"/>
        <pt x="330" y="325" on="1"/>
        <pt x="297" y="194" on="1"/>
        <pt x="264" y="61" on="0"/>
        <pt x="264" y="60" on="1"/>
        <pt x="264" y="57" on="0"/>
        <pt x="270" y="57" on="1"/>
        <pt x="419" y="57" on="1"/>
        <pt x="500" y="63" on="0"/>
        <pt x="544" y="100" on="1"/>
        <pt x="587" y="137" on="0"/>
        <pt x="633" y="260" on="1"/>
        <pt x="639" y="276" on="0"/>
        <pt x="643" y="280" on="1"/>
        <pt x="646" y="283" on="1"/>
        <pt x="667" y="283" on="1"/>
        <pt x="688" y="283" on="1"/>
        <pt x="691" y="280" on="1"/>
        <pt x="695" y="276" on="0"/>
        <pt x="691" y="264" on="1"/>
        <pt x="686" y="248" on="0"/>
        <pt x="643" y="138" on="1"/>
        <pt x="591" y="4" on="0"/>
        <pt x="591" y="5" on="1"/>
        <pt x="589" y="1" on="0"/>
        <pt x="560" y="1" on="1"/>
        <pt x="528" y="0" on="0"/>
        <pt x="321" y="0" on="1"/>
        <pt x="58" y="0" on="1"/>
        <pt x="54" y="3" on="1"/>
        <pt x="51" y="8" on="0"/>
        <pt x="51" y="11" on="1"/>
        <pt x="51" y="27" on="0"/>
        <pt x="61" y="50" on="1"/>
        <pt x="73" y="56" on="0"/>
        <pt x="99" y="56" on="1"/>
        <pt x="144" y="57" on="0"/>
        <pt x="150" y="60" on="1"/>
        <pt x="155" y="63" on="0"/>
        <pt x="158" y="72" on="1"/>
        <pt x="165" y="91" on="0"/>
        <pt x="227" y="343" on="1"/>
        <pt x="296" y="619" on="0"/>
        <pt x="295" y="619" on="1"/>
        <pt x="290" y="624" on="0"/>
        <pt x="234" y="624" on="1"/>
        <pt x="214" y="624" on="1"/>
        <pt x="210" y="627" on="1"/>
        <pt x="205" y="633" on="0"/>
        <pt x="211" y="655" on="1"/>
        <pt x="217" y="676" on="0"/>
      </contour>
    </TTGlyph>
    <TTGlyph name="F" xMin="50" yMin="0" xMax="731" yMax="680">
      <contour>
        <pt x="219" y="677" on="1"/>
        <pt x="222" y="680" on="1"/>
        <pt x="473" y="680" on="1"/>
        <pt x="724" y="680" on="1"/>
        <pt x="728" y="677" on="1"/>
        <pt x="731" y="673" on="0"/>
        <pt x="731" y="669" on="1"/>
        <pt x="698" y="436" on="1"/>
        <pt x="695" y="433" on="0"/>
        <pt x="694" y="432" on="1"/>
        <pt x="692" y="430" on="0"/>
        <pt x="672" y="430" on="1"/>
        <pt x="651" y="430" on="0"/>
        <pt x="648" y="432" on="1"/>
        <pt x="643" y="435" on="0"/>
        <pt x="645" y="454" on="1"/>
        <pt x="645" y="456" on="0"/>
        <pt x="645" y="459" on="1"/>
        <pt x="656" y="537" on="0"/>
        <pt x="648" y="570" on="1"/>
        <pt x="644" y="586" on="0"/>
        <pt x="635" y="596" on="1"/>
        <pt x="619" y="614" on="0"/>
        <pt x="580" y="620" on="1"/>
        <pt x="556" y="624" on="0"/>
        <pt x="475" y="624" on="1"/>
        <pt x="408" y="623" on="0"/>
        <pt x="405" y="619" on="1"/>
        <pt x="403" y="618" on="0"/>
        <pt x="341" y="370" on="0"/>
        <pt x="341" y="369" on="1"/>
        <pt x="341" y="365" on="0"/>
        <pt x="423" y="369" on="1"/>
        <pt x="432" y="369" on="0"/>
        <pt x="435" y="370" on="1"/>
        <pt x="475" y="379" on="0"/>
        <pt x="492" y="411" on="1"/>
        <pt x="501" y="429" on="0"/>
        <pt x="510" y="462" on="1"/>
        <pt x="513" y="475" on="0"/>
        <pt x="516" y="481" on="1"/>
        <pt x="519" y="485" on="0"/>
        <pt x="565" y="485" on="0"/>
        <pt x="568" y="478" on="1"/>
        <pt x="570" y="475" on="1"/>
        <pt x="536" y="340" on="1"/>
        <pt x="504" y="207" on="0"/>
        <pt x="501" y="201" on="1"/>
        <pt x="499" y="195" on="0"/>
        <pt x="474" y="195" on="1"/>
        <pt x="451" y="195" on="0"/>
        <pt x="448" y="202" on="1"/>
        <pt x="446" y="205" on="0"/>
        <pt x="449" y="220" on="1"/>
        <pt x="457" y="251" on="0"/>
        <pt x="457" y="271" on="1"/>
        <pt x="458" y="290" on="0"/>
        <pt x="451" y="297" on="1"/>
        <pt x="444" y="306" on="0"/>
        <pt x="427" y="309" on="1"/>
        <pt x="419" y="311" on="0"/>
        <pt x="372" y="312" on="1"/>
        <pt x="327" y="312" on="1"/>
        <pt x="296" y="188" on="1"/>
        <pt x="264" y="60" on="0"/>
        <pt x="264" y="63" on="1"/>
        <pt x="263" y="60" on="0"/>
        <pt x="278" y="58" on="1"/>
        <pt x="294" y="57" on="0"/>
        <pt x="332" y="56" on="1"/>
        <pt x="371" y="56" on="1"/>
        <pt x="374" y="52" on="1"/>
        <pt x="377" y="49" on="0"/>
        <pt x="377" y="46" on="1"/>
        <pt x="367" y="7" on="1"/>
        <pt x="367" y="6" on="1"/>
        <pt x="364" y="0" on="0"/>
        <pt x="348" y="1" on="1"/>
        <pt x="342" y="1" on="0"/>
        <pt x="321" y="1" on="1"/>
        <pt x="232" y="5" on="0"/>
        <pt x="108" y="2" on="1"/>
        <pt x="96" y="1" on="0"/>
        <pt x="89" y="1" on="1"/>
        <pt x="56" y="0" on="0"/>
        <pt x="52" y="7" on="1"/>
        <pt x="50" y="10" on="0"/>
        <pt x="55" y="30" on="1"/>
        <pt x="60" y="51" on="0"/>
        <pt x="63" y="53" on="1"/>
        <pt x="66" y="56" on="1"/>
        <pt x="98" y="56" on="1"/>
        <pt x="144" y="57" on="0"/>
        <pt x="150" y="60" on="1"/>
        <pt x="155" y="63" on="0"/>
        <pt x="158" y="72" on="1"/>
        <pt x="165" y="91" on="0"/>
        <pt x="227" y="343" on="1"/>
        <pt x="296" y="619" on="0"/>
        <pt x="295" y="619" on="1"/>
        <pt x="290" y="624" on="0"/>
        <pt x="235" y="624" on="1"/>
        <pt x="211" y="624" on="0"/>
        <pt x="208" y="631" on="1"/>
        <pt x="206" y="634" on="0"/>
        <pt x="211" y="654" on="1"/>
        <pt x="216" y="675" on="0"/>
      </contour>
    </TTGlyph>
    <TTGlyph name="G" xMin="148" yMin="-24" xMax="813" yMax="705">
      <contour>
        <pt x="546" y="704" on="1"/>
        <pt x="567" y="705" on="1"/>
        <pt x="568" y="705" on="1"/>
        <pt x="656" y="705" on="0"/>
        <pt x="705" y="641" on="1"/>
        <pt x="712" y="630" on="0"/>
        <pt x="713" y="630" on="1"/>
        <pt x="751" y="667" on="1"/>
        <pt x="789" y="705" on="1"/>
        <pt x="797" y="705" on="1"/>
        <pt x="810" y="705" on="0"/>
        <pt x="812" y="699" on="1"/>
        <pt x="813" y="697" on="0"/>
        <pt x="779" y="557" on="1"/>
        <pt x="743" y="413" on="0"/>
        <pt x="743" y="416" on="1"/>
        <pt x="741" y="410" on="0"/>
        <pt x="715" y="410" on="1"/>
        <pt x="694" y="410" on="1"/>
        <pt x="691" y="413" on="1"/>
        <pt x="687" y="417" on="0"/>
        <pt x="689" y="431" on="1"/>
        <pt x="697" y="483" on="0"/>
        <pt x="692" y="530" on="1"/>
        <pt x="681" y="628" on="0"/>
        <pt x="615" y="646" on="1"/>
        <pt x="606" y="648" on="0"/>
        <pt x="587" y="648" on="1"/>
        <pt x="550" y="649" on="0"/>
        <pt x="509" y="636" on="1"/>
        <pt x="460" y="620" on="0"/>
        <pt x="421" y="588" on="1"/>
        <pt x="332" y="520" on="0"/>
        <pt x="289" y="371" on="1"/>
        <pt x="262" y="272" on="0"/>
        <pt x="262" y="208" on="1"/>
        <pt x="262" y="162" on="0"/>
        <pt x="274" y="131" on="1"/>
        <pt x="300" y="63" on="0"/>
        <pt x="372" y="42" on="1"/>
        <pt x="379" y="40" on="0"/>
        <pt x="386" y="39" on="1"/>
        <pt x="469" y="21" on="0"/>
        <pt x="529" y="70" on="1"/>
        <pt x="550" y="87" on="0"/>
        <pt x="559" y="109" on="1"/>
        <pt x="585" y="213" on="0"/>
        <pt x="585" y="211" on="1"/>
        <pt x="585" y="213" on="0"/>
        <pt x="568" y="215" on="1"/>
        <pt x="521" y="217" on="1"/>
        <pt x="485" y="217" on="0"/>
        <pt x="481" y="219" on="1"/>
        <pt x="475" y="221" on="0"/>
        <pt x="475" y="228" on="1"/>
        <pt x="485" y="267" on="1"/>
        <pt x="489" y="273" on="0"/>
        <pt x="506" y="272" on="1"/>
        <pt x="511" y="272" on="0"/>
        <pt x="527" y="272" on="1"/>
        <pt x="689" y="268" on="0"/>
        <pt x="752" y="273" on="1"/>
        <pt x="761" y="273" on="1"/>
        <pt x="764" y="270" on="1"/>
        <pt x="768" y="266" on="0"/>
        <pt x="768" y="263" on="1"/>
        <pt x="759" y="224" on="1"/>
        <pt x="757" y="217" on="0"/>
        <pt x="738" y="217" on="1"/>
        <pt x="706" y="217" on="0"/>
        <pt x="698" y="214" on="1"/>
        <pt x="696" y="213" on="0"/>
        <pt x="693" y="210" on="1"/>
        <pt x="692" y="208" on="0"/>
        <pt x="666" y="107" on="1"/>
        <pt x="641" y="6" on="0"/>
        <pt x="639" y="4" on="1"/>
        <pt x="635" y="-2" on="0"/>
        <pt x="630" y="0" on="1"/>
        <pt x="618" y="4" on="0"/>
        <pt x="590" y="34" on="1"/>
        <pt x="586" y="38" on="0"/>
        <pt x="584" y="41" on="1"/>
        <pt x="578" y="48" on="1"/>
        <pt x="570" y="40" on="1"/>
        <pt x="517" y="-7" on="0"/>
        <pt x="435" y="-19" on="1"/>
        <pt x="401" y="-24" on="0"/>
        <pt x="358" y="-20" on="1"/>
        <pt x="274" y="-6" on="0"/>
        <pt x="222" y="49" on="1"/>
        <pt x="198" y="73" on="0"/>
        <pt x="182" y="105" on="1"/>
        <pt x="158" y="150" on="0"/>
        <pt x="152" y="206" on="1"/>
        <pt x="148" y="231" on="0"/>
        <pt x="151" y="276" on="1"/>
        <pt x="152" y="281" on="0"/>
        <pt x="152" y="284" on="1"/>
        <pt x="164" y="396" on="0"/>
        <pt x="230" y="497" on="1"/>
        <pt x="250" y="525" on="0"/>
        <pt x="265" y="543" on="1"/>
        <pt x="292" y="576" on="0"/>
        <pt x="332" y="610" on="1"/>
        <pt x="434" y="693" on="0"/>
      </contour>
    </TTGlyph>
    <TTGlyph name="H" xMin="51" yMin="0" xMax="863" yMax="683">
      <contour>
        <pt x="220" y="680" on="1"/>
        <pt x="223" y="683" on="1"/>
        <pt x="236" y="683" on="1"/>
        <pt x="324" y="679" on="0"/>
        <pt x="424" y="681" on="1"/>
        <pt x="494" y="683" on="0"/>
        <pt x="493" y="683" on="1"/>
        <pt x="503" y="683" on="1"/>
        <pt x="506" y="680" on="1"/>
        <pt x="510" y="676" on="0"/>
        <pt x="510" y="673" on="1"/>
        <pt x="501" y="633" on="1"/>
        <pt x="488" y="627" on="0"/>
        <pt x="463" y="627" on="1"/>
        <pt x="420" y="626" on="0"/>
        <pt x="411" y="623" on="1"/>
        <pt x="406" y="620" on="1"/>
        <pt x="405" y="619" on="1"/>
        <pt x="403" y="617" on="0"/>
        <pt x="373" y="499" on="1"/>
        <pt x="344" y="383" on="1"/>
        <pt x="467" y="383" on="1"/>
        <pt x="590" y="384" on="1"/>
        <pt x="620" y="501" on="1"/>
        <pt x="649" y="617" on="0"/>
        <pt x="649" y="623" on="0"/>
        <pt x="647" y="623" on="1"/>
        <pt x="641" y="625" on="0"/>
        <pt x="600" y="627" on="1"/>
        <pt x="565" y="627" on="0"/>
        <pt x="561" y="634" on="1"/>
        <pt x="560" y="637" on="0"/>
        <pt x="564" y="657" on="1"/>
        <pt x="569" y="676" on="0"/>
        <pt x="573" y="680" on="1"/>
        <pt x="576" y="683" on="1"/>
        <pt x="589" y="683" on="1"/>
        <pt x="677" y="679" on="0"/>
        <pt x="777" y="681" on="1"/>
        <pt x="847" y="683" on="0"/>
        <pt x="846" y="683" on="1"/>
        <pt x="856" y="683" on="1"/>
        <pt x="859" y="680" on="1"/>
        <pt x="863" y="676" on="0"/>
        <pt x="863" y="673" on="1"/>
        <pt x="854" y="633" on="1"/>
        <pt x="841" y="627" on="0"/>
        <pt x="816" y="627" on="1"/>
        <pt x="773" y="626" on="0"/>
        <pt x="764" y="623" on="1"/>
        <pt x="759" y="620" on="1"/>
        <pt x="758" y="619" on="1"/>
        <pt x="755" y="616" on="0"/>
        <pt x="686" y="339" on="1"/>
        <pt x="617" y="61" on="0"/>
        <pt x="618" y="61" on="1"/>
        <pt x="623" y="56" on="0"/>
        <pt x="679" y="56" on="1"/>
        <pt x="699" y="56" on="1"/>
        <pt x="703" y="53" on="1"/>
        <pt x="706" y="48" on="0"/>
        <pt x="706" y="45" on="1"/>
        <pt x="706" y="29" on="0"/>
        <pt x="696" y="6" on="1"/>
        <pt x="693" y="0" on="0"/>
        <pt x="675" y="1" on="1"/>
        <pt x="671" y="1" on="0"/>
        <pt x="658" y="1" on="1"/>
        <pt x="509" y="5" on="0"/>
        <pt x="422" y="0" on="1"/>
        <pt x="411" y="0" on="1"/>
        <pt x="408" y="3" on="1"/>
        <pt x="404" y="7" on="0"/>
        <pt x="404" y="11" on="1"/>
        <pt x="404" y="27" on="0"/>
        <pt x="414" y="50" on="1"/>
        <pt x="426" y="56" on="0"/>
        <pt x="452" y="56" on="1"/>
        <pt x="497" y="57" on="0"/>
        <pt x="509" y="63" on="0"/>
        <pt x="514" y="78" on="1"/>
        <pt x="518" y="93" on="0"/>
        <pt x="544" y="196" on="1"/>
        <pt x="576" y="326" on="1"/>
        <pt x="576" y="327" on="0"/>
        <pt x="453" y="327" on="1"/>
        <pt x="330" y="327" on="1"/>
        <pt x="297" y="194" on="1"/>
        <pt x="264" y="61" on="0"/>
        <pt x="265" y="61" on="1"/>
        <pt x="270" y="56" on="0"/>
        <pt x="326" y="56" on="1"/>
        <pt x="346" y="56" on="1"/>
        <pt x="350" y="53" on="1"/>
        <pt x="353" y="49" on="0"/>
        <pt x="353" y="45" on="1"/>
        <pt x="353" y="29" on="0"/>
        <pt x="343" y="6" on="1"/>
        <pt x="340" y="0" on="0"/>
        <pt x="322" y="1" on="1"/>
        <pt x="318" y="1" on="0"/>
        <pt x="305" y="1" on="1"/>
        <pt x="156" y="5" on="0"/>
        <pt x="69" y="0" on="1"/>
        <pt x="58" y="0" on="1"/>
        <pt x="55" y="3" on="1"/>
        <pt x="51" y="7" on="0"/>
        <pt x="51" y="11" on="1"/>
        <pt x="51" y="27" on="0"/>
        <pt x="61" y="50" on="1"/>
        <pt x="73" y="56" on="0"/>
        <pt x="99" y="56" on="1"/>
        <pt x="144" y="57" on="0"/>
        <pt x="150" y="60" on="1"/>
        <pt x="155" y="63" on="0"/>
        <pt x="158" y="72" on="1"/>
        <pt x="165" y="92" on="0"/>
        <pt x="227" y="342" on="1"/>
        <pt x="296" y="618" on="0"/>
        <pt x="296" y="620" on="1"/>
        <pt x="296" y="623" on="0"/>
        <pt x="294" y="623" on="1"/>
        <pt x="288" y="625" on="0"/>
        <pt x="247" y="627" on="1"/>
        <pt x="212" y="627" on="0"/>
        <pt x="208" y="634" on="1"/>
        <pt x="207" y="637" on="0"/>
        <pt x="211" y="657" on="1"/>
        <pt x="216" y="676" on="0"/>
      </contour>
    </TTGlyph>
    <TTGlyph name="I" xMin="44" yMin="0" xMax="513" yMax="683">
      <contour>
        <pt x="215" y="682" on="1"/>
        <pt x="217" y="683" on="0"/>
        <pt x="232" y="683" on="1"/>
        <pt x="347" y="678" on="0"/>
        <pt x="476" y="682" on="1"/>
        <pt x="507" y="683" on="0"/>
        <pt x="511" y="677" on="1"/>
        <pt x="513" y="674" on="0"/>
        <pt x="509" y="654" on="1"/>
        <pt x="504" y="631" on="0"/>
        <pt x="494" y="627" on="0"/>
        <pt x="464" y="627" on="1"/>
        <pt x="417" y="626" on="0"/>
        <pt x="409" y="622" on="1"/>
        <pt x="404" y="620" on="0"/>
        <pt x="402" y="615" on="1"/>
        <pt x="397" y="601" on="0"/>
        <pt x="331" y="339" on="1"/>
        <pt x="262" y="62" on="0"/>
        <pt x="263" y="61" on="1"/>
        <pt x="265" y="56" on="0"/>
        <pt x="327" y="56" on="1"/>
        <pt x="349" y="56" on="1"/>
        <pt x="353" y="53" on="1"/>
        <pt x="356" y="49" on="0"/>
        <pt x="356" y="46" on="1"/>
        <pt x="347" y="6" on="1"/>
        <pt x="344" y="0" on="0"/>
        <pt x="326" y="1" on="1"/>
        <pt x="321" y="1" on="0"/>
        <pt x="307" y="1" on="1"/>
        <pt x="151" y="5" on="0"/>
        <pt x="63" y="0" on="1"/>
        <pt x="51" y="0" on="1"/>
        <pt x="48" y="3" on="1"/>
        <pt x="44" y="7" on="0"/>
        <pt x="44" y="10" on="1"/>
        <pt x="53" y="50" on="1"/>
        <pt x="56" y="56" on="0"/>
        <pt x="81" y="56" on="1"/>
        <pt x="86" y="56" on="0"/>
        <pt x="93" y="56" on="1"/>
        <pt x="146" y="57" on="0"/>
        <pt x="154" y="64" on="1"/>
        <pt x="155" y="65" on="0"/>
        <pt x="225" y="342" on="1"/>
        <pt x="294" y="618" on="0"/>
        <pt x="294" y="620" on="1"/>
        <pt x="294" y="621" on="0"/>
        <pt x="292" y="623" on="1"/>
        <pt x="287" y="626" on="0"/>
        <pt x="240" y="627" on="1"/>
        <pt x="208" y="627" on="1"/>
        <pt x="204" y="631" on="1"/>
        <pt x="199" y="636" on="0"/>
        <pt x="205" y="658" on="1"/>
        <pt x="211" y="679" on="0"/>
      </contour>
    </TTGlyph>
    <TTGlyph name="J" xMin="69" yMin="-38" xMax="622" yMax="683">
      <contour>
        <pt x="331" y="682" on="1"/>
        <pt x="333" y="683" on="0"/>
        <pt x="350" y="683" on="1"/>
        <pt x="485" y="678" on="0"/>
        <pt x="591" y="682" on="1"/>
        <pt x="617" y="683" on="0"/>
        <pt x="621" y="676" on="1"/>
        <pt x="622" y="673" on="0"/>
        <pt x="617" y="653" on="1"/>
        <pt x="613" y="634" on="0"/>
        <pt x="609" y="630" on="1"/>
        <pt x="606" y="627" on="1"/>
        <pt x="590" y="627" on="1"/>
        <pt x="555" y="627" on="0"/>
        <pt x="545" y="623" on="1"/>
        <pt x="541" y="622" on="0"/>
        <pt x="537" y="614" on="0"/>
        <pt x="477" y="374" on="1"/>
        <pt x="417" y="132" on="0"/>
        <pt x="413" y="124" on="1"/>
        <pt x="383" y="45" on="0"/>
        <pt x="301" y="3" on="1"/>
        <pt x="284" y="-5" on="0"/>
        <pt x="267" y="-11" on="1"/>
        <pt x="186" y="-38" on="0"/>
        <pt x="125" y="-4" on="1"/>
        <pt x="121" y="-2" on="0"/>
        <pt x="118" y="0" on="1"/>
        <pt x="90" y="18" on="0"/>
        <pt x="78" y="43" on="1"/>
        <pt x="69" y="61" on="0"/>
        <pt x="69" y="86" on="1"/>
        <pt x="69" y="105" on="0"/>
        <pt x="70" y="111" on="1"/>
        <pt x="78" y="144" on="0"/>
        <pt x="102" y="161" on="1"/>
        <pt x="139" y="186" on="0"/>
        <pt x="172" y="169" on="1"/>
        <pt x="183" y="164" on="0"/>
        <pt x="189" y="154" on="1"/>
        <pt x="196" y="143" on="0"/>
        <pt x="196" y="128" on="1"/>
        <pt x="196" y="112" on="0"/>
        <pt x="188" y="95" on="1"/>
        <pt x="172" y="65" on="0"/>
        <pt x="139" y="55" on="1"/>
        <pt x="136" y="54" on="0"/>
        <pt x="142" y="49" on="1"/>
        <pt x="164" y="25" on="0"/>
        <pt x="204" y="25" on="1"/>
        <pt x="247" y="25" on="0"/>
        <pt x="286" y="80" on="1"/>
        <pt x="300" y="100" on="0"/>
        <pt x="309" y="124" on="1"/>
        <pt x="431" y="609" on="1"/>
        <pt x="434" y="619" on="0"/>
        <pt x="434" y="620" on="1"/>
        <pt x="434" y="626" on="0"/>
        <pt x="364" y="627" on="1"/>
        <pt x="324" y="627" on="1"/>
        <pt x="321" y="630" on="1"/>
        <pt x="315" y="634" on="0"/>
        <pt x="321" y="658" on="1"/>
        <pt x="326" y="679" on="0"/>
      </contour>
    </TTGlyph>
    <TTGlyph name="K" xMin="50" yMin="0" xMax="860" yMax="683">
      <contour>
        <pt x="220" y="680" on="1"/>
        <pt x="223" y="683" on="1"/>
        <pt x="236" y="683" on="1"/>
        <pt x="324" y="679" on="0"/>
        <pt x="424" y="681" on="1"/>
        <pt x="494" y="683" on="0"/>
        <pt x="493" y="683" on="1"/>
        <pt x="503" y="683" on="1"/>
        <pt x="506" y="680" on="1"/>
        <pt x="510" y="676" on="0"/>
        <pt x="510" y="673" on="1"/>
        <pt x="501" y="633" on="1"/>
        <pt x="488" y="627" on="0"/>
        <pt x="463" y="627" on="1"/>
        <pt x="420" y="626" on="0"/>
        <pt x="411" y="623" on="1"/>
        <pt x="406" y="620" on="1"/>
        <pt x="405" y="619" on="1"/>
        <pt x="402" y="616" on="0"/>
        <pt x="367" y="473" on="1"/>
        <pt x="331" y="331" on="0"/>
        <pt x="331" y="329" on="1"/>
        <pt x="639" y="593" on="1"/>
        <pt x="639" y="594" on="0"/>
        <pt x="644" y="599" on="1"/>
        <pt x="650" y="606" on="0"/>
        <pt x="650" y="613" on="1"/>
        <pt x="650" y="617" on="0"/>
        <pt x="648" y="620" on="1"/>
        <pt x="642" y="626" on="0"/>
        <pt x="629" y="627" on="1"/>
        <pt x="617" y="627" on="0"/>
        <pt x="614" y="634" on="1"/>
        <pt x="613" y="637" on="0"/>
        <pt x="617" y="657" on="1"/>
        <pt x="622" y="676" on="0"/>
        <pt x="626" y="680" on="1"/>
        <pt x="629" y="683" on="1"/>
        <pt x="644" y="683" on="1"/>
        <pt x="752" y="678" on="0"/>
        <pt x="835" y="682" on="1"/>
        <pt x="855" y="683" on="0"/>
        <pt x="858" y="676" on="1"/>
        <pt x="860" y="673" on="0"/>
        <pt x="855" y="653" on="1"/>
        <pt x="849" y="630" on="0"/>
        <pt x="845" y="629" on="1"/>
        <pt x="842" y="628" on="0"/>
        <pt x="829" y="627" on="1"/>
        <pt x="758" y="624" on="0"/>
        <pt x="712" y="588" on="1"/>
        <pt x="701" y="580" on="0"/>
        <pt x="700" y="579" on="1"/>
        <pt x="513" y="419" on="1"/>
        <pt x="510" y="416" on="1"/>
        <pt x="570" y="247" on="1"/>
        <pt x="628" y="78" on="0"/>
        <pt x="631" y="75" on="1"/>
        <pt x="637" y="65" on="0"/>
        <pt x="645" y="62" on="1"/>
        <pt x="657" y="57" on="0"/>
        <pt x="688" y="56" on="1"/>
        <pt x="711" y="56" on="0"/>
        <pt x="715" y="49" on="1"/>
        <pt x="716" y="46" on="0"/>
        <pt x="712" y="26" on="1"/>
        <pt x="707" y="7" on="0"/>
        <pt x="703" y="3" on="1"/>
        <pt x="700" y="0" on="1"/>
        <pt x="688" y="0" on="1"/>
        <pt x="607" y="4" on="0"/>
        <pt x="483" y="1" on="1"/>
        <pt x="451" y="0" on="0"/>
        <pt x="447" y="7" on="1"/>
        <pt x="446" y="10" on="0"/>
        <pt x="450" y="30" on="1"/>
        <pt x="456" y="53" on="0"/>
        <pt x="462" y="54" on="1"/>
        <pt x="464" y="55" on="0"/>
        <pt x="476" y="56" on="1"/>
        <pt x="513" y="57" on="0"/>
        <pt x="514" y="75" on="1"/>
        <pt x="514" y="80" on="0"/>
        <pt x="468" y="211" on="1"/>
        <pt x="422" y="341" on="1"/>
        <pt x="310" y="245" on="1"/>
        <pt x="265" y="61" on="1"/>
        <pt x="270" y="56" on="0"/>
        <pt x="325" y="56" on="1"/>
        <pt x="349" y="56" on="0"/>
        <pt x="352" y="49" on="1"/>
        <pt x="354" y="46" on="0"/>
        <pt x="349" y="26" on="1"/>
        <pt x="343" y="5" on="0"/>
        <pt x="341" y="3" on="1"/>
        <pt x="338" y="0" on="1"/>
        <pt x="323" y="0" on="1"/>
        <pt x="219" y="5" on="0"/>
        <pt x="86" y="1" on="1"/>
        <pt x="56" y="0" on="0"/>
        <pt x="52" y="7" on="1"/>
        <pt x="50" y="10" on="0"/>
        <pt x="55" y="30" on="1"/>
        <pt x="60" y="51" on="0"/>
        <pt x="63" y="53" on="1"/>
        <pt x="66" y="56" on="1"/>
        <pt x="98" y="56" on="1"/>
        <pt x="144" y="57" on="0"/>
        <pt x="150" y="60" on="1"/>
        <pt x="155" y="63" on="0"/>
        <pt x="158" y="72" on="1"/>
        <pt x="165" y="92" on="0"/>
        <pt x="227" y="342" on="1"/>
        <pt x="296" y="618" on="0"/>
        <pt x="296" y="620" on="1"/>
        <pt x="296" y="623" on="0"/>
        <pt x="294" y="623" on="1"/>
        <pt x="288" y="625" on="0"/>
        <pt x="247" y="627" on="1"/>
        <pt x="212" y="627" on="0"/>
        <pt x="208" y="634" on="1"/>
        <pt x="207" y="637" on="0"/>
        <pt x="211" y="657" on="1"/>
        <pt x="216" y="676" on="0"/>
      </contour>
    </TTGlyph>
    <TTGlyph name="L" xMin="51" yMin="0" xMax="631" yMax="683">
      <contour>
        <pt x="220" y="680" on="1"/>
        <pt x="223" y="683" on="1"/>
        <pt x="238" y="683" on="1"/>
        <pt x="341" y="678" on="0"/>
        <pt x="493" y="682" on="1"/>
        <pt x="529" y="683" on="0"/>
        <pt x="533" y="676" on="1"/>
        <pt x="534" y="673" on="0"/>
        <pt x="530" y="653" on="1"/>
        <pt x="524" y="633" on="0"/>
        <pt x="522" y="630" on="1"/>
        <pt x="519" y="627" on="1"/>
        <pt x="479" y="627" on="1"/>
        <pt x="414" y="626" on="0"/>
        <pt x="405" y="618" on="1"/>
        <pt x="402" y="616" on="0"/>
        <pt x="333" y="338" on="1"/>
        <pt x="264" y="62" on="0"/>
        <pt x="264" y="59" on="1"/>
        <pt x="264" y="57" on="0"/>
        <pt x="270" y="57" on="1"/>
        <pt x="376" y="57" on="1"/>
        <pt x="429" y="63" on="0"/>
        <pt x="471" y="93" on="1"/>
        <pt x="494" y="109" on="0"/>
        <pt x="508" y="129" on="1"/>
        <pt x="539" y="170" on="0"/>
        <pt x="567" y="253" on="1"/>
        <pt x="577" y="279" on="0"/>
        <pt x="583" y="283" on="0"/>
        <pt x="623" y="283" on="0"/>
        <pt x="625" y="281" on="1"/>
        <pt x="631" y="279" on="0"/>
        <pt x="631" y="272" on="1"/>
        <pt x="539" y="5" on="1"/>
        <pt x="537" y="1" on="0"/>
        <pt x="510" y="1" on="1"/>
        <pt x="481" y="0" on="0"/>
        <pt x="295" y="0" on="1"/>
        <pt x="58" y="0" on="1"/>
        <pt x="54" y="3" on="1"/>
        <pt x="51" y="8" on="0"/>
        <pt x="51" y="11" on="1"/>
        <pt x="51" y="27" on="0"/>
        <pt x="61" y="50" on="1"/>
        <pt x="73" y="56" on="0"/>
        <pt x="99" y="56" on="1"/>
        <pt x="144" y="57" on="0"/>
        <pt x="150" y="60" on="1"/>
        <pt x="155" y="63" on="0"/>
        <pt x="158" y="72" on="1"/>
        <pt x="165" y="92" on="0"/>
        <pt x="227" y="342" on="1"/>
        <pt x="296" y="618" on="0"/>
        <pt x="296" y="620" on="1"/>
        <pt x="296" y="623" on="0"/>
        <pt x="294" y="623" on="1"/>
        <pt x="288" y="625" on="0"/>
        <pt x="247" y="627" on="1"/>
        <pt x="212" y="627" on="0"/>
        <pt x="208" y="634" on="1"/>
        <pt x="207" y="637" on="0"/>
        <pt x="211" y="657" on="1"/>
        <pt x="216" y="676" on="0"/>
      </contour>
    </TTGlyph>
    <TTGlyph name="M" xMin="52" yMin="0" xMax="1015" yMax="683">
      <contour>
        <pt x="222" y="680" on="1"/>
        <pt x="225" y="683" on="1"/>
        <pt x="328" y="683" on="1"/>
        <pt x="434" y="683" on="0"/>
        <pt x="438" y="677" on="1"/>
        <pt x="439" y="676" on="0"/>
        <pt x="462" y="409" on="1"/>
        <pt x="484" y="141" on="0"/>
        <pt x="484" y="143" on="1"/>
        <pt x="637" y="405" on="1"/>
        <pt x="791" y="669" on="0"/>
        <pt x="793" y="672" on="1"/>
        <pt x="797" y="678" on="0"/>
        <pt x="802" y="680" on="1"/>
        <pt x="807" y="683" on="1"/>
        <pt x="908" y="683" on="1"/>
        <pt x="1008" y="683" on="1"/>
        <pt x="1012" y="680" on="1"/>
        <pt x="1015" y="676" on="0"/>
        <pt x="1015" y="673" on="1"/>
        <pt x="1006" y="633" on="1"/>
        <pt x="993" y="627" on="0"/>
        <pt x="968" y="627" on="1"/>
        <pt x="925" y="626" on="0"/>
        <pt x="916" y="623" on="1"/>
        <pt x="911" y="620" on="1"/>
        <pt x="910" y="619" on="1"/>
        <pt x="907" y="616" on="0"/>
        <pt x="838" y="339" on="1"/>
        <pt x="769" y="61" on="0"/>
        <pt x="770" y="61" on="1"/>
        <pt x="775" y="56" on="0"/>
        <pt x="830" y="56" on="1"/>
        <pt x="854" y="56" on="0"/>
        <pt x="857" y="49" on="1"/>
        <pt x="859" y="46" on="0"/>
        <pt x="854" y="26" on="1"/>
        <pt x="850" y="7" on="0"/>
        <pt x="846" y="3" on="1"/>
        <pt x="843" y="0" on="1"/>
        <pt x="828" y="0" on="1"/>
        <pt x="727" y="5" on="0"/>
        <pt x="599" y="1" on="1"/>
        <pt x="569" y="0" on="0"/>
        <pt x="565" y="7" on="1"/>
        <pt x="563" y="10" on="0"/>
        <pt x="568" y="30" on="1"/>
        <pt x="573" y="49" on="0"/>
        <pt x="575" y="53" on="1"/>
        <pt x="579" y="56" on="1"/>
        <pt x="610" y="56" on="1"/>
        <pt x="657" y="57" on="0"/>
        <pt x="663" y="60" on="1"/>
        <pt x="668" y="63" on="0"/>
        <pt x="671" y="73" on="1"/>
        <pt x="678" y="92" on="0"/>
        <pt x="738" y="333" on="1"/>
        <pt x="804" y="601" on="0"/>
        <pt x="804" y="599" on="1"/>
        <pt x="803" y="599" on="0"/>
        <pt x="632" y="305" on="1"/>
        <pt x="459" y="9" on="0"/>
        <pt x="458" y="8" on="1"/>
        <pt x="451" y="2" on="1"/>
        <pt x="447" y="0" on="0"/>
        <pt x="428" y="0" on="1"/>
        <pt x="404" y="0" on="0"/>
        <pt x="402" y="6" on="1"/>
        <pt x="400" y="11" on="0"/>
        <pt x="376" y="300" on="1"/>
        <pt x="352" y="592" on="1"/>
        <pt x="289" y="340" on="1"/>
        <pt x="226" y="91" on="0"/>
        <pt x="226" y="84" on="1"/>
        <pt x="226" y="78" on="0"/>
        <pt x="227" y="77" on="1"/>
        <pt x="235" y="56" on="0"/>
        <pt x="291" y="56" on="1"/>
        <pt x="305" y="56" on="0"/>
        <pt x="307" y="49" on="1"/>
        <pt x="309" y="46" on="0"/>
        <pt x="304" y="26" on="1"/>
        <pt x="300" y="7" on="0"/>
        <pt x="296" y="3" on="1"/>
        <pt x="293" y="0" on="1"/>
        <pt x="280" y="0" on="1"/>
        <pt x="189" y="5" on="0"/>
        <pt x="83" y="1" on="1"/>
        <pt x="58" y="0" on="0"/>
        <pt x="54" y="7" on="1"/>
        <pt x="52" y="10" on="0"/>
        <pt x="62" y="50" on="0"/>
        <pt x="68" y="56" on="0"/>
        <pt x="78" y="56" on="1"/>
        <pt x="149" y="56" on="0"/>
        <pt x="165" y="89" on="1"/>
        <pt x="298" y="620" on="1"/>
        <pt x="298" y="623" on="0"/>
        <pt x="296" y="623" on="1"/>
        <pt x="290" y="625" on="0"/>
        <pt x="249" y="627" on="1"/>
        <pt x="214" y="627" on="0"/>
        <pt x="210" y="634" on="1"/>
        <pt x="209" y="637" on="0"/>
        <pt x="213" y="657" on="1"/>
        <pt x="218" y="676" on="0"/>
      </contour>
    </TTGlyph>
    <TTGlyph name="N" xMin="51" yMin="0" xMax="863" yMax="683">
      <contour>
        <pt x="220" y="680" on="1"/>
        <pt x="223" y="683" on="1"/>
        <pt x="318" y="683" on="1"/>
        <pt x="413" y="683" on="1"/>
        <pt x="416" y="680" on="1"/>
        <pt x="419" y="678" on="0"/>
        <pt x="421" y="673" on="1"/>
        <pt x="505" y="435" on="1"/>
        <pt x="589" y="200" on="0"/>
        <pt x="589" y="198" on="0"/>
        <pt x="591" y="202" on="1"/>
        <pt x="595" y="215" on="0"/>
        <pt x="640" y="395" on="1"/>
        <pt x="691" y="599" on="0"/>
        <pt x="689" y="606" on="1"/>
        <pt x="689" y="607" on="0"/>
        <pt x="686" y="610" on="1"/>
        <pt x="675" y="627" on="0"/>
        <pt x="625" y="627" on="1"/>
        <pt x="611" y="627" on="0"/>
        <pt x="608" y="634" on="1"/>
        <pt x="607" y="638" on="0"/>
        <pt x="611" y="657" on="1"/>
        <pt x="616" y="676" on="0"/>
        <pt x="620" y="680" on="1"/>
        <pt x="623" y="683" on="1"/>
        <pt x="634" y="683" on="1"/>
        <pt x="693" y="679" on="0"/>
        <pt x="790" y="681" on="1"/>
        <pt x="848" y="683" on="1"/>
        <pt x="856" y="683" on="1"/>
        <pt x="859" y="680" on="1"/>
        <pt x="863" y="676" on="0"/>
        <pt x="863" y="673" on="1"/>
        <pt x="854" y="633" on="1"/>
        <pt x="850" y="627" on="0"/>
        <pt x="830" y="627" on="1"/>
        <pt x="797" y="626" on="0"/>
        <pt x="774" y="615" on="1"/>
        <pt x="759" y="608" on="0"/>
        <pt x="752" y="595" on="1"/>
        <pt x="749" y="590" on="0"/>
        <pt x="677" y="300" on="1"/>
        <pt x="603" y="4" on="0"/>
        <pt x="603" y="7" on="1"/>
        <pt x="602" y="5" on="0"/>
        <pt x="599" y="2" on="1"/>
        <pt x="596" y="0" on="0"/>
        <pt x="574" y="0" on="1"/>
        <pt x="552" y="0" on="1"/>
        <pt x="549" y="3" on="1"/>
        <pt x="546" y="5" on="0"/>
        <pt x="450" y="275" on="1"/>
        <pt x="348" y="563" on="0"/>
        <pt x="350" y="558" on="1"/>
        <pt x="345" y="572" on="1"/>
        <pt x="284" y="331" on="1"/>
        <pt x="224" y="90" on="0"/>
        <pt x="224" y="85" on="1"/>
        <pt x="224" y="78" on="0"/>
        <pt x="225" y="77" on="1"/>
        <pt x="233" y="56" on="0"/>
        <pt x="289" y="56" on="1"/>
        <pt x="299" y="56" on="1"/>
        <pt x="303" y="53" on="1"/>
        <pt x="306" y="49" on="0"/>
        <pt x="306" y="45" on="1"/>
        <pt x="306" y="29" on="0"/>
        <pt x="296" y="6" on="1"/>
        <pt x="293" y="0" on="0"/>
        <pt x="278" y="1" on="1"/>
        <pt x="274" y="1" on="0"/>
        <pt x="263" y="1" on="1"/>
        <pt x="138" y="5" on="0"/>
        <pt x="67" y="0" on="1"/>
        <pt x="58" y="0" on="1"/>
        <pt x="55" y="3" on="1"/>
        <pt x="51" y="7" on="0"/>
        <pt x="51" y="11" on="1"/>
        <pt x="51" y="27" on="0"/>
        <pt x="61" y="50" on="1"/>
        <pt x="63" y="56" on="0"/>
        <pt x="77" y="56" on="1"/>
        <pt x="122" y="56" on="0"/>
        <pt x="145" y="71" on="1"/>
        <pt x="155" y="76" on="0"/>
        <pt x="161" y="86" on="1"/>
        <pt x="164" y="91" on="0"/>
        <pt x="231" y="358" on="1"/>
        <pt x="297" y="625" on="0"/>
        <pt x="296" y="625" on="1"/>
        <pt x="255" y="627" on="1"/>
        <pt x="212" y="627" on="0"/>
        <pt x="208" y="634" on="1"/>
        <pt x="207" y="637" on="0"/>
        <pt x="211" y="657" on="1"/>
        <pt x="216" y="676" on="0"/>
      </contour>
    </TTGlyph>
    <TTGlyph name="O" xMin="139" yMin="-49" xMax="789" yMax="707">
      <contour>
        <pt x="540" y="704" on="1"/>
        <pt x="567" y="707" on="0"/>
        <pt x="595" y="702" on="1"/>
        <pt x="691" y="688" on="0"/>
        <pt x="744" y="607" on="1"/>
        <pt x="762" y="579" on="0"/>
        <pt x="769" y="556" on="1"/>
        <pt x="787" y="508" on="0"/>
        <pt x="788" y="453" on="1"/>
        <pt x="789" y="376" on="0"/>
        <pt x="762" y="298" on="1"/>
        <pt x="725" y="187" on="0"/>
        <pt x="639" y="100" on="1"/>
        <pt x="561" y="23" on="0"/>
        <pt x="471" y="-6" on="1"/>
        <pt x="341" y="-49" on="0"/>
        <pt x="247" y="19" on="1"/>
        <pt x="233" y="29" on="0"/>
        <pt x="221" y="41" on="1"/>
        <pt x="139" y="123" on="0"/>
        <pt x="150" y="267" on="1"/>
        <pt x="157" y="356" on="0"/>
        <pt x="201" y="445" on="1"/>
        <pt x="265" y="572" on="0"/>
        <pt x="376" y="644" on="1"/>
        <pt x="455" y="696" on="0"/>
      </contour>
      <contour>
        <pt x="567" y="653" on="1"/>
        <pt x="520" y="660" on="0"/>
        <pt x="471" y="635" on="1"/>
        <pt x="384" y="594" on="0"/>
        <pt x="330" y="484" on="1"/>
        <pt x="303" y="429" on="0"/>
        <pt x="284" y="352" on="1"/>
        <pt x="263" y="264" on="0"/>
        <pt x="263" y="204" on="1"/>
        <pt x="263" y="142" on="0"/>
        <pt x="282" y="101" on="1"/>
        <pt x="316" y="31" on="0"/>
        <pt x="387" y="29" on="1"/>
        <pt x="396" y="29" on="0"/>
        <pt x="406" y="30" on="1"/>
        <pt x="494" y="40" on="0"/>
        <pt x="567" y="139" on="1"/>
        <pt x="594" y="175" on="0"/>
        <pt x="614" y="219" on="1"/>
        <pt x="662" y="326" on="0"/>
        <pt x="677" y="444" on="1"/>
        <pt x="681" y="482" on="0"/>
        <pt x="677" y="521" on="1"/>
        <pt x="677" y="523" on="0"/>
        <pt x="677" y="525" on="1"/>
        <pt x="666" y="585" on="0"/>
        <pt x="636" y="617" on="1"/>
        <pt x="609" y="647" on="0"/>
      </contour>
    </TTGlyph>
    <TTGlyph name="P" xMin="51" yMin="0" xMax="750" yMax="683">
      <contour>
        <pt x="220" y="680" on="1"/>
        <pt x="223" y="683" on="1"/>
        <pt x="394" y="683" on="1"/>
        <pt x="570" y="683" on="0"/>
        <pt x="576" y="682" on="1"/>
        <pt x="662" y="673" on="0"/>
        <pt x="704" y="612" on="1"/>
        <pt x="750" y="540" on="0"/>
        <pt x="710" y="450" on="1"/>
        <pt x="704" y="437" on="0"/>
        <pt x="697" y="425" on="1"/>
        <pt x="666" y="376" on="0"/>
        <pt x="618" y="343" on="1"/>
        <pt x="556" y="300" on="0"/>
        <pt x="485" y="292" on="1"/>
        <pt x="479" y="291" on="0"/>
        <pt x="398" y="291" on="1"/>
        <pt x="321" y="291" on="1"/>
        <pt x="293" y="176" on="1"/>
        <pt x="263" y="61" on="0"/>
        <pt x="265" y="61" on="1"/>
        <pt x="270" y="56" on="0"/>
        <pt x="326" y="56" on="1"/>
        <pt x="346" y="56" on="1"/>
        <pt x="350" y="53" on="1"/>
        <pt x="353" y="49" on="0"/>
        <pt x="353" y="45" on="1"/>
        <pt x="353" y="29" on="0"/>
        <pt x="343" y="6" on="1"/>
        <pt x="340" y="0" on="0"/>
        <pt x="322" y="1" on="1"/>
        <pt x="318" y="1" on="0"/>
        <pt x="305" y="1" on="1"/>
        <pt x="156" y="5" on="0"/>
        <pt x="69" y="0" on="1"/>
        <pt x="58" y="0" on="1"/>
        <pt x="55" y="3" on="1"/>
        <pt x="51" y="7" on="0"/>
        <pt x="51" y="11" on="1"/>
        <pt x="51" y="27" on="0"/>
        <pt x="61" y="50" on="1"/>
        <pt x="73" y="56" on="0"/>
        <pt x="99" y="56" on="1"/>
        <pt x="144" y="57" on="0"/>
        <pt x="150" y="60" on="1"/>
        <pt x="155" y="63" on="0"/>
        <pt x="158" y="72" on="1"/>
        <pt x="165" y="92" on="0"/>
        <pt x="227" y="342" on="1"/>
        <pt x="296" y="618" on="0"/>
        <pt x="296" y="620" on="1"/>
        <pt x="296" y="623" on="0"/>
        <pt x="294" y="623" on="1"/>
        <pt x="288" y="625" on="0"/>
        <pt x="247" y="627" on="1"/>
        <pt x="212" y="627" on="0"/>
        <pt x="208" y="634" on="1"/>
        <pt x="207" y="637" on="0"/>
        <pt x="211" y="657" on="1"/>
        <pt x="216" y="676" on="0"/>
      </contour>
      <contour>
        <pt x="551" y="624" on="1"/>
        <pt x="540" y="626" on="0"/>
        <pt x="480" y="627" on="1"/>
        <pt x="417" y="627" on="0"/>
        <pt x="408" y="625" on="1"/>
        <pt x="403" y="623" on="0"/>
        <pt x="402" y="621" on="1"/>
        <pt x="401" y="620" on="0"/>
        <pt x="366" y="482" on="1"/>
        <pt x="331" y="345" on="0"/>
        <pt x="331" y="344" on="1"/>
        <pt x="331" y="342" on="0"/>
        <pt x="392" y="342" on="1"/>
        <pt x="458" y="342" on="0"/>
        <pt x="465" y="343" on="1"/>
        <pt x="537" y="349" on="0"/>
        <pt x="570" y="395" on="1"/>
        <pt x="586" y="419" on="0"/>
        <pt x="603" y="484" on="1"/>
        <pt x="615" y="532" on="0"/>
        <pt x="615" y="557" on="1"/>
        <pt x="616" y="585" on="0"/>
        <pt x="600" y="602" on="1"/>
        <pt x="582" y="619" on="0"/>
      </contour>
    </TTGlyph>
    <TTGlyph name="Q" xMin="139" yMin="-197" xMax="791" yMax="707">
      <contour>
        <pt x="540" y="704" on="1"/>
        <pt x="567" y="707" on="0"/>
        <pt x="595" y="702" on="1"/>
        <pt x="691" y="688" on="0"/>
        <pt x="744" y="607" on="1"/>
        <pt x="762" y="579" on="0"/>
        <pt x="769" y="556" on="1"/>
        <pt x="779" y="531" on="0"/>
        <pt x="786" y="489" on="1"/>
        <pt x="791" y="450" on="0"/>
        <pt x="787" y="414" on="1"/>
        <pt x="778" y="290" on="0"/>
        <pt x="703" y="180" on="1"/>
        <pt x="632" y="72" on="0"/>
        <pt x="524" y="16" on="1"/>
        <pt x="509" y="9" on="1"/>
        <pt x="511" y="0" on="1"/>
        <pt x="516" y="-42" on="0"/>
        <pt x="532" y="-61" on="1"/>
        <pt x="546" y="-75" on="0"/>
        <pt x="571" y="-75" on="1"/>
        <pt x="621" y="-75" on="0"/>
        <pt x="655" y="-33" on="1"/>
        <pt x="666" y="-19" on="0"/>
        <pt x="676" y="11" on="0"/>
        <pt x="684" y="11" on="1"/>
        <pt x="693" y="11" on="0"/>
        <pt x="695" y="2" on="1"/>
        <pt x="695" y="-5" on="0"/>
        <pt x="685" y="-35" on="1"/>
        <pt x="639" y="-181" on="0"/>
        <pt x="552" y="-193" on="1"/>
        <pt x="532" y="-197" on="0"/>
        <pt x="513" y="-191" on="1"/>
        <pt x="483" y="-183" on="0"/>
        <pt x="471" y="-157" on="1"/>
        <pt x="460" y="-135" on="0"/>
        <pt x="460" y="-98" on="1"/>
        <pt x="460" y="-76" on="0"/>
        <pt x="465" y="-34" on="1"/>
        <pt x="467" y="-8" on="1"/>
        <pt x="456" y="-11" on="1"/>
        <pt x="332" y="-45" on="0"/>
        <pt x="244" y="21" on="1"/>
        <pt x="232" y="30" on="0"/>
        <pt x="221" y="41" on="1"/>
        <pt x="139" y="123" on="0"/>
        <pt x="150" y="267" on="1"/>
        <pt x="157" y="356" on="0"/>
        <pt x="201" y="445" on="1"/>
        <pt x="265" y="572" on="0"/>
        <pt x="376" y="644" on="1"/>
        <pt x="455" y="696" on="0"/>
      </contour>
      <contour>
        <pt x="564" y="654" on="1"/>
        <pt x="488" y="664" on="0"/>
        <pt x="410" y="593" on="1"/>
        <pt x="395" y="579" on="0"/>
        <pt x="381" y="563" on="1"/>
        <pt x="321" y="491" on="0"/>
        <pt x="287" y="375" on="1"/>
        <pt x="267" y="301" on="0"/>
        <pt x="261" y="250" on="1"/>
        <pt x="244" y="124" on="0"/>
        <pt x="303" y="64" on="1"/>
        <pt x="311" y="57" on="1"/>
        <pt x="311" y="62" on="1"/>
        <pt x="314" y="85" on="0"/>
        <pt x="331" y="110" on="1"/>
        <pt x="356" y="146" on="0"/>
        <pt x="397" y="157" on="1"/>
        <pt x="405" y="159" on="0"/>
        <pt x="421" y="159" on="1"/>
        <pt x="454" y="159" on="0"/>
        <pt x="474" y="140" on="1"/>
        <pt x="482" y="131" on="0"/>
        <pt x="488" y="120" on="1"/>
        <pt x="493" y="110" on="0"/>
        <pt x="495" y="102" on="1"/>
        <pt x="502" y="81" on="0"/>
        <pt x="502" y="71" on="1"/>
        <pt x="502" y="69" on="0"/>
        <pt x="503" y="69" on="1"/>
        <pt x="506" y="69" on="0"/>
        <pt x="530" y="91" on="1"/>
        <pt x="564" y="122" on="0"/>
        <pt x="593" y="170" on="1"/>
        <pt x="613" y="203" on="0"/>
        <pt x="628" y="242" on="1"/>
        <pt x="667" y="341" on="0"/>
        <pt x="678" y="446" on="1"/>
        <pt x="682" y="476" on="0"/>
        <pt x="678" y="512" on="1"/>
        <pt x="671" y="581" on="0"/>
        <pt x="633" y="620" on="1"/>
        <pt x="603" y="648" on="0"/>
      </contour>
      <contour>
        <pt x="437" y="110" on="1"/>
        <pt x="417" y="116" on="0"/>
        <pt x="403" y="111" on="1"/>
        <pt x="389" y="107" on="0"/>
        <pt x="377" y="95" on="1"/>
        <pt x="359" y="77" on="0"/>
        <pt x="359" y="56" on="1"/>
        <pt x="359" y="44" on="0"/>
        <pt x="367" y="34" on="1"/>
        <pt x="374" y="28" on="0"/>
        <pt x="391" y="28" on="1"/>
        <pt x="424" y="28" on="0"/>
        <pt x="458" y="43" on="1"/>
        <pt x="470" y="48" on="1"/>
        <pt x="470" y="57" on="1"/>
        <pt x="469" y="82" on="0"/>
        <pt x="457" y="97" on="1"/>
        <pt x="451" y="105" on="0"/>
      </contour>
    </TTGlyph>
    <TTGlyph name="R" xMin="51" yMin="-22" xMax="725" yMax="683">
      <contour>
        <pt x="220" y="680" on="1"/>
        <pt x="223" y="683" on="1"/>
        <pt x="384" y="683" on="1"/>
        <pt x="546" y="682" on="1"/>
        <pt x="560" y="680" on="1"/>
        <pt x="626" y="670" on="0"/>
        <pt x="666" y="635" on="1"/>
        <pt x="706" y="603" on="0"/>
        <pt x="715" y="553" on="1"/>
        <pt x="719" y="526" on="0"/>
        <pt x="713" y="499" on="1"/>
        <pt x="696" y="428" on="0"/>
        <pt x="616" y="374" on="1"/>
        <pt x="583" y="353" on="0"/>
        <pt x="547" y="340" on="1"/>
        <pt x="539" y="336" on="0"/>
        <pt x="538" y="336" on="1"/>
        <pt x="546" y="328" on="1"/>
        <pt x="567" y="311" on="0"/>
        <pt x="582" y="283" on="1"/>
        <pt x="593" y="257" on="0"/>
        <pt x="594" y="231" on="1"/>
        <pt x="594" y="210" on="0"/>
        <pt x="588" y="160" on="1"/>
        <pt x="583" y="110" on="0"/>
        <pt x="583" y="82" on="1"/>
        <pt x="583" y="58" on="0"/>
        <pt x="585" y="51" on="1"/>
        <pt x="591" y="29" on="0"/>
        <pt x="616" y="25" on="1"/>
        <pt x="629" y="25" on="0"/>
        <pt x="637" y="32" on="1"/>
        <pt x="652" y="42" on="0"/>
        <pt x="665" y="87" on="1"/>
        <pt x="669" y="102" on="0"/>
        <pt x="676" y="104" on="1"/>
        <pt x="680" y="105" on="0"/>
        <pt x="696" y="105" on="1"/>
        <pt x="717" y="105" on="0"/>
        <pt x="725" y="95" on="0"/>
        <pt x="719" y="78" on="1"/>
        <pt x="694" y="4" on="0"/>
        <pt x="641" y="-17" on="1"/>
        <pt x="634" y="-20" on="0"/>
        <pt x="620" y="-22" on="0"/>
        <pt x="602" y="-22" on="1"/>
        <pt x="499" y="-17" on="0"/>
        <pt x="470" y="43" on="1"/>
        <pt x="462" y="58" on="0"/>
        <pt x="461" y="82" on="1"/>
        <pt x="461" y="101" on="0"/>
        <pt x="462" y="106" on="1"/>
        <pt x="467" y="129" on="0"/>
        <pt x="476" y="168" on="1"/>
        <pt x="493" y="236" on="0"/>
        <pt x="491" y="254" on="1"/>
        <pt x="487" y="301" on="0"/>
        <pt x="449" y="315" on="1"/>
        <pt x="442" y="318" on="1"/>
        <pt x="383" y="318" on="1"/>
        <pt x="325" y="318" on="1"/>
        <pt x="324" y="314" on="1"/>
        <pt x="324" y="316" on="0"/>
        <pt x="292" y="186" on="1"/>
        <pt x="261" y="61" on="0"/>
        <pt x="262" y="61" on="1"/>
        <pt x="267" y="56" on="0"/>
        <pt x="323" y="56" on="1"/>
        <pt x="343" y="56" on="1"/>
        <pt x="347" y="53" on="1"/>
        <pt x="350" y="49" on="0"/>
        <pt x="350" y="45" on="1"/>
        <pt x="350" y="29" on="0"/>
        <pt x="340" y="6" on="1"/>
        <pt x="337" y="0" on="0"/>
        <pt x="320" y="1" on="1"/>
        <pt x="316" y="1" on="0"/>
        <pt x="303" y="1" on="1"/>
        <pt x="153" y="5" on="0"/>
        <pt x="69" y="0" on="1"/>
        <pt x="58" y="0" on="1"/>
        <pt x="55" y="3" on="1"/>
        <pt x="51" y="7" on="0"/>
        <pt x="51" y="11" on="1"/>
        <pt x="51" y="27" on="0"/>
        <pt x="61" y="50" on="1"/>
        <pt x="73" y="56" on="0"/>
        <pt x="99" y="56" on="1"/>
        <pt x="144" y="57" on="0"/>
        <pt x="150" y="60" on="1"/>
        <pt x="155" y="63" on="0"/>
        <pt x="158" y="72" on="1"/>
        <pt x="165" y="92" on="0"/>
        <pt x="227" y="342" on="1"/>
        <pt x="296" y="618" on="0"/>
        <pt x="296" y="620" on="1"/>
        <pt x="296" y="623" on="0"/>
        <pt x="294" y="623" on="1"/>
        <pt x="288" y="625" on="0"/>
        <pt x="247" y="627" on="1"/>
        <pt x="212" y="627" on="0"/>
        <pt x="208" y="634" on="1"/>
        <pt x="207" y="637" on="0"/>
        <pt x="211" y="657" on="1"/>
        <pt x="216" y="676" on="0"/>
      </contour>
      <contour>
        <pt x="531" y="625" on="1"/>
        <pt x="525" y="626" on="0"/>
        <pt x="470" y="627" on="1"/>
        <pt x="417" y="627" on="0"/>
        <pt x="408" y="625" on="1"/>
        <pt x="403" y="623" on="0"/>
        <pt x="402" y="621" on="1"/>
        <pt x="337" y="365" on="1"/>
        <pt x="395" y="365" on="1"/>
        <pt x="463" y="366" on="0"/>
        <pt x="484" y="371" on="1"/>
        <pt x="542" y="384" on="0"/>
        <pt x="569" y="428" on="1"/>
        <pt x="582" y="450" on="0"/>
        <pt x="594" y="500" on="1"/>
        <pt x="603" y="537" on="0"/>
        <pt x="603" y="557" on="1"/>
        <pt x="603" y="584" on="0"/>
        <pt x="587" y="600" on="1"/>
        <pt x="577" y="610" on="0"/>
        <pt x="569" y="613" on="1"/>
        <pt x="556" y="620" on="0"/>
      </contour>
    </TTGlyph>
    <TTGlyph name="S" xMin="74" yMin="-22" xMax="634" yMax="708">
      <contour>
        <pt x="407" y="703" on="1"/>
        <pt x="437" y="708" on="0"/>
        <pt x="469" y="701" on="1"/>
        <pt x="499" y="695" on="0"/>
        <pt x="522" y="680" on="1"/>
        <pt x="534" y="672" on="0"/>
        <pt x="550" y="654" on="1"/>
        <pt x="553" y="649" on="0"/>
        <pt x="554" y="648" on="1"/>
        <pt x="581" y="676" on="1"/>
        <pt x="609" y="704" on="0"/>
        <pt x="610" y="704" on="1"/>
        <pt x="610" y="705" on="0"/>
        <pt x="619" y="705" on="1"/>
        <pt x="630" y="705" on="0"/>
        <pt x="633" y="699" on="1"/>
        <pt x="634" y="695" on="0"/>
        <pt x="605" y="579" on="1"/>
        <pt x="575" y="461" on="0"/>
        <pt x="573" y="459" on="1"/>
        <pt x="570" y="456" on="1"/>
        <pt x="549" y="456" on="1"/>
        <pt x="523" y="456" on="0"/>
        <pt x="521" y="461" on="1"/>
        <pt x="520" y="465" on="0"/>
        <pt x="522" y="478" on="1"/>
        <pt x="538" y="583" on="0"/>
        <pt x="496" y="625" on="1"/>
        <pt x="473" y="649" on="0"/>
        <pt x="430" y="652" on="1"/>
        <pt x="381" y="653" on="0"/>
        <pt x="341" y="613" on="1"/>
        <pt x="320" y="592" on="0"/>
        <pt x="309" y="570" on="1"/>
        <pt x="291" y="532" on="0"/>
        <pt x="292" y="497" on="1"/>
        <pt x="293" y="474" on="0"/>
        <pt x="300" y="461" on="1"/>
        <pt x="310" y="440" on="0"/>
        <pt x="328" y="431" on="1"/>
        <pt x="330" y="430" on="0"/>
        <pt x="392" y="411" on="1"/>
        <pt x="461" y="391" on="0"/>
        <pt x="474" y="383" on="1"/>
        <pt x="538" y="346" on="0"/>
        <pt x="540" y="254" on="1"/>
        <pt x="541" y="181" on="0"/>
        <pt x="499" y="108" on="1"/>
        <pt x="467" y="51" on="0"/>
        <pt x="412" y="14" on="1"/>
        <pt x="374" y="-11" on="0"/>
        <pt x="333" y="-19" on="1"/>
        <pt x="323" y="-21" on="0"/>
        <pt x="300" y="-21" on="1"/>
        <pt x="266" y="-21" on="0"/>
        <pt x="242" y="-15" on="1"/>
        <pt x="193" y="-2" on="0"/>
        <pt x="163" y="29" on="1"/>
        <pt x="155" y="37" on="1"/>
        <pt x="128" y="9" on="1"/>
        <pt x="99" y="-21" on="1"/>
        <pt x="89" y="-22" on="1"/>
        <pt x="88" y="-22" on="1"/>
        <pt x="80" y="-22" on="0"/>
        <pt x="74" y="-16" on="0"/>
        <pt x="74" y="-14" on="1"/>
        <pt x="74" y="-11" on="0"/>
        <pt x="132" y="221" on="1"/>
        <pt x="139" y="227" on="0"/>
        <pt x="160" y="227" on="1"/>
        <pt x="181" y="227" on="1"/>
        <pt x="184" y="224" on="1"/>
        <pt x="188" y="220" on="0"/>
        <pt x="185" y="204" on="1"/>
        <pt x="185" y="202" on="0"/>
        <pt x="184" y="199" on="1"/>
        <pt x="172" y="140" on="0"/>
        <pt x="190" y="100" on="1"/>
        <pt x="211" y="48" on="0"/>
        <pt x="278" y="37" on="1"/>
        <pt x="307" y="32" on="0"/>
        <pt x="324" y="35" on="1"/>
        <pt x="377" y="44" on="0"/>
        <pt x="416" y="106" on="1"/>
        <pt x="431" y="130" on="0"/>
        <pt x="439" y="157" on="1"/>
        <pt x="445" y="179" on="0"/>
        <pt x="445" y="206" on="1"/>
        <pt x="445" y="232" on="0"/>
        <pt x="439" y="246" on="1"/>
        <pt x="429" y="271" on="0"/>
        <pt x="409" y="280" on="1"/>
        <pt x="402" y="284" on="0"/>
        <pt x="344" y="301" on="1"/>
        <pt x="284" y="318" on="0"/>
        <pt x="273" y="323" on="1"/>
        <pt x="253" y="333" on="0"/>
        <pt x="236" y="350" on="1"/>
        <pt x="192" y="396" on="0"/>
        <pt x="198" y="470" on="1"/>
        <pt x="204" y="542" on="0"/>
        <pt x="251" y="607" on="1"/>
        <pt x="276" y="638" on="0"/>
        <pt x="304" y="659" on="1"/>
        <pt x="354" y="697" on="0"/>
      </contour>
    </TTGlyph>
    <TTGlyph name="T" xMin="168" yMin="0" xMax="807" yMax="677">
      <contour>
        <pt x="248" y="675" on="1"/>
        <pt x="250" y="677" on="1"/>
        <pt x="524" y="677" on="1"/>
        <pt x="800" y="677" on="0"/>
        <pt x="805" y="671" on="1"/>
        <pt x="807" y="666" on="0"/>
        <pt x="787" y="551" on="1"/>
        <pt x="765" y="433" on="0"/>
        <pt x="765" y="432" on="1"/>
        <pt x="762" y="427" on="0"/>
        <pt x="714" y="427" on="0"/>
        <pt x="712" y="433" on="1"/>
        <pt x="710" y="437" on="0"/>
        <pt x="714" y="463" on="1"/>
        <pt x="729" y="548" on="0"/>
        <pt x="722" y="578" on="1"/>
        <pt x="721" y="590" on="0"/>
        <pt x="710" y="599" on="1"/>
        <pt x="701" y="608" on="0"/>
        <pt x="684" y="614" on="1"/>
        <pt x="663" y="621" on="0"/>
        <pt x="617" y="621" on="1"/>
        <pt x="570" y="621" on="0"/>
        <pt x="566" y="615" on="1"/>
        <pt x="428" y="62" on="1"/>
        <pt x="436" y="57" on="0"/>
        <pt x="505" y="56" on="1"/>
        <pt x="551" y="56" on="0"/>
        <pt x="555" y="49" on="1"/>
        <pt x="556" y="46" on="0"/>
        <pt x="552" y="26" on="1"/>
        <pt x="547" y="7" on="0"/>
        <pt x="543" y="3" on="1"/>
        <pt x="540" y="0" on="1"/>
        <pt x="522" y="0" on="1"/>
        <pt x="392" y="5" on="0"/>
        <pt x="218" y="1" on="1"/>
        <pt x="179" y="0" on="0"/>
        <pt x="175" y="7" on="1"/>
        <pt x="174" y="10" on="0"/>
        <pt x="178" y="30" on="1"/>
        <pt x="183" y="49" on="0"/>
        <pt x="187" y="53" on="1"/>
        <pt x="190" y="56" on="1"/>
        <pt x="219" y="56" on="1"/>
        <pt x="284" y="56" on="0"/>
        <pt x="300" y="59" on="1"/>
        <pt x="311" y="62" on="0"/>
        <pt x="312" y="62" on="1"/>
        <pt x="317" y="64" on="0"/>
        <pt x="319" y="68" on="1"/>
        <pt x="326" y="83" on="0"/>
        <pt x="390" y="343" on="1"/>
        <pt x="459" y="619" on="0"/>
        <pt x="458" y="619" on="1"/>
        <pt x="455" y="621" on="0"/>
        <pt x="405" y="621" on="1"/>
        <pt x="369" y="620" on="0"/>
        <pt x="361" y="618" on="1"/>
        <pt x="337" y="614" on="0"/>
        <pt x="320" y="605" on="1"/>
        <pt x="302" y="596" on="0"/>
        <pt x="291" y="585" on="1"/>
        <pt x="266" y="560" on="0"/>
        <pt x="235" y="466" on="1"/>
        <pt x="223" y="433" on="0"/>
        <pt x="223" y="432" on="1"/>
        <pt x="219" y="427" on="0"/>
        <pt x="196" y="427" on="1"/>
        <pt x="172" y="427" on="0"/>
        <pt x="170" y="433" on="1"/>
        <pt x="168" y="437" on="0"/>
        <pt x="168" y="438" on="1"/>
        <pt x="244" y="670" on="1"/>
        <pt x="244" y="673" on="0"/>
      </contour>
    </TTGlyph>
    <TTGlyph name="U" xMin="176" yMin="-25" xMax="863" yMax="683">
      <contour>
        <pt x="220" y="680" on="1"/>
        <pt x="223" y="683" on="1"/>
        <pt x="236" y="683" on="1"/>
        <pt x="324" y="679" on="0"/>
        <pt x="424" y="681" on="1"/>
        <pt x="494" y="683" on="0"/>
        <pt x="493" y="683" on="1"/>
        <pt x="503" y="683" on="1"/>
        <pt x="506" y="680" on="1"/>
        <pt x="510" y="676" on="0"/>
        <pt x="510" y="673" on="1"/>
        <pt x="501" y="633" on="1"/>
        <pt x="488" y="627" on="0"/>
        <pt x="463" y="627" on="1"/>
        <pt x="420" y="626" on="0"/>
        <pt x="411" y="623" on="1"/>
        <pt x="406" y="620" on="1"/>
        <pt x="405" y="619" on="1"/>
        <pt x="403" y="617" on="0"/>
        <pt x="350" y="407" on="1"/>
        <pt x="297" y="195" on="0"/>
        <pt x="292" y="166" on="1"/>
        <pt x="283" y="101" on="0"/>
        <pt x="310" y="68" on="1"/>
        <pt x="343" y="25" on="0"/>
        <pt x="416" y="36" on="1"/>
        <pt x="432" y="39" on="0"/>
        <pt x="447" y="44" on="1"/>
        <pt x="551" y="76" on="0"/>
        <pt x="593" y="201" on="1"/>
        <pt x="595" y="207" on="0"/>
        <pt x="646" y="405" on="1"/>
        <pt x="694" y="599" on="0"/>
        <pt x="692" y="606" on="1"/>
        <pt x="692" y="607" on="0"/>
        <pt x="689" y="610" on="1"/>
        <pt x="678" y="627" on="0"/>
        <pt x="628" y="627" on="1"/>
        <pt x="614" y="627" on="0"/>
        <pt x="611" y="634" on="1"/>
        <pt x="610" y="638" on="0"/>
        <pt x="614" y="657" on="1"/>
        <pt x="619" y="676" on="0"/>
        <pt x="623" y="680" on="1"/>
        <pt x="626" y="683" on="1"/>
        <pt x="637" y="683" on="1"/>
        <pt x="695" y="679" on="0"/>
        <pt x="791" y="681" on="1"/>
        <pt x="848" y="683" on="1"/>
        <pt x="856" y="683" on="1"/>
        <pt x="859" y="680" on="1"/>
        <pt x="863" y="676" on="0"/>
        <pt x="863" y="673" on="1"/>
        <pt x="854" y="633" on="1"/>
        <pt x="850" y="627" on="0"/>
        <pt x="830" y="627" on="1"/>
        <pt x="797" y="626" on="0"/>
        <pt x="774" y="615" on="1"/>
        <pt x="759" y="608" on="0"/>
        <pt x="752" y="595" on="1"/>
        <pt x="748" y="589" on="0"/>
        <pt x="702" y="402" on="1"/>
        <pt x="655" y="217" on="0"/>
        <pt x="651" y="204" on="1"/>
        <pt x="615" y="92" on="0"/>
        <pt x="521" y="26" on="1"/>
        <pt x="456" y="-20" on="0"/>
        <pt x="388" y="-22" on="1"/>
        <pt x="299" y="-25" on="0"/>
        <pt x="242" y="33" on="1"/>
        <pt x="238" y="37" on="0"/>
        <pt x="235" y="41" on="1"/>
        <pt x="176" y="112" on="0"/>
        <pt x="195" y="211" on="1"/>
        <pt x="198" y="230" on="0"/>
        <pt x="247" y="420" on="1"/>
        <pt x="296" y="618" on="0"/>
        <pt x="296" y="620" on="1"/>
        <pt x="296" y="623" on="0"/>
        <pt x="294" y="623" on="1"/>
        <pt x="288" y="625" on="0"/>
        <pt x="247" y="627" on="1"/>
        <pt x="212" y="627" on="0"/>
        <pt x="208" y="634" on="1"/>
        <pt x="207" y="637" on="0"/>
        <pt x="211" y="657" on="1"/>
        <pt x="216" y="676" on="0"/>
      </contour>
    </TTGlyph>
    <TTGlyph name="V" xMin="202" yMin="-22" xMax="870" yMax="683">
      <contour>
        <pt x="215" y="680" on="1"/>
        <pt x="218" y="683" on="1"/>
        <pt x="230" y="683" on="1"/>
        <pt x="286" y="679" on="0"/>
        <pt x="397" y="681" on="1"/>
        <pt x="467" y="683" on="0"/>
        <pt x="466" y="683" on="1"/>
        <pt x="476" y="683" on="1"/>
        <pt x="479" y="680" on="1"/>
        <pt x="483" y="676" on="0"/>
        <pt x="483" y="672" on="1"/>
        <pt x="483" y="656" on="0"/>
        <pt x="473" y="633" on="1"/>
        <pt x="471" y="627" on="0"/>
        <pt x="447" y="627" on="1"/>
        <pt x="425" y="625" on="0"/>
        <pt x="417" y="625" on="1"/>
        <pt x="398" y="621" on="0"/>
        <pt x="395" y="618" on="1"/>
        <pt x="394" y="617" on="0"/>
        <pt x="413" y="381" on="1"/>
        <pt x="432" y="134" on="0"/>
        <pt x="432" y="144" on="1"/>
        <pt x="693" y="594" on="1"/>
        <pt x="697" y="608" on="0"/>
        <pt x="690" y="615" on="1"/>
        <pt x="680" y="626" on="0"/>
        <pt x="654" y="627" on="1"/>
        <pt x="643" y="627" on="0"/>
        <pt x="640" y="631" on="1"/>
        <pt x="636" y="635" on="0"/>
        <pt x="646" y="679" on="0"/>
        <pt x="651" y="682" on="1"/>
        <pt x="654" y="683" on="0"/>
        <pt x="680" y="682" on="1"/>
        <pt x="797" y="678" on="0"/>
        <pt x="853" y="683" on="1"/>
        <pt x="861" y="683" on="0"/>
        <pt x="864" y="680" on="1"/>
        <pt x="870" y="676" on="0"/>
        <pt x="864" y="652" on="1"/>
        <pt x="858" y="633" on="0"/>
        <pt x="857" y="632" on="1"/>
        <pt x="854" y="627" on="0"/>
        <pt x="838" y="627" on="1"/>
        <pt x="796" y="624" on="0"/>
        <pt x="771" y="608" on="1"/>
        <pt x="758" y="599" on="0"/>
        <pt x="751" y="588" on="1"/>
        <pt x="750" y="587" on="0"/>
        <pt x="746" y="582" on="1"/>
        <pt x="753" y="597" on="0"/>
        <pt x="573" y="284" on="1"/>
        <pt x="399" y="-15" on="1"/>
        <pt x="392" y="-22" on="0"/>
        <pt x="366" y="-22" on="1"/>
        <pt x="344" y="-22" on="0"/>
        <pt x="341" y="-20" on="1"/>
        <pt x="337" y="-16" on="1"/>
        <pt x="335" y="-14" on="0"/>
        <pt x="311" y="302" on="1"/>
        <pt x="285" y="625" on="0"/>
        <pt x="285" y="620" on="1"/>
        <pt x="282" y="626" on="0"/>
        <pt x="238" y="627" on="1"/>
        <pt x="207" y="627" on="0"/>
        <pt x="204" y="634" on="1"/>
        <pt x="202" y="637" on="0"/>
        <pt x="207" y="657" on="1"/>
        <pt x="213" y="678" on="0"/>
      </contour>
    </TTGlyph>
    <TTGlyph name="W" xMin="201" yMin="-22" xMax="1125" yMax="683">
      <contour>
        <pt x="216" y="682" on="1"/>
        <pt x="218" y="683" on="0"/>
        <pt x="230" y="683" on="1"/>
        <pt x="292" y="679" on="0"/>
        <pt x="391" y="681" on="1"/>
        <pt x="461" y="683" on="0"/>
        <pt x="460" y="683" on="1"/>
        <pt x="470" y="683" on="1"/>
        <pt x="473" y="680" on="1"/>
        <pt x="477" y="676" on="0"/>
        <pt x="477" y="673" on="1"/>
        <pt x="468" y="633" on="1"/>
        <pt x="464" y="627" on="0"/>
        <pt x="440" y="627" on="1"/>
        <pt x="418" y="625" on="0"/>
        <pt x="410" y="625" on="1"/>
        <pt x="390" y="621" on="0"/>
        <pt x="387" y="618" on="1"/>
        <pt x="385" y="617" on="0"/>
        <pt x="394" y="392" on="1"/>
        <pt x="402" y="167" on="1"/>
        <pt x="505" y="358" on="1"/>
        <pt x="608" y="550" on="1"/>
        <pt x="606" y="585" on="1"/>
        <pt x="604" y="621" on="0"/>
        <pt x="604" y="622" on="1"/>
        <pt x="599" y="627" on="0"/>
        <pt x="553" y="627" on="1"/>
        <pt x="536" y="627" on="1"/>
        <pt x="533" y="630" on="1"/>
        <pt x="527" y="634" on="0"/>
        <pt x="533" y="658" on="1"/>
        <pt x="539" y="677" on="0"/>
        <pt x="540" y="678" on="1"/>
        <pt x="543" y="683" on="0"/>
        <pt x="565" y="682" on="1"/>
        <pt x="567" y="682" on="0"/>
        <pt x="572" y="682" on="1"/>
        <pt x="698" y="678" on="0"/>
        <pt x="786" y="683" on="1"/>
        <pt x="797" y="683" on="1"/>
        <pt x="800" y="680" on="1"/>
        <pt x="804" y="676" on="0"/>
        <pt x="804" y="673" on="1"/>
        <pt x="795" y="633" on="1"/>
        <pt x="791" y="627" on="0"/>
        <pt x="768" y="627" on="1"/>
        <pt x="727" y="625" on="0"/>
        <pt x="715" y="618" on="1"/>
        <pt x="712" y="617" on="1"/>
        <pt x="721" y="394" on="1"/>
        <pt x="729" y="169" on="1"/>
        <pt x="729" y="167" on="0"/>
        <pt x="752" y="210" on="1"/>
        <pt x="779" y="260" on="0"/>
        <pt x="843" y="378" on="1"/>
        <pt x="959" y="595" on="0"/>
        <pt x="958" y="593" on="1"/>
        <pt x="961" y="602" on="0"/>
        <pt x="957" y="608" on="1"/>
        <pt x="943" y="625" on="0"/>
        <pt x="902" y="627" on="1"/>
        <pt x="896" y="627" on="0"/>
        <pt x="893" y="630" on="1"/>
        <pt x="887" y="634" on="0"/>
        <pt x="893" y="656" on="1"/>
        <pt x="896" y="671" on="0"/>
        <pt x="902" y="683" on="0"/>
        <pt x="920" y="682" on="1"/>
        <pt x="924" y="682" on="0"/>
        <pt x="937" y="682" on="1"/>
        <pt x="1010" y="678" on="0"/>
        <pt x="1086" y="681" on="1"/>
        <pt x="1093" y="682" on="0"/>
        <pt x="1097" y="682" on="1"/>
        <pt x="1119" y="683" on="0"/>
        <pt x="1124" y="676" on="1"/>
        <pt x="1125" y="673" on="1"/>
        <pt x="1120" y="653" on="1"/>
        <pt x="1116" y="634" on="0"/>
        <pt x="1112" y="630" on="1"/>
        <pt x="1109" y="627" on="0"/>
        <pt x="1102" y="627" on="1"/>
        <pt x="1070" y="627" on="0"/>
        <pt x="1048" y="616" on="1"/>
        <pt x="1028" y="607" on="0"/>
        <pt x="1014" y="587" on="1"/>
        <pt x="1007" y="572" on="0"/>
        <pt x="851" y="284" on="1"/>
        <pt x="690" y="-15" on="0"/>
        <pt x="689" y="-15" on="1"/>
        <pt x="683" y="-22" on="0"/>
        <pt x="658" y="-22" on="1"/>
        <pt x="632" y="-22" on="0"/>
        <pt x="630" y="-16" on="1"/>
        <pt x="629" y="-15" on="0"/>
        <pt x="620" y="213" on="1"/>
        <pt x="613" y="439" on="0"/>
        <pt x="611" y="442" on="1"/>
        <pt x="611" y="444" on="0"/>
        <pt x="608" y="439" on="1"/>
        <pt x="601" y="428" on="0"/>
        <pt x="488" y="217" on="1"/>
        <pt x="363" y="-15" on="1"/>
        <pt x="356" y="-22" on="0"/>
        <pt x="331" y="-22" on="1"/>
        <pt x="309" y="-22" on="0"/>
        <pt x="306" y="-20" on="1"/>
        <pt x="304" y="-19" on="0"/>
        <pt x="302" y="-15" on="1"/>
        <pt x="289" y="303" on="1"/>
        <pt x="278" y="619" on="0"/>
        <pt x="277" y="621" on="1"/>
        <pt x="275" y="623" on="0"/>
        <pt x="272" y="624" on="1"/>
        <pt x="263" y="627" on="0"/>
        <pt x="226" y="627" on="1"/>
        <pt x="209" y="627" on="1"/>
        <pt x="205" y="630" on="1"/>
        <pt x="201" y="635" on="0"/>
        <pt x="206" y="657" on="1"/>
        <pt x="212" y="679" on="0"/>
      </contour>
    </TTGlyph>
    <TTGlyph name="X" xMin="50" yMin="0" xMax="826" yMax="683">
      <contour>
        <pt x="232" y="681" on="1"/>
        <pt x="235" y="683" on="0"/>
        <pt x="246" y="683" on="1"/>
        <pt x="304" y="679" on="0"/>
        <pt x="417" y="681" on="1"/>
        <pt x="489" y="683" on="0"/>
        <pt x="488" y="683" on="1"/>
        <pt x="498" y="683" on="1"/>
        <pt x="501" y="680" on="1"/>
        <pt x="505" y="676" on="0"/>
        <pt x="505" y="673" on="1"/>
        <pt x="495" y="634" on="1"/>
        <pt x="495" y="633" on="1"/>
        <pt x="493" y="627" on="0"/>
        <pt x="477" y="627" on="1"/>
        <pt x="458" y="624" on="1"/>
        <pt x="431" y="616" on="1"/>
        <pt x="488" y="442" on="1"/>
        <pt x="608" y="585" on="1"/>
        <pt x="615" y="593" on="0"/>
        <pt x="615" y="594" on="1"/>
        <pt x="619" y="602" on="0"/>
        <pt x="619" y="607" on="1"/>
        <pt x="616" y="621" on="0"/>
        <pt x="591" y="626" on="1"/>
        <pt x="586" y="627" on="0"/>
        <pt x="581" y="627" on="1"/>
        <pt x="575" y="627" on="0"/>
        <pt x="572" y="630" on="1"/>
        <pt x="568" y="635" on="0"/>
        <pt x="578" y="679" on="0"/>
        <pt x="583" y="682" on="1"/>
        <pt x="586" y="683" on="0"/>
        <pt x="617" y="682" on="1"/>
        <pt x="690" y="678" on="0"/>
        <pt x="782" y="681" on="1"/>
        <pt x="790" y="682" on="0"/>
        <pt x="795" y="682" on="1"/>
        <pt x="821" y="683" on="0"/>
        <pt x="825" y="676" on="1"/>
        <pt x="826" y="673" on="0"/>
        <pt x="822" y="653" on="1"/>
        <pt x="816" y="633" on="0"/>
        <pt x="814" y="630" on="1"/>
        <pt x="811" y="627" on="1"/>
        <pt x="793" y="627" on="1"/>
        <pt x="726" y="624" on="0"/>
        <pt x="690" y="598" on="1"/>
        <pt x="673" y="585" on="0"/>
        <pt x="587" y="481" on="1"/>
        <pt x="506" y="385" on="0"/>
        <pt x="508" y="387" on="1"/>
        <pt x="507" y="385" on="0"/>
        <pt x="559" y="225" on="1"/>
        <pt x="611" y="69" on="0"/>
        <pt x="614" y="63" on="1"/>
        <pt x="617" y="60" on="0"/>
        <pt x="623" y="60" on="1"/>
        <pt x="637" y="56" on="0"/>
        <pt x="680" y="56" on="1"/>
        <pt x="700" y="56" on="1"/>
        <pt x="704" y="53" on="1"/>
        <pt x="707" y="48" on="0"/>
        <pt x="707" y="45" on="1"/>
        <pt x="707" y="29" on="0"/>
        <pt x="697" y="6" on="1"/>
        <pt x="694" y="0" on="0"/>
        <pt x="678" y="1" on="1"/>
        <pt x="674" y="1" on="0"/>
        <pt x="661" y="1" on="1"/>
        <pt x="593" y="5" on="0"/>
        <pt x="478" y="2" on="1"/>
        <pt x="468" y="1" on="0"/>
        <pt x="461" y="1" on="1"/>
        <pt x="427" y="0" on="0"/>
        <pt x="422" y="7" on="1"/>
        <pt x="421" y="10" on="1"/>
        <pt x="426" y="30" on="1"/>
        <pt x="431" y="53" on="0"/>
        <pt x="437" y="55" on="1"/>
        <pt x="439" y="55" on="0"/>
        <pt x="448" y="56" on="1"/>
        <pt x="469" y="58" on="0"/>
        <pt x="488" y="64" on="1"/>
        <pt x="496" y="67" on="1"/>
        <pt x="460" y="176" on="1"/>
        <pt x="424" y="286" on="1"/>
        <pt x="343" y="189" on="1"/>
        <pt x="261" y="91" on="0"/>
        <pt x="260" y="88" on="1"/>
        <pt x="250" y="71" on="0"/>
        <pt x="272" y="60" on="1"/>
        <pt x="280" y="57" on="0"/>
        <pt x="291" y="56" on="1"/>
        <pt x="303" y="56" on="0"/>
        <pt x="306" y="49" on="1"/>
        <pt x="307" y="44" on="0"/>
        <pt x="302" y="26" on="1"/>
        <pt x="298" y="7" on="0"/>
        <pt x="294" y="3" on="1"/>
        <pt x="291" y="0" on="1"/>
        <pt x="279" y="0" on="1"/>
        <pt x="196" y="4" on="0"/>
        <pt x="117" y="2" on="1"/>
        <pt x="66" y="0" on="0"/>
        <pt x="65" y="0" on="1"/>
        <pt x="57" y="0" on="1"/>
        <pt x="54" y="3" on="1"/>
        <pt x="50" y="7" on="0"/>
        <pt x="50" y="10" on="1"/>
        <pt x="59" y="50" on="1"/>
        <pt x="63" y="56" on="0"/>
        <pt x="83" y="56" on="1"/>
        <pt x="137" y="59" on="0"/>
        <pt x="171" y="76" on="1"/>
        <pt x="186" y="84" on="0"/>
        <pt x="200" y="98" on="1"/>
        <pt x="219" y="117" on="0"/>
        <pt x="306" y="223" on="1"/>
        <pt x="404" y="339" on="0"/>
        <pt x="404" y="341" on="1"/>
        <pt x="314" y="618" on="1"/>
        <pt x="310" y="626" on="0"/>
        <pt x="257" y="627" on="1"/>
        <pt x="224" y="627" on="0"/>
        <pt x="221" y="633" on="1"/>
        <pt x="219" y="636" on="0"/>
        <pt x="223" y="656" on="1"/>
        <pt x="228" y="677" on="0"/>
      </contour>
    </TTGlyph>
    <TTGlyph name="Y" xMin="195" yMin="0" xMax="877" yMax="683">
      <contour>
        <pt x="208" y="680" on="1"/>
        <pt x="211" y="683" on="1"/>
        <pt x="223" y="683" on="1"/>
        <pt x="283" y="679" on="0"/>
        <pt x="395" y="681" on="1"/>
        <pt x="467" y="683" on="0"/>
        <pt x="466" y="683" on="1"/>
        <pt x="476" y="683" on="1"/>
        <pt x="479" y="680" on="1"/>
        <pt x="483" y="676" on="0"/>
        <pt x="483" y="673" on="1"/>
        <pt x="473" y="634" on="1"/>
        <pt x="473" y="633" on="1"/>
        <pt x="471" y="627" on="0"/>
        <pt x="448" y="627" on="1"/>
        <pt x="424" y="625" on="1"/>
        <pt x="413" y="623" on="0"/>
        <pt x="407" y="620" on="1"/>
        <pt x="406" y="619" on="0"/>
        <pt x="445" y="483" on="1"/>
        <pt x="485" y="346" on="1"/>
        <pt x="679" y="592" on="1"/>
        <pt x="693" y="615" on="0"/>
        <pt x="678" y="622" on="1"/>
        <pt x="670" y="627" on="0"/>
        <pt x="654" y="627" on="1"/>
        <pt x="648" y="627" on="0"/>
        <pt x="645" y="630" on="1"/>
        <pt x="639" y="634" on="0"/>
        <pt x="645" y="658" on="1"/>
        <pt x="651" y="677" on="0"/>
        <pt x="652" y="678" on="1"/>
        <pt x="655" y="683" on="0"/>
        <pt x="677" y="682" on="1"/>
        <pt x="679" y="682" on="0"/>
        <pt x="684" y="682" on="1"/>
        <pt x="799" y="678" on="0"/>
        <pt x="860" y="683" on="1"/>
        <pt x="868" y="683" on="0"/>
        <pt x="871" y="681" on="1"/>
        <pt x="877" y="675" on="0"/>
        <pt x="871" y="654" on="1"/>
        <pt x="868" y="639" on="0"/>
        <pt x="862" y="627" on="0"/>
        <pt x="850" y="627" on="1"/>
        <pt x="819" y="627" on="0"/>
        <pt x="789" y="617" on="1"/>
        <pt x="760" y="607" on="0"/>
        <pt x="738" y="584" on="1"/>
        <pt x="729" y="575" on="0"/>
        <pt x="610" y="423" on="1"/>
        <pt x="492" y="273" on="1"/>
        <pt x="466" y="171" on="1"/>
        <pt x="440" y="67" on="0"/>
        <pt x="440" y="66" on="1"/>
        <pt x="439" y="60" on="0"/>
        <pt x="445" y="59" on="1"/>
        <pt x="454" y="56" on="0"/>
        <pt x="501" y="56" on="1"/>
        <pt x="524" y="56" on="0"/>
        <pt x="528" y="49" on="1"/>
        <pt x="529" y="45" on="0"/>
        <pt x="525" y="26" on="1"/>
        <pt x="520" y="7" on="0"/>
        <pt x="516" y="3" on="1"/>
        <pt x="513" y="0" on="1"/>
        <pt x="500" y="0" on="1"/>
        <pt x="412" y="4" on="0"/>
        <pt x="315" y="2" on="1"/>
        <pt x="245" y="0" on="0"/>
        <pt x="246" y="0" on="1"/>
        <pt x="236" y="0" on="1"/>
        <pt x="233" y="3" on="1"/>
        <pt x="229" y="7" on="0"/>
        <pt x="229" y="11" on="1"/>
        <pt x="229" y="27" on="0"/>
        <pt x="239" y="50" on="1"/>
        <pt x="251" y="56" on="0"/>
        <pt x="277" y="56" on="1"/>
        <pt x="320" y="57" on="0"/>
        <pt x="328" y="60" on="1"/>
        <pt x="335" y="63" on="0"/>
        <pt x="338" y="72" on="1"/>
        <pt x="364" y="176" on="1"/>
        <pt x="388" y="274" on="1"/>
        <pt x="339" y="446" on="1"/>
        <pt x="289" y="617" on="0"/>
        <pt x="284" y="622" on="1"/>
        <pt x="284" y="623" on="0"/>
        <pt x="278" y="624" on="1"/>
        <pt x="266" y="627" on="0"/>
        <pt x="223" y="627" on="1"/>
        <pt x="200" y="627" on="0"/>
        <pt x="197" y="634" on="1"/>
        <pt x="195" y="637" on="0"/>
        <pt x="200" y="657" on="1"/>
        <pt x="206" y="678" on="0"/>
      </contour>
    </TTGlyph>
    <TTGlyph name="Z" xMin="79" yMin="0" xMax="706" yMax="683">
      <contour>
        <pt x="274" y="681" on="1"/>
        <pt x="276" y="683" on="0"/>
        <pt x="488" y="683" on="1"/>
        <pt x="699" y="683" on="1"/>
        <pt x="701" y="681" on="1"/>
        <pt x="706" y="677" on="0"/>
        <pt x="700" y="657" on="1"/>
        <pt x="696" y="643" on="1"/>
        <pt x="458" y="353" on="1"/>
        <pt x="223" y="66" on="0"/>
        <pt x="218" y="61" on="1"/>
        <pt x="217" y="60" on="0"/>
        <pt x="220" y="60" on="1"/>
        <pt x="225" y="59" on="0"/>
        <pt x="284" y="59" on="1"/>
        <pt x="356" y="60" on="0"/>
        <pt x="362" y="61" on="1"/>
        <pt x="448" y="74" on="0"/>
        <pt x="490" y="128" on="1"/>
        <pt x="518" y="165" on="0"/>
        <pt x="548" y="258" on="1"/>
        <pt x="555" y="285" on="0"/>
        <pt x="557" y="287" on="1"/>
        <pt x="560" y="292" on="0"/>
        <pt x="584" y="292" on="1"/>
        <pt x="604" y="292" on="1"/>
        <pt x="608" y="289" on="1"/>
        <pt x="611" y="285" on="0"/>
        <pt x="611" y="282" on="1"/>
        <pt x="528" y="7" on="1"/>
        <pt x="527" y="5" on="0"/>
        <pt x="524" y="2" on="1"/>
        <pt x="521" y="0" on="0"/>
        <pt x="85" y="0" on="0"/>
        <pt x="83" y="2" on="1"/>
        <pt x="79" y="5" on="0"/>
        <pt x="83" y="24" on="1"/>
        <pt x="88" y="42" on="1"/>
        <pt x="85" y="39" on="0"/>
        <pt x="328" y="334" on="1"/>
        <pt x="566" y="625" on="0"/>
        <pt x="568" y="627" on="0"/>
        <pt x="561" y="627" on="1"/>
        <pt x="553" y="627" on="0"/>
        <pt x="505" y="627" on="1"/>
        <pt x="430" y="626" on="0"/>
        <pt x="405" y="620" on="1"/>
        <pt x="361" y="608" on="0"/>
        <pt x="332" y="583" on="1"/>
        <pt x="288" y="547" on="0"/>
        <pt x="262" y="459" on="1"/>
        <pt x="256" y="439" on="0"/>
        <pt x="253" y="436" on="1"/>
        <pt x="250" y="433" on="1"/>
        <pt x="229" y="433" on="1"/>
        <pt x="208" y="433" on="1"/>
        <pt x="205" y="436" on="1"/>
        <pt x="204" y="437" on="0"/>
        <pt x="201" y="442" on="1"/>
        <pt x="201" y="447" on="0"/>
        <pt x="234" y="560" on="1"/>
        <pt x="269" y="676" on="0"/>
        <pt x="270" y="677" on="1"/>
        <pt x="270" y="681" on="0"/>
      </contour>
    </TTGlyph>
    <TTGlyph name="a" xMin="85" yMin="-26" xMax="548" yMax="442">
      <contour>
        <pt x="320" y="441" on="1"/>
        <pt x="340" y="442" on="1"/>
        <pt x="341" y="442" on="1"/>
        <pt x="363" y="441" on="0"/>
        <pt x="380" y="432" on="1"/>
        <pt x="397" y="424" on="0"/>
        <pt x="410" y="410" on="1"/>
        <pt x="418" y="402" on="1"/>
        <pt x="424" y="407" on="1"/>
        <pt x="448" y="430" on="0"/>
        <pt x="476" y="419" on="1"/>
        <pt x="490" y="414" on="0"/>
        <pt x="495" y="402" on="1"/>
        <pt x="499" y="391" on="0"/>
        <pt x="493" y="363" on="1"/>
        <pt x="488" y="341" on="0"/>
        <pt x="462" y="239" on="1"/>
        <pt x="426" y="93" on="0"/>
        <pt x="425" y="87" on="1"/>
        <pt x="421" y="59" on="0"/>
        <pt x="424" y="48" on="1"/>
        <pt x="426" y="43" on="0"/>
        <pt x="430" y="40" on="1"/>
        <pt x="433" y="37" on="0"/>
        <pt x="439" y="37" on="1"/>
        <pt x="446" y="37" on="0"/>
        <pt x="450" y="39" on="1"/>
        <pt x="469" y="53" on="0"/>
        <pt x="489" y="130" on="1"/>
        <pt x="494" y="149" on="0"/>
        <pt x="497" y="151" on="1"/>
        <pt x="499" y="153" on="0"/>
        <pt x="543" y="153" on="0"/>
        <pt x="546" y="151" on="1"/>
        <pt x="548" y="149" on="0"/>
        <pt x="548" y="137" on="0"/>
        <pt x="543" y="119" on="1"/>
        <pt x="506" y="-7" on="0"/>
        <pt x="438" y="-11" on="1"/>
        <pt x="387" y="-14" on="0"/>
        <pt x="356" y="24" on="1"/>
        <pt x="351" y="30" on="0"/>
        <pt x="347" y="37" on="1"/>
        <pt x="345" y="43" on="0"/>
        <pt x="344" y="43" on="1"/>
        <pt x="337" y="37" on="1"/>
        <pt x="302" y="6" on="0"/>
        <pt x="268" y="-4" on="1"/>
        <pt x="203" y="-26" on="0"/>
        <pt x="151" y="16" on="1"/>
        <pt x="145" y="21" on="0"/>
        <pt x="140" y="27" on="1"/>
        <pt x="125" y="42" on="0"/>
        <pt x="115" y="63" on="1"/>
        <pt x="85" y="124" on="0"/>
        <pt x="103" y="206" on="1"/>
        <pt x="126" y="315" on="0"/>
        <pt x="207" y="386" on="1"/>
        <pt x="261" y="433" on="0"/>
      </contour>
      <contour>
        <pt x="341" y="394" on="1"/>
        <pt x="300" y="401" on="0"/>
        <pt x="262" y="355" on="1"/>
        <pt x="252" y="342" on="0"/>
        <pt x="244" y="327" on="1"/>
        <pt x="229" y="298" on="0"/>
        <pt x="208" y="213" on="1"/>
        <pt x="195" y="165" on="0"/>
        <pt x="189" y="129" on="1"/>
        <pt x="185" y="95" on="0"/>
        <pt x="189" y="77" on="1"/>
        <pt x="199" y="42" on="0"/>
        <pt x="228" y="37" on="1"/>
        <pt x="245" y="34" on="0"/>
        <pt x="269" y="44" on="1"/>
        <pt x="305" y="64" on="0"/>
        <pt x="337" y="111" on="1"/>
        <pt x="342" y="118" on="1"/>
        <pt x="367" y="217" on="1"/>
        <pt x="392" y="317" on="1"/>
        <pt x="390" y="325" on="1"/>
        <pt x="381" y="382" on="0"/>
        <pt x="345" y="393" on="1"/>
        <pt x="343" y="394" on="0"/>
      </contour>
    </TTGlyph>
    <TTGlyph name="ampersand" xMin="125" yMin="-22" xMax="808" yMax="721">
      <contour>
        <pt x="406" y="715" on="1"/>
        <pt x="449" y="721" on="0"/>
        <pt x="485" y="698" on="1"/>
        <pt x="504" y="684" on="0"/>
        <pt x="512" y="668" on="1"/>
        <pt x="539" y="624" on="0"/>
        <pt x="525" y="566" on="1"/>
        <pt x="521" y="544" on="0"/>
        <pt x="507" y="530" on="1"/>
        <pt x="489" y="510" on="0"/>
        <pt x="461" y="510" on="1"/>
        <pt x="448" y="510" on="0"/>
        <pt x="437" y="516" on="1"/>
        <pt x="406" y="532" on="0"/>
        <pt x="422" y="572" on="1"/>
        <pt x="423" y="576" on="0"/>
        <pt x="425" y="580" on="1"/>
        <pt x="438" y="606" on="0"/>
        <pt x="466" y="613" on="1"/>
        <pt x="470" y="614" on="0"/>
        <pt x="472" y="616" on="1"/>
        <pt x="474" y="620" on="0"/>
        <pt x="465" y="640" on="1"/>
        <pt x="457" y="656" on="0"/>
        <pt x="442" y="663" on="1"/>
        <pt x="427" y="672" on="0"/>
        <pt x="405" y="668" on="1"/>
        <pt x="365" y="657" on="0"/>
        <pt x="339" y="607" on="1"/>
        <pt x="337" y="604" on="0"/>
        <pt x="336" y="601" on="1"/>
        <pt x="325" y="577" on="0"/>
        <pt x="305" y="505" on="1"/>
        <pt x="293" y="452" on="1"/>
        <pt x="303" y="457" on="1"/>
        <pt x="351" y="480" on="0"/>
        <pt x="384" y="473" on="1"/>
        <pt x="416" y="465" on="0"/>
        <pt x="427" y="430" on="1"/>
        <pt x="433" y="411" on="0"/>
        <pt x="429" y="387" on="1"/>
        <pt x="421" y="345" on="0"/>
        <pt x="392" y="316" on="1"/>
        <pt x="370" y="293" on="0"/>
        <pt x="345" y="287" on="1"/>
        <pt x="309" y="277" on="0"/>
        <pt x="266" y="304" on="1"/>
        <pt x="260" y="308" on="1"/>
        <pt x="257" y="305" on="0"/>
        <pt x="248" y="268" on="1"/>
        <pt x="226" y="186" on="0"/>
        <pt x="227" y="149" on="1"/>
        <pt x="230" y="97" on="0"/>
        <pt x="262" y="66" on="1"/>
        <pt x="305" y="25" on="0"/>
        <pt x="390" y="25" on="1"/>
        <pt x="602" y="25" on="0"/>
        <pt x="661" y="218" on="1"/>
        <pt x="664" y="228" on="0"/>
        <pt x="667" y="239" on="1"/>
        <pt x="678" y="277" on="0"/>
        <pt x="679" y="314" on="1"/>
        <pt x="680" y="378" on="0"/>
        <pt x="652" y="422" on="1"/>
        <pt x="646" y="431" on="1"/>
        <pt x="629" y="420" on="1"/>
        <pt x="595" y="397" on="0"/>
        <pt x="578" y="380" on="1"/>
        <pt x="551" y="353" on="0"/>
        <pt x="548" y="329" on="1"/>
        <pt x="547" y="320" on="0"/>
        <pt x="548" y="320" on="1"/>
        <pt x="549" y="319" on="0"/>
        <pt x="556" y="326" on="1"/>
        <pt x="570" y="340" on="0"/>
        <pt x="587" y="344" on="1"/>
        <pt x="623" y="352" on="0"/>
        <pt x="639" y="323" on="1"/>
        <pt x="644" y="308" on="0"/>
        <pt x="641" y="291" on="1"/>
        <pt x="633" y="264" on="0"/>
        <pt x="609" y="250" on="1"/>
        <pt x="597" y="243" on="0"/>
        <pt x="581" y="242" on="1"/>
        <pt x="539" y="240" on="0"/>
        <pt x="511" y="268" on="1"/>
        <pt x="504" y="275" on="0"/>
        <pt x="499" y="285" on="1"/>
        <pt x="491" y="301" on="0"/>
        <pt x="491" y="321" on="1"/>
        <pt x="492" y="341" on="0"/>
        <pt x="504" y="366" on="1"/>
        <pt x="516" y="389" on="0"/>
        <pt x="538" y="412" on="1"/>
        <pt x="557" y="431" on="0"/>
        <pt x="606" y="466" on="1"/>
        <pt x="642" y="491" on="1"/>
        <pt x="678" y="518" on="0"/>
        <pt x="704" y="557" on="1"/>
        <pt x="725" y="592" on="1"/>
        <pt x="724" y="593" on="1"/>
        <pt x="717" y="593" on="0"/>
        <pt x="705" y="604" on="1"/>
        <pt x="686" y="626" on="0"/>
        <pt x="703" y="659" on="1"/>
        <pt x="719" y="691" on="0"/>
        <pt x="754" y="694" on="1"/>
        <pt x="770" y="694" on="0"/>
        <pt x="781" y="688" on="1"/>
        <pt x="808" y="675" on="0"/>
        <pt x="799" y="638" on="1"/>
        <pt x="782" y="577" on="0"/>
        <pt x="747" y="526" on="1"/>
        <pt x="730" y="504" on="0"/>
        <pt x="710" y="483" on="1"/>
        <pt x="695" y="467" on="1"/>
        <pt x="698" y="463" on="1"/>
        <pt x="712" y="445" on="0"/>
        <pt x="724" y="414" on="1"/>
        <pt x="732" y="390" on="0"/>
        <pt x="735" y="369" on="1"/>
        <pt x="739" y="343" on="0"/>
        <pt x="735" y="305" on="1"/>
        <pt x="735" y="302" on="0"/>
        <pt x="735" y="300" on="1"/>
        <pt x="720" y="159" on="0"/>
        <pt x="633" y="74" on="1"/>
        <pt x="539" y="-22" on="0"/>
        <pt x="381" y="-22" on="1"/>
        <pt x="274" y="-22" on="0"/>
        <pt x="203" y="31" on="1"/>
        <pt x="180" y="48" on="0"/>
        <pt x="165" y="69" on="1"/>
        <pt x="135" y="108" on="0"/>
        <pt x="129" y="157" on="1"/>
        <pt x="125" y="188" on="0"/>
        <pt x="131" y="218" on="1"/>
        <pt x="150" y="306" on="0"/>
        <pt x="205" y="375" on="1"/>
        <pt x="213" y="385" on="1"/>
        <pt x="210" y="396" on="1"/>
        <pt x="204" y="424" on="0"/>
        <pt x="208" y="460" on="1"/>
        <pt x="218" y="548" on="0"/>
        <pt x="269" y="620" on="1"/>
        <pt x="331" y="703" on="0"/>
      </contour>
      <contour>
        <pt x="375" y="424" on="1"/>
        <pt x="374" y="425" on="0"/>
        <pt x="365" y="427" on="1"/>
        <pt x="348" y="427" on="0"/>
        <pt x="328" y="414" on="1"/>
        <pt x="309" y="403" on="0"/>
        <pt x="294" y="381" on="1"/>
        <pt x="289" y="374" on="1"/>
        <pt x="290" y="369" on="1"/>
        <pt x="294" y="360" on="1"/>
        <pt x="306" y="335" on="0"/>
        <pt x="332" y="332" on="1"/>
        <pt x="353" y="331" on="0"/>
        <pt x="360" y="347" on="1"/>
        <pt x="373" y="378" on="0"/>
        <pt x="377" y="415" on="1"/>
        <pt x="377" y="422" on="0"/>
      </contour>
    </TTGlyph>
    <TTGlyph name="asciicircum" xMin="257" yMin="518" xMax="532" yMax="697">
      <contour>
        <pt x="422" y="693" on="1"/>
        <pt x="427" y="697" on="0"/>
        <pt x="433" y="691" on="1"/>
        <pt x="531" y="560" on="1"/>
        <pt x="532" y="557" on="0"/>
        <pt x="531" y="551" on="1"/>
        <pt x="498" y="523" on="1"/>
        <pt x="497" y="523" on="1"/>
        <pt x="492" y="518" on="0"/>
        <pt x="485" y="523" on="1"/>
        <pt x="481" y="525" on="0"/>
        <pt x="447" y="570" on="1"/>
        <pt x="411" y="614" on="0"/>
        <pt x="410" y="614" on="1"/>
        <pt x="410" y="615" on="0"/>
        <pt x="356" y="572" on="1"/>
        <pt x="302" y="531" on="0"/>
        <pt x="297" y="526" on="1"/>
        <pt x="286" y="519" on="0"/>
        <pt x="280" y="522" on="1"/>
        <pt x="258" y="552" on="1"/>
        <pt x="257" y="553" on="0"/>
        <pt x="257" y="554" on="1"/>
        <pt x="257" y="558" on="0"/>
        <pt x="258" y="560" on="1"/>
        <pt x="260" y="563" on="0"/>
        <pt x="339" y="627" on="1"/>
        <pt x="416" y="690" on="0"/>
      </contour>
    </TTGlyph>
    <TTGlyph name="asciitilde" xMin="244" yMin="547" xMax="572" yMax="670">
      <contour>
        <pt x="353" y="666" on="1"/>
        <pt x="367" y="669" on="0"/>
        <pt x="380" y="666" on="1"/>
        <pt x="395" y="663" on="0"/>
        <pt x="422" y="644" on="1"/>
        <pt x="435" y="632" on="0"/>
        <pt x="446" y="628" on="1"/>
        <pt x="452" y="624" on="0"/>
        <pt x="463" y="623" on="1"/>
        <pt x="488" y="622" on="0"/>
        <pt x="525" y="656" on="1"/>
        <pt x="531" y="661" on="0"/>
        <pt x="537" y="667" on="1"/>
        <pt x="543" y="670" on="0"/>
        <pt x="550" y="665" on="1"/>
        <pt x="572" y="647" on="0"/>
        <pt x="569" y="638" on="1"/>
        <pt x="562" y="627" on="0"/>
        <pt x="515" y="583" on="1"/>
        <pt x="508" y="577" on="0"/>
        <pt x="505" y="575" on="1"/>
        <pt x="480" y="557" on="0"/>
        <pt x="462" y="553" on="1"/>
        <pt x="431" y="547" on="0"/>
        <pt x="395" y="576" on="1"/>
        <pt x="379" y="588" on="0"/>
        <pt x="370" y="592" on="1"/>
        <pt x="364" y="596" on="0"/>
        <pt x="353" y="597" on="1"/>
        <pt x="328" y="598" on="0"/>
        <pt x="291" y="564" on="1"/>
        <pt x="285" y="559" on="0"/>
        <pt x="279" y="553" on="1"/>
        <pt x="273" y="550" on="0"/>
        <pt x="266" y="555" on="1"/>
        <pt x="244" y="573" on="0"/>
        <pt x="247" y="582" on="1"/>
        <pt x="254" y="593" on="0"/>
        <pt x="301" y="637" on="1"/>
        <pt x="308" y="643" on="0"/>
        <pt x="311" y="645" on="1"/>
        <pt x="337" y="663" on="0"/>
      </contour>
    </TTGlyph>
    <TTGlyph name="asterisk" xMin="191" yMin="314" xMax="590" yMax="751">
      <contour>
        <pt x="432" y="749" on="1"/>
        <pt x="449" y="751" on="0"/>
        <pt x="457" y="747" on="1"/>
        <pt x="471" y="741" on="0"/>
        <pt x="473" y="725" on="1"/>
        <pt x="473" y="718" on="0"/>
        <pt x="451" y="652" on="1"/>
        <pt x="428" y="587" on="0"/>
        <pt x="428" y="584" on="1"/>
        <pt x="483" y="620" on="1"/>
        <pt x="542" y="660" on="0"/>
        <pt x="551" y="660" on="1"/>
        <pt x="553" y="660" on="0"/>
        <pt x="556" y="660" on="1"/>
        <pt x="577" y="658" on="0"/>
        <pt x="583" y="639" on="1"/>
        <pt x="590" y="614" on="0"/>
        <pt x="566" y="596" on="1"/>
        <pt x="554" y="588" on="0"/>
        <pt x="501" y="564" on="1"/>
        <pt x="440" y="537" on="0"/>
        <pt x="438" y="535" on="1"/>
        <pt x="436" y="535" on="0"/>
        <pt x="485" y="505" on="1"/>
        <pt x="536" y="475" on="0"/>
        <pt x="539" y="469" on="1"/>
        <pt x="539" y="468" on="0"/>
        <pt x="540" y="465" on="1"/>
        <pt x="546" y="443" on="0"/>
        <pt x="522" y="422" on="1"/>
        <pt x="517" y="417" on="0"/>
        <pt x="510" y="414" on="1"/>
        <pt x="502" y="410" on="0"/>
        <pt x="482" y="410" on="0"/>
        <pt x="479" y="411" on="1"/>
        <pt x="475" y="413" on="0"/>
        <pt x="439" y="449" on="1"/>
        <pt x="403" y="485" on="1"/>
        <pt x="392" y="418" on="1"/>
        <pt x="382" y="353" on="0"/>
        <pt x="378" y="345" on="1"/>
        <pt x="368" y="326" on="0"/>
        <pt x="320" y="314" on="0"/>
        <pt x="309" y="333" on="1"/>
        <pt x="304" y="341" on="0"/>
        <pt x="306" y="350" on="1"/>
        <pt x="306" y="348" on="0"/>
        <pt x="328" y="420" on="1"/>
        <pt x="350" y="484" on="1"/>
        <pt x="350" y="485" on="0"/>
        <pt x="295" y="448" on="1"/>
        <pt x="240" y="413" on="0"/>
        <pt x="235" y="411" on="1"/>
        <pt x="209" y="403" on="0"/>
        <pt x="197" y="427" on="1"/>
        <pt x="191" y="438" on="0"/>
        <pt x="197" y="453" on="1"/>
        <pt x="202" y="465" on="0"/>
        <pt x="212" y="473" on="1"/>
        <pt x="213" y="474" on="0"/>
        <pt x="279" y="506" on="1"/>
        <pt x="342" y="534" on="1"/>
        <pt x="293" y="564" on="1"/>
        <pt x="243" y="594" on="0"/>
        <pt x="240" y="600" on="1"/>
        <pt x="239" y="601" on="0"/>
        <pt x="238" y="606" on="1"/>
        <pt x="233" y="629" on="0"/>
        <pt x="258" y="649" on="1"/>
        <pt x="266" y="655" on="0"/>
        <pt x="275" y="658" on="1"/>
        <pt x="286" y="662" on="0"/>
        <pt x="299" y="658" on="1"/>
        <pt x="303" y="656" on="0"/>
        <pt x="339" y="620" on="1"/>
        <pt x="375" y="583" on="0"/>
        <pt x="375" y="586" on="1"/>
        <pt x="377" y="588" on="0"/>
        <pt x="386" y="651" on="1"/>
        <pt x="397" y="713" on="0"/>
        <pt x="397" y="718" on="1"/>
        <pt x="403" y="738" on="0"/>
        <pt x="427" y="747" on="1"/>
        <pt x="429" y="748" on="0"/>
      </contour>
    </TTGlyph>
    <TTGlyph name="at" xMin="149" yMin="-14" xMax="792" yMax="707">
      <contour>
        <pt x="529" y="704" on="1"/>
        <pt x="569" y="707" on="0"/>
        <pt x="593" y="702" on="1"/>
        <pt x="654" y="693" on="0"/>
        <pt x="702" y="655" on="1"/>
        <pt x="724" y="635" on="0"/>
        <pt x="736" y="620" on="1"/>
        <pt x="781" y="560" on="0"/>
        <pt x="788" y="479" on="1"/>
        <pt x="792" y="449" on="0"/>
        <pt x="787" y="407" on="1"/>
        <pt x="777" y="312" on="0"/>
        <pt x="734" y="222" on="1"/>
        <pt x="726" y="207" on="0"/>
        <pt x="719" y="195" on="1"/>
        <pt x="673" y="120" on="0"/>
        <pt x="606" y="123" on="1"/>
        <pt x="587" y="124" on="0"/>
        <pt x="568" y="133" on="1"/>
        <pt x="555" y="140" on="0"/>
        <pt x="549" y="147" on="1"/>
        <pt x="541" y="155" on="0"/>
        <pt x="537" y="164" on="1"/>
        <pt x="533" y="172" on="1"/>
        <pt x="526" y="166" on="1"/>
        <pt x="488" y="136" on="0"/>
        <pt x="446" y="126" on="1"/>
        <pt x="436" y="124" on="0"/>
        <pt x="417" y="124" on="1"/>
        <pt x="386" y="123" on="0"/>
        <pt x="357" y="137" on="1"/>
        <pt x="337" y="147" on="0"/>
        <pt x="322" y="162" on="1"/>
        <pt x="307" y="178" on="0"/>
        <pt x="298" y="198" on="1"/>
        <pt x="280" y="233" on="0"/>
        <pt x="279" y="278" on="1"/>
        <pt x="279" y="318" on="0"/>
        <pt x="289" y="355" on="1"/>
        <pt x="315" y="456" on="0"/>
        <pt x="395" y="519" on="1"/>
        <pt x="405" y="528" on="0"/>
        <pt x="416" y="535" on="1"/>
        <pt x="446" y="555" on="0"/>
        <pt x="469" y="561" on="1"/>
        <pt x="510" y="574" on="0"/>
        <pt x="538" y="570" on="1"/>
        <pt x="608" y="561" on="0"/>
        <pt x="635" y="486" on="1"/>
        <pt x="638" y="477" on="1"/>
        <pt x="657" y="477" on="1"/>
        <pt x="681" y="477" on="0"/>
        <pt x="683" y="471" on="1"/>
        <pt x="684" y="469" on="0"/>
        <pt x="651" y="335" on="1"/>
        <pt x="618" y="204" on="0"/>
        <pt x="617" y="191" on="1"/>
        <pt x="616" y="171" on="0"/>
        <pt x="626" y="170" on="1"/>
        <pt x="628" y="170" on="0"/>
        <pt x="630" y="170" on="1"/>
        <pt x="650" y="173" on="0"/>
        <pt x="664" y="193" on="1"/>
        <pt x="690" y="227" on="0"/>
        <pt x="717" y="332" on="1"/>
        <pt x="732" y="394" on="0"/>
        <pt x="732" y="442" on="1"/>
        <pt x="732" y="472" on="0"/>
        <pt x="731" y="481" on="1"/>
        <pt x="722" y="545" on="0"/>
        <pt x="688" y="590" on="1"/>
        <pt x="628" y="669" on="0"/>
        <pt x="524" y="656" on="1"/>
        <pt x="465" y="648" on="0"/>
        <pt x="405" y="610" on="1"/>
        <pt x="306" y="546" on="0"/>
        <pt x="251" y="432" on="1"/>
        <pt x="247" y="423" on="0"/>
        <pt x="243" y="414" on="1"/>
        <pt x="196" y="302" on="0"/>
        <pt x="211" y="206" on="1"/>
        <pt x="228" y="98" on="0"/>
        <pt x="307" y="56" on="1"/>
        <pt x="331" y="44" on="0"/>
        <pt x="358" y="39" on="1"/>
        <pt x="418" y="28" on="0"/>
        <pt x="528" y="52" on="1"/>
        <pt x="572" y="62" on="0"/>
        <pt x="629" y="83" on="1"/>
        <pt x="641" y="88" on="1"/>
        <pt x="672" y="88" on="1"/>
        <pt x="706" y="88" on="0"/>
        <pt x="709" y="82" on="1"/>
        <pt x="710" y="78" on="0"/>
        <pt x="708" y="72" on="0"/>
        <pt x="695" y="66" on="1"/>
        <pt x="590" y="12" on="0"/>
        <pt x="473" y="-4" on="1"/>
        <pt x="409" y="-14" on="0"/>
        <pt x="361" y="-10" on="1"/>
        <pt x="241" y="2" on="0"/>
        <pt x="186" y="105" on="1"/>
        <pt x="183" y="110" on="0"/>
        <pt x="181" y="115" on="1"/>
        <pt x="160" y="153" on="0"/>
        <pt x="153" y="207" on="1"/>
        <pt x="149" y="241" on="0"/>
        <pt x="153" y="286" on="1"/>
        <pt x="153" y="289" on="0"/>
        <pt x="153" y="291" on="1"/>
        <pt x="171" y="434" on="0"/>
        <pt x="268" y="552" on="1"/>
        <pt x="303" y="590" on="0"/>
        <pt x="324" y="608" on="1"/>
        <pt x="422" y="692" on="0"/>
      </contour>
      <contour>
        <pt x="537" y="521" on="1"/>
        <pt x="520" y="527" on="0"/>
        <pt x="504" y="523" on="1"/>
        <pt x="465" y="514" on="0"/>
        <pt x="426" y="458" on="1"/>
        <pt x="371" y="381" on="0"/>
        <pt x="366" y="285" on="1"/>
        <pt x="363" y="229" on="0"/>
        <pt x="382" y="196" on="1"/>
        <pt x="394" y="179" on="0"/>
        <pt x="404" y="175" on="1"/>
        <pt x="421" y="165" on="0"/>
        <pt x="451" y="175" on="1"/>
        <pt x="497" y="191" on="0"/>
        <pt x="537" y="250" on="1"/>
        <pt x="542" y="257" on="1"/>
        <pt x="565" y="349" on="1"/>
        <pt x="588" y="442" on="1"/>
        <pt x="587" y="449" on="1"/>
        <pt x="582" y="472" on="0"/>
        <pt x="577" y="482" on="1"/>
        <pt x="562" y="512" on="0"/>
      </contour>
    </TTGlyph>
    <TTGlyph name="b" xMin="101" yMin="-10" xMax="477" yMax="694">
      <contour>
        <pt x="228" y="688" on="1"/>
        <pt x="306" y="694" on="0"/>
        <pt x="305" y="694" on="1"/>
        <pt x="314" y="694" on="0"/>
        <pt x="317" y="687" on="1"/>
        <pt x="318" y="683" on="0"/>
        <pt x="284" y="547" on="1"/>
        <pt x="250" y="410" on="1"/>
        <pt x="260" y="416" on="1"/>
        <pt x="304" y="443" on="0"/>
        <pt x="344" y="442" on="1"/>
        <pt x="408" y="439" on="0"/>
        <pt x="442" y="387" on="1"/>
        <pt x="458" y="363" on="0"/>
        <pt x="467" y="330" on="1"/>
        <pt x="477" y="279" on="0"/>
        <pt x="465" y="226" on="1"/>
        <pt x="450" y="148" on="0"/>
        <pt x="400" y="86" on="1"/>
        <pt x="379" y="59" on="0"/>
        <pt x="356" y="41" on="1"/>
        <pt x="312" y="4" on="0"/>
        <pt x="259" y="-8" on="1"/>
        <pt x="250" y="-10" on="0"/>
        <pt x="212" y="-10" on="0"/>
        <pt x="202" y="-8" on="1"/>
        <pt x="181" y="-3" on="0"/>
        <pt x="161" y="11" on="1"/>
        <pt x="136" y="29" on="0"/>
        <pt x="123" y="56" on="1"/>
        <pt x="109" y="85" on="0"/>
        <pt x="104" y="119" on="1"/>
        <pt x="101" y="146" on="0"/>
        <pt x="105" y="184" on="1"/>
        <pt x="107" y="199" on="0"/>
        <pt x="159" y="407" on="1"/>
        <pt x="210" y="611" on="0"/>
        <pt x="206" y="619" on="1"/>
        <pt x="199" y="626" on="0"/>
        <pt x="163" y="627" on="1"/>
        <pt x="139" y="627" on="0"/>
        <pt x="135" y="634" on="1"/>
        <pt x="134" y="637" on="1"/>
        <pt x="139" y="657" on="1"/>
        <pt x="143" y="676" on="0"/>
        <pt x="147" y="680" on="1"/>
        <pt x="150" y="683" on="0"/>
        <pt x="153" y="683" on="1"/>
      </contour>
      <contour>
        <pt x="347" y="392" on="1"/>
        <pt x="338" y="396" on="0"/>
        <pt x="318" y="394" on="1"/>
        <pt x="289" y="386" on="0"/>
        <pt x="259" y="355" on="1"/>
        <pt x="243" y="339" on="0"/>
        <pt x="229" y="317" on="1"/>
        <pt x="227" y="315" on="0"/>
        <pt x="210" y="252" on="1"/>
        <pt x="191" y="175" on="1"/>
        <pt x="171" y="81" on="0"/>
        <pt x="202" y="51" on="1"/>
        <pt x="211" y="41" on="0"/>
        <pt x="224" y="38" on="1"/>
        <pt x="256" y="29" on="0"/>
        <pt x="291" y="61" on="1"/>
        <pt x="323" y="88" on="0"/>
        <pt x="343" y="155" on="1"/>
        <pt x="350" y="178" on="0"/>
        <pt x="359" y="214" on="1"/>
        <pt x="380" y="299" on="0"/>
        <pt x="380" y="331" on="1"/>
        <pt x="380" y="352" on="0"/>
        <pt x="375" y="364" on="1"/>
        <pt x="368" y="384" on="0"/>
      </contour>
    </TTGlyph>
    <TTGlyph name="backslash" xMin="221" yMin="370" xMax="604" yMax="696">
      <contour>
        <pt x="362" y="690" on="1"/>
        <pt x="371" y="696" on="0"/>
        <pt x="376" y="693" on="1"/>
        <pt x="395" y="667" on="1"/>
        <pt x="397" y="662" on="0"/>
        <pt x="385" y="651" on="1"/>
        <pt x="309" y="589" on="0"/>
        <pt x="280" y="505" on="1"/>
        <pt x="277" y="494" on="1"/>
        <pt x="285" y="497" on="1"/>
        <pt x="303" y="503" on="0"/>
        <pt x="321" y="499" on="1"/>
        <pt x="360" y="490" on="0"/>
        <pt x="360" y="449" on="1"/>
        <pt x="360" y="407" on="0"/>
        <pt x="324" y="383" on="1"/>
        <pt x="320" y="380" on="0"/>
        <pt x="315" y="378" on="1"/>
        <pt x="299" y="370" on="0"/>
        <pt x="280" y="370" on="1"/>
        <pt x="266" y="370" on="0"/>
        <pt x="261" y="372" on="1"/>
        <pt x="225" y="384" on="0"/>
        <pt x="222" y="437" on="1"/>
        <pt x="221" y="467" on="0"/>
        <pt x="234" y="510" on="1"/>
        <pt x="261" y="590" on="0"/>
        <pt x="321" y="652" on="1"/>
        <pt x="339" y="672" on="0"/>
      </contour>
      <contour>
        <pt x="569" y="690" on="1"/>
        <pt x="578" y="696" on="0"/>
        <pt x="583" y="693" on="1"/>
        <pt x="602" y="667" on="1"/>
        <pt x="604" y="662" on="0"/>
        <pt x="592" y="651" on="1"/>
        <pt x="516" y="589" on="0"/>
        <pt x="487" y="505" on="1"/>
        <pt x="484" y="494" on="1"/>
        <pt x="492" y="497" on="1"/>
        <pt x="510" y="503" on="0"/>
        <pt x="528" y="499" on="1"/>
        <pt x="567" y="490" on="0"/>
        <pt x="567" y="449" on="1"/>
        <pt x="567" y="407" on="0"/>
        <pt x="531" y="383" on="1"/>
        <pt x="527" y="380" on="0"/>
        <pt x="522" y="378" on="1"/>
        <pt x="506" y="370" on="0"/>
        <pt x="487" y="370" on="1"/>
        <pt x="473" y="370" on="0"/>
        <pt x="468" y="372" on="1"/>
        <pt x="432" y="384" on="0"/>
        <pt x="429" y="437" on="1"/>
        <pt x="428" y="467" on="0"/>
        <pt x="441" y="510" on="1"/>
        <pt x="468" y="590" on="0"/>
        <pt x="528" y="652" on="1"/>
        <pt x="546" y="672" on="0"/>
      </contour>
    </TTGlyph>
    <TTGlyph name="bar" xMin="115" yMin="243" xMax="1042" yMax="290">
      <contour>
        <pt x="126" y="287" on="1"/>
        <pt x="129" y="290" on="1"/>
        <pt x="580" y="290" on="1"/>
        <pt x="1032" y="290" on="0"/>
        <pt x="1035" y="288" on="1"/>
        <pt x="1042" y="284" on="0"/>
        <pt x="1037" y="266" on="1"/>
        <pt x="1032" y="246" on="0"/>
        <pt x="1028" y="244" on="1"/>
        <pt x="256" y="243" on="1"/>
        <pt x="122" y="243" on="0"/>
        <pt x="121" y="244" on="1"/>
        <pt x="117" y="248" on="0"/>
        <pt x="117" y="250" on="1"/>
        <pt x="115" y="253" on="0"/>
        <pt x="119" y="268" on="1"/>
        <pt x="122" y="283" on="0"/>
      </contour>
    </TTGlyph>
    <TTGlyph name="braceleft" xMin="89" yMin="243" xMax="557" yMax="290">
      <contour>
        <pt x="100" y="287" on="1"/>
        <pt x="103" y="290" on="1"/>
        <pt x="325" y="290" on="1"/>
        <pt x="547" y="290" on="0"/>
        <pt x="550" y="288" on="1"/>
        <pt x="557" y="284" on="0"/>
        <pt x="552" y="266" on="1"/>
        <pt x="547" y="250" on="0"/>
        <pt x="547" y="249" on="1"/>
        <pt x="545" y="245" on="0"/>
        <pt x="539" y="245" on="1"/>
        <pt x="524" y="243" on="0"/>
        <pt x="319" y="243" on="1"/>
        <pt x="97" y="243" on="0"/>
        <pt x="93" y="246" on="1"/>
        <pt x="92" y="246" on="0"/>
        <pt x="91" y="250" on="1"/>
        <pt x="89" y="253" on="0"/>
        <pt x="93" y="268" on="1"/>
        <pt x="96" y="283" on="0"/>
      </contour>
    </TTGlyph>
    <TTGlyph name="braceright" xMin="258" yMin="499" xMax="576" yMax="698">
      <contour>
        <pt x="371" y="697" on="1"/>
        <pt x="384" y="698" on="1"/>
        <pt x="385" y="698" on="1"/>
        <pt x="397" y="697" on="0"/>
        <pt x="402" y="694" on="1"/>
        <pt x="414" y="688" on="0"/>
        <pt x="420" y="676" on="1"/>
        <pt x="423" y="669" on="0"/>
        <pt x="423" y="653" on="0"/>
        <pt x="419" y="644" on="1"/>
        <pt x="414" y="634" on="0"/>
        <pt x="412" y="632" on="1"/>
        <pt x="305" y="505" on="1"/>
        <pt x="299" y="499" on="0"/>
        <pt x="285" y="505" on="1"/>
        <pt x="283" y="507" on="0"/>
        <pt x="278" y="509" on="1"/>
        <pt x="261" y="517" on="0"/>
        <pt x="260" y="521" on="1"/>
        <pt x="258" y="524" on="0"/>
        <pt x="259" y="528" on="1"/>
        <pt x="340" y="672" on="1"/>
        <pt x="351" y="690" on="0"/>
      </contour>
      <contour>
        <pt x="524" y="697" on="1"/>
        <pt x="537" y="698" on="1"/>
        <pt x="538" y="698" on="1"/>
        <pt x="550" y="697" on="0"/>
        <pt x="555" y="694" on="1"/>
        <pt x="567" y="688" on="0"/>
        <pt x="573" y="676" on="1"/>
        <pt x="576" y="669" on="0"/>
        <pt x="576" y="653" on="0"/>
        <pt x="572" y="644" on="1"/>
        <pt x="567" y="634" on="0"/>
        <pt x="565" y="632" on="1"/>
        <pt x="458" y="505" on="1"/>
        <pt x="452" y="499" on="0"/>
        <pt x="438" y="505" on="1"/>
        <pt x="436" y="507" on="0"/>
        <pt x="431" y="509" on="1"/>
        <pt x="414" y="517" on="0"/>
        <pt x="413" y="521" on="1"/>
        <pt x="411" y="524" on="0"/>
        <pt x="412" y="528" on="1"/>
        <pt x="493" y="672" on="1"/>
        <pt x="504" y="690" on="0"/>
      </contour>
    </TTGlyph>
    <TTGlyph name="bracketleft" xMin="72" yMin="-250" xMax="446" yMax="750">
      <contour>
        <pt x="321" y="747" on="1"/>
        <pt x="324" y="750" on="1"/>
        <pt x="381" y="750" on="1"/>
        <pt x="438" y="750" on="0"/>
        <pt x="441" y="748" on="1"/>
        <pt x="444" y="745" on="0"/>
        <pt x="445" y="743" on="1"/>
        <pt x="446" y="740" on="0"/>
        <pt x="444" y="728" on="1"/>
        <pt x="441" y="717" on="0"/>
        <pt x="437" y="713" on="1"/>
        <pt x="434" y="710" on="1"/>
        <pt x="392" y="710" on="1"/>
        <pt x="350" y="710" on="1"/>
        <pt x="349" y="706" on="1"/>
        <pt x="349" y="708" on="0"/>
        <pt x="235" y="248" on="1"/>
        <pt x="120" y="-207" on="0"/>
        <pt x="120" y="-208" on="1"/>
        <pt x="120" y="-210" on="0"/>
        <pt x="198" y="-210" on="0"/>
        <pt x="201" y="-212" on="1"/>
        <pt x="204" y="-215" on="0"/>
        <pt x="205" y="-217" on="1"/>
        <pt x="206" y="-220" on="0"/>
        <pt x="204" y="-232" on="1"/>
        <pt x="201" y="-243" on="0"/>
        <pt x="197" y="-247" on="1"/>
        <pt x="194" y="-250" on="1"/>
        <pt x="137" y="-250" on="1"/>
        <pt x="80" y="-250" on="0"/>
        <pt x="77" y="-248" on="1"/>
        <pt x="74" y="-245" on="0"/>
        <pt x="73" y="-243" on="1"/>
        <pt x="72" y="-239" on="0"/>
        <pt x="194" y="252" on="1"/>
        <pt x="317" y="744" on="0"/>
      </contour>
    </TTGlyph>
    <TTGlyph name="bracketright" xMin="-13" yMin="-250" xMax="361" yMax="750">
      <contour>
        <pt x="236" y="747" on="1"/>
        <pt x="239" y="750" on="1"/>
        <pt x="296" y="750" on="1"/>
        <pt x="353" y="750" on="0"/>
        <pt x="356" y="748" on="1"/>
        <pt x="359" y="745" on="0"/>
        <pt x="360" y="743" on="1"/>
        <pt x="361" y="739" on="0"/>
        <pt x="239" y="248" on="1"/>
        <pt x="116" y="-244" on="0"/>
        <pt x="112" y="-247" on="1"/>
        <pt x="109" y="-250" on="1"/>
        <pt x="52" y="-250" on="1"/>
        <pt x="-5" y="-250" on="0"/>
        <pt x="-8" y="-248" on="1"/>
        <pt x="-11" y="-245" on="0"/>
        <pt x="-12" y="-243" on="1"/>
        <pt x="-13" y="-240" on="0"/>
        <pt x="-11" y="-228" on="1"/>
        <pt x="-8" y="-217" on="0"/>
        <pt x="-4" y="-213" on="1"/>
        <pt x="-1" y="-210" on="1"/>
        <pt x="41" y="-210" on="1"/>
        <pt x="83" y="-210" on="1"/>
        <pt x="84" y="-206" on="1"/>
        <pt x="84" y="-208" on="0"/>
        <pt x="198" y="252" on="1"/>
        <pt x="313" y="707" on="0"/>
        <pt x="313" y="708" on="1"/>
        <pt x="313" y="710" on="0"/>
        <pt x="235" y="710" on="0"/>
        <pt x="232" y="712" on="1"/>
        <pt x="229" y="715" on="0"/>
        <pt x="228" y="717" on="1"/>
        <pt x="227" y="720" on="0"/>
        <pt x="229" y="732" on="1"/>
        <pt x="232" y="743" on="0"/>
      </contour>
    </TTGlyph>
    <TTGlyph name="c" xMin="84" yMin="-13" xMax="473" yMax="444">
      <contour>
        <pt x="346" y="441" on="1"/>
        <pt x="370" y="444" on="0"/>
        <pt x="393" y="439" on="1"/>
        <pt x="453" y="427" on="0"/>
        <pt x="467" y="376" on="1"/>
        <pt x="473" y="357" on="0"/>
        <pt x="467" y="336" on="1"/>
        <pt x="460" y="305" on="0"/>
        <pt x="434" y="291" on="1"/>
        <pt x="397" y="272" on="0"/>
        <pt x="372" y="294" on="1"/>
        <pt x="362" y="303" on="0"/>
        <pt x="360" y="318" on="1"/>
        <pt x="355" y="345" on="0"/>
        <pt x="380" y="371" on="1"/>
        <pt x="385" y="377" on="0"/>
        <pt x="391" y="380" on="1"/>
        <pt x="397" y="383" on="1"/>
        <pt x="393" y="386" on="1"/>
        <pt x="370" y="400" on="0"/>
        <pt x="331" y="392" on="1"/>
        <pt x="292" y="380" on="0"/>
        <pt x="262" y="346" on="1"/>
        <pt x="233" y="311" on="0"/>
        <pt x="212" y="229" on="1"/>
        <pt x="210" y="222" on="0"/>
        <pt x="208" y="215" on="1"/>
        <pt x="192" y="149" on="0"/>
        <pt x="192" y="117" on="1"/>
        <pt x="192" y="96" on="0"/>
        <pt x="194" y="89" on="1"/>
        <pt x="203" y="49" on="0"/>
        <pt x="242" y="39" on="1"/>
        <pt x="272" y="31" on="0"/>
        <pt x="322" y="46" on="1"/>
        <pt x="372" y="63" on="0"/>
        <pt x="413" y="104" on="1"/>
        <pt x="431" y="122" on="0"/>
        <pt x="438" y="120" on="1"/>
        <pt x="452" y="106" on="1"/>
        <pt x="466" y="90" on="0"/>
        <pt x="463" y="83" on="1"/>
        <pt x="458" y="74" on="0"/>
        <pt x="429" y="47" on="1"/>
        <pt x="371" y="2" on="0"/>
        <pt x="293" y="-9" on="1"/>
        <pt x="258" y="-13" on="0"/>
        <pt x="237" y="-10" on="1"/>
        <pt x="149" y="1" on="0"/>
        <pt x="114" y="77" on="1"/>
        <pt x="108" y="90" on="0"/>
        <pt x="104" y="105" on="1"/>
        <pt x="84" y="181" on="0"/>
        <pt x="123" y="268" on="1"/>
        <pt x="147" y="320" on="0"/>
        <pt x="187" y="360" on="1"/>
        <pt x="225" y="398" on="0"/>
        <pt x="266" y="417" on="1"/>
        <pt x="306" y="437" on="0"/>
      </contour>
    </TTGlyph>
    <TTGlyph name="colon" xMin="91" yMin="-9" xMax="318" yMax="434">
      <contour>
        <pt x="245" y="430" on="1"/>
        <pt x="268" y="434" on="0"/>
        <pt x="286" y="424" on="1"/>
        <pt x="318" y="406" on="0"/>
        <pt x="311" y="367" on="1"/>
        <pt x="306" y="345" on="0"/>
        <pt x="289" y="327" on="1"/>
        <pt x="255" y="291" on="0"/>
        <pt x="215" y="302" on="1"/>
        <pt x="203" y="306" on="0"/>
        <pt x="193" y="315" on="1"/>
        <pt x="166" y="340" on="0"/>
        <pt x="184" y="381" on="1"/>
        <pt x="197" y="408" on="0"/>
        <pt x="224" y="422" on="1"/>
        <pt x="236" y="428" on="0"/>
      </contour>
      <contour>
        <pt x="170" y="130" on="1"/>
        <pt x="193" y="134" on="0"/>
        <pt x="211" y="124" on="1"/>
        <pt x="243" y="106" on="0"/>
        <pt x="236" y="67" on="1"/>
        <pt x="231" y="45" on="0"/>
        <pt x="214" y="27" on="1"/>
        <pt x="180" y="-9" on="0"/>
        <pt x="140" y="2" on="1"/>
        <pt x="128" y="6" on="0"/>
        <pt x="118" y="15" on="1"/>
        <pt x="91" y="40" on="0"/>
        <pt x="109" y="81" on="1"/>
        <pt x="122" y="108" on="0"/>
        <pt x="149" y="122" on="1"/>
        <pt x="161" y="128" on="0"/>
      </contour>
    </TTGlyph>
    <TTGlyph name="comma" xMin="66" yMin="-197" xMax="249" yMax="137">
      <contour>
        <pt x="168" y="129" on="1"/>
        <pt x="200" y="137" on="0"/>
        <pt x="221" y="116" on="1"/>
        <pt x="232" y="106" on="0"/>
        <pt x="235" y="88" on="1"/>
        <pt x="249" y="35" on="0"/>
        <pt x="211" y="-48" on="1"/>
        <pt x="176" y="-126" on="0"/>
        <pt x="106" y="-185" on="1"/>
        <pt x="93" y="-197" on="0"/>
        <pt x="87" y="-193" on="1"/>
        <pt x="84" y="-191" on="0"/>
        <pt x="77" y="-181" on="1"/>
        <pt x="66" y="-165" on="0"/>
        <pt x="68" y="-162" on="1"/>
        <pt x="69" y="-160" on="0"/>
        <pt x="80" y="-149" on="1"/>
        <pt x="151" y="-87" on="0"/>
        <pt x="178" y="-8" on="1"/>
        <pt x="183" y="5" on="1"/>
        <pt x="177" y="3" on="1"/>
        <pt x="160" y="-3" on="0"/>
        <pt x="142" y="1" on="1"/>
        <pt x="127" y="4" on="0"/>
        <pt x="118" y="12" on="1"/>
        <pt x="100" y="29" on="0"/>
        <pt x="103" y="58" on="1"/>
        <pt x="110" y="104" on="0"/>
        <pt x="150" y="123" on="1"/>
        <pt x="159" y="127" on="0"/>
      </contour>
    </TTGlyph>
    <TTGlyph name="d" xMin="90" yMin="-26" xMax="573" yMax="694">
      <contour>
        <pt x="483" y="688" on="1"/>
        <pt x="561" y="694" on="0"/>
        <pt x="560" y="694" on="1"/>
        <pt x="569" y="694" on="0"/>
        <pt x="572" y="687" on="1"/>
        <pt x="573" y="683" on="0"/>
        <pt x="500" y="389" on="1"/>
        <pt x="424" y="85" on="1"/>
        <pt x="422" y="62" on="0"/>
        <pt x="424" y="48" on="1"/>
        <pt x="426" y="43" on="0"/>
        <pt x="430" y="40" on="1"/>
        <pt x="433" y="37" on="0"/>
        <pt x="439" y="37" on="1"/>
        <pt x="446" y="37" on="0"/>
        <pt x="450" y="39" on="1"/>
        <pt x="469" y="53" on="0"/>
        <pt x="489" y="130" on="1"/>
        <pt x="494" y="149" on="0"/>
        <pt x="497" y="151" on="1"/>
        <pt x="499" y="153" on="0"/>
        <pt x="543" y="153" on="0"/>
        <pt x="546" y="151" on="1"/>
        <pt x="548" y="149" on="0"/>
        <pt x="548" y="137" on="0"/>
        <pt x="543" y="119" on="1"/>
        <pt x="506" y="-7" on="0"/>
        <pt x="438" y="-11" on="1"/>
        <pt x="387" y="-14" on="0"/>
        <pt x="356" y="24" on="1"/>
        <pt x="351" y="30" on="0"/>
        <pt x="347" y="37" on="1"/>
        <pt x="345" y="43" on="0"/>
        <pt x="344" y="43" on="1"/>
        <pt x="337" y="37" on="1"/>
        <pt x="302" y="6" on="0"/>
        <pt x="268" y="-4" on="1"/>
        <pt x="203" y="-26" on="0"/>
        <pt x="151" y="16" on="1"/>
        <pt x="145" y="21" on="0"/>
        <pt x="140" y="27" on="1"/>
        <pt x="125" y="42" on="0"/>
        <pt x="115" y="63" on="1"/>
        <pt x="90" y="114" on="0"/>
        <pt x="99" y="184" on="1"/>
        <pt x="115" y="298" on="0"/>
        <pt x="196" y="376" on="1"/>
        <pt x="248" y="426" on="0"/>
        <pt x="309" y="439" on="1"/>
        <pt x="318" y="441" on="0"/>
        <pt x="337" y="441" on="1"/>
        <pt x="362" y="441" on="0"/>
        <pt x="380" y="433" on="1"/>
        <pt x="394" y="426" on="0"/>
        <pt x="406" y="414" on="1"/>
        <pt x="414" y="406" on="0"/>
        <pt x="414" y="408" on="1"/>
        <pt x="415" y="409" on="0"/>
        <pt x="439" y="504" on="1"/>
        <pt x="462" y="597" on="0"/>
        <pt x="463" y="608" on="1"/>
        <pt x="463" y="617" on="0"/>
        <pt x="461" y="619" on="1"/>
        <pt x="454" y="626" on="0"/>
        <pt x="418" y="627" on="1"/>
        <pt x="394" y="627" on="0"/>
        <pt x="390" y="634" on="1"/>
        <pt x="389" y="637" on="1"/>
        <pt x="394" y="657" on="1"/>
        <pt x="398" y="676" on="0"/>
        <pt x="402" y="680" on="1"/>
        <pt x="405" y="683" on="0"/>
        <pt x="408" y="683" on="1"/>
      </contour>
      <contour>
        <pt x="341" y="394" on="1"/>
        <pt x="300" y="401" on="0"/>
        <pt x="262" y="355" on="1"/>
        <pt x="252" y="342" on="0"/>
        <pt x="244" y="327" on="1"/>
        <pt x="229" y="298" on="0"/>
        <pt x="208" y="213" on="1"/>
        <pt x="195" y="165" on="0"/>
        <pt x="189" y="129" on="1"/>
        <pt x="185" y="95" on="0"/>
        <pt x="189" y="77" on="1"/>
        <pt x="199" y="42" on="0"/>
        <pt x="228" y="37" on="1"/>
        <pt x="245" y="34" on="0"/>
        <pt x="269" y="44" on="1"/>
        <pt x="305" y="64" on="0"/>
        <pt x="337" y="111" on="1"/>
        <pt x="342" y="118" on="1"/>
        <pt x="367" y="218" on="1"/>
        <pt x="392" y="318" on="1"/>
        <pt x="390" y="325" on="1"/>
        <pt x="381" y="382" on="0"/>
        <pt x="346" y="393" on="1"/>
        <pt x="344" y="394" on="0"/>
      </contour>
    </TTGlyph>
    <TTGlyph name="dollar" xMin="83" yMin="-14" xMax="701" yMax="719">
      <contour>
        <pt x="567" y="718" on="1"/>
        <pt x="588" y="719" on="1"/>
        <pt x="589" y="719" on="1"/>
        <pt x="609" y="717" on="0"/>
        <pt x="614" y="716" on="1"/>
        <pt x="634" y="710" on="0"/>
        <pt x="646" y="702" on="1"/>
        <pt x="701" y="666" on="0"/>
        <pt x="700" y="578" on="1"/>
        <pt x="699" y="559" on="0"/>
        <pt x="696" y="540" on="1"/>
        <pt x="691" y="504" on="0"/>
        <pt x="674" y="487" on="1"/>
        <pt x="656" y="468" on="0"/>
        <pt x="629" y="468" on="1"/>
        <pt x="599" y="468" on="0"/>
        <pt x="588" y="491" on="1"/>
        <pt x="582" y="504" on="0"/>
        <pt x="586" y="523" on="1"/>
        <pt x="592" y="539" on="0"/>
        <pt x="600" y="550" on="1"/>
        <pt x="614" y="567" on="0"/>
        <pt x="638" y="572" on="1"/>
        <pt x="644" y="573" on="1"/>
        <pt x="644" y="585" on="1"/>
        <pt x="644" y="617" on="0"/>
        <pt x="633" y="638" on="1"/>
        <pt x="621" y="663" on="0"/>
        <pt x="597" y="670" on="1"/>
        <pt x="582" y="674" on="0"/>
        <pt x="560" y="670" on="1"/>
        <pt x="500" y="653" on="0"/>
        <pt x="473" y="579" on="1"/>
        <pt x="463" y="549" on="0"/>
        <pt x="441" y="459" on="1"/>
        <pt x="421" y="378" on="0"/>
        <pt x="420" y="377" on="1"/>
        <pt x="420" y="375" on="0"/>
        <pt x="462" y="375" on="1"/>
        <pt x="503" y="375" on="1"/>
        <pt x="506" y="372" on="1"/>
        <pt x="510" y="368" on="0"/>
        <pt x="504" y="343" on="1"/>
        <pt x="499" y="323" on="0"/>
        <pt x="496" y="321" on="1"/>
        <pt x="494" y="319" on="1"/>
        <pt x="450" y="319" on="1"/>
        <pt x="406" y="319" on="1"/>
        <pt x="405" y="315" on="1"/>
        <pt x="386" y="237" on="1"/>
        <pt x="364" y="154" on="1"/>
        <pt x="360" y="141" on="0"/>
        <pt x="347" y="115" on="1"/>
        <pt x="341" y="105" on="0"/>
        <pt x="341" y="104" on="1"/>
        <pt x="405" y="70" on="1"/>
        <pt x="445" y="53" on="0"/>
        <pt x="479" y="53" on="1"/>
        <pt x="494" y="53" on="0"/>
        <pt x="500" y="55" on="1"/>
        <pt x="537" y="68" on="0"/>
        <pt x="559" y="120" on="1"/>
        <pt x="561" y="125" on="0"/>
        <pt x="563" y="131" on="1"/>
        <pt x="568" y="146" on="0"/>
        <pt x="573" y="147" on="1"/>
        <pt x="576" y="148" on="0"/>
        <pt x="593" y="148" on="1"/>
        <pt x="618" y="148" on="0"/>
        <pt x="621" y="142" on="1"/>
        <pt x="622" y="138" on="0"/>
        <pt x="619" y="129" on="1"/>
        <pt x="610" y="96" on="0"/>
        <pt x="591" y="71" on="1"/>
        <pt x="546" y="8" on="0"/>
        <pt x="475" y="-8" on="1"/>
        <pt x="450" y="-13" on="0"/>
        <pt x="417" y="-9" on="1"/>
        <pt x="375" y="-1" on="0"/>
        <pt x="314" y="33" on="1"/>
        <pt x="293" y="45" on="0"/>
        <pt x="291" y="45" on="1"/>
        <pt x="283" y="39" on="1"/>
        <pt x="239" y="3" on="0"/>
        <pt x="184" y="-8" on="1"/>
        <pt x="152" y="-14" on="0"/>
        <pt x="131" y="-8" on="1"/>
        <pt x="95" y="1" on="0"/>
        <pt x="89" y="31" on="1"/>
        <pt x="83" y="62" on="0"/>
        <pt x="115" y="97" on="1"/>
        <pt x="117" y="99" on="0"/>
        <pt x="120" y="102" on="1"/>
        <pt x="156" y="132" on="0"/>
        <pt x="207" y="138" on="1"/>
        <pt x="238" y="142" on="0"/>
        <pt x="266" y="134" on="1"/>
        <pt x="269" y="133" on="1"/>
        <pt x="272" y="141" on="1"/>
        <pt x="316" y="318" on="1"/>
        <pt x="316" y="319" on="0"/>
        <pt x="287" y="319" on="1"/>
        <pt x="258" y="319" on="1"/>
        <pt x="255" y="322" on="1"/>
        <pt x="251" y="326" on="0"/>
        <pt x="257" y="351" on="1"/>
        <pt x="262" y="371" on="0"/>
        <pt x="265" y="373" on="1"/>
        <pt x="267" y="375" on="0"/>
        <pt x="299" y="375" on="1"/>
        <pt x="331" y="375" on="1"/>
        <pt x="349" y="451" on="1"/>
        <pt x="372" y="539" on="1"/>
        <pt x="403" y="634" on="0"/>
        <pt x="484" y="687" on="1"/>
        <pt x="504" y="700" on="0"/>
        <pt x="526" y="708" on="1"/>
        <pt x="556" y="717" on="0"/>
      </contour>
      <contour>
        <pt x="209" y="74" on="1"/>
        <pt x="175" y="79" on="0"/>
        <pt x="160" y="62" on="1"/>
        <pt x="154" y="55" on="0"/>
        <pt x="152" y="45" on="1"/>
        <pt x="152" y="40" on="0"/>
        <pt x="155" y="38" on="1"/>
        <pt x="157" y="36" on="0"/>
        <pt x="166" y="36" on="1"/>
        <pt x="202" y="39" on="0"/>
        <pt x="228" y="64" on="1"/>
        <pt x="234" y="69" on="1"/>
        <pt x="227" y="71" on="1"/>
        <pt x="218" y="74" on="0"/>
      </contour>
    </TTGlyph>
    <TTGlyph name="e" xMin="99" yMin="-10" xMax="473" yMax="445">
      <contour>
        <pt x="338" y="441" on="1"/>
        <pt x="369" y="445" on="0"/>
        <pt x="394" y="439" on="1"/>
        <pt x="409" y="435" on="0"/>
        <pt x="425" y="428" on="1"/>
        <pt x="461" y="410" on="0"/>
        <pt x="471" y="375" on="1"/>
        <pt x="473" y="368" on="0"/>
        <pt x="473" y="352" on="1"/>
        <pt x="473" y="334" on="0"/>
        <pt x="471" y="327" on="1"/>
        <pt x="462" y="297" on="0"/>
        <pt x="442" y="275" on="1"/>
        <pt x="414" y="247" on="0"/>
        <pt x="358" y="232" on="1"/>
        <pt x="312" y="221" on="0"/>
        <pt x="233" y="218" on="1"/>
        <pt x="209" y="218" on="1"/>
        <pt x="207" y="212" on="1"/>
        <pt x="197" y="157" on="0"/>
        <pt x="197" y="159" on="1"/>
        <pt x="192" y="123" on="0"/>
        <pt x="196" y="95" on="1"/>
        <pt x="207" y="42" on="0"/>
        <pt x="255" y="37" on="1"/>
        <pt x="259" y="36" on="0"/>
        <pt x="264" y="36" on="1"/>
        <pt x="316" y="36" on="0"/>
        <pt x="364" y="65" on="1"/>
        <pt x="388" y="79" on="0"/>
        <pt x="413" y="104" on="1"/>
        <pt x="431" y="122" on="0"/>
        <pt x="438" y="120" on="1"/>
        <pt x="452" y="106" on="1"/>
        <pt x="466" y="90" on="0"/>
        <pt x="463" y="83" on="1"/>
        <pt x="458" y="74" on="0"/>
        <pt x="429" y="47" on="1"/>
        <pt x="381" y="10" on="0"/>
        <pt x="317" y="-4" on="1"/>
        <pt x="292" y="-10" on="0"/>
        <pt x="258" y="-10" on="1"/>
        <pt x="227" y="-10" on="0"/>
        <pt x="206" y="-3" on="1"/>
        <pt x="176" y="8" on="0"/>
        <pt x="152" y="31" on="1"/>
        <pt x="134" y="50" on="0"/>
        <pt x="124" y="72" on="1"/>
        <pt x="105" y="109" on="0"/>
        <pt x="102" y="160" on="1"/>
        <pt x="99" y="262" on="0"/>
        <pt x="161" y="340" on="1"/>
        <pt x="180" y="364" on="0"/>
        <pt x="203" y="381" on="1"/>
        <pt x="263" y="430" on="0"/>
      </contour>
      <contour>
        <pt x="371" y="393" on="1"/>
        <pt x="329" y="401" on="0"/>
        <pt x="288" y="373" on="1"/>
        <pt x="252" y="350" on="0"/>
        <pt x="232" y="299" on="1"/>
        <pt x="221" y="272" on="0"/>
        <pt x="221" y="266" on="1"/>
        <pt x="221" y="262" on="0"/>
        <pt x="293" y="268" on="1"/>
        <pt x="300" y="268" on="0"/>
        <pt x="305" y="269" on="1"/>
        <pt x="371" y="276" on="0"/>
        <pt x="396" y="306" on="1"/>
        <pt x="407" y="320" on="0"/>
        <pt x="410" y="339" on="1"/>
        <pt x="415" y="375" on="0"/>
        <pt x="384" y="389" on="1"/>
        <pt x="378" y="392" on="0"/>
      </contour>
    </TTGlyph>
    <TTGlyph name="eight" xMin="98" yMin="-23" xMax="555" yMax="665">
      <contour>
        <pt x="404" y="665" on="1"/>
        <pt x="448" y="664" on="1"/>
        <pt x="483" y="657" on="0"/>
        <pt x="506" y="639" on="1"/>
        <pt x="525" y="626" on="0"/>
        <pt x="534" y="608" on="1"/>
        <pt x="555" y="573" on="0"/>
        <pt x="552" y="532" on="1"/>
        <pt x="543" y="434" on="0"/>
        <pt x="429" y="367" on="1"/>
        <pt x="418" y="360" on="1"/>
        <pt x="435" y="346" on="1"/>
        <pt x="468" y="318" on="0"/>
        <pt x="480" y="292" on="1"/>
        <pt x="518" y="218" on="0"/>
        <pt x="474" y="128" on="1"/>
        <pt x="465" y="110" on="0"/>
        <pt x="454" y="93" on="1"/>
        <pt x="420" y="43" on="0"/>
        <pt x="368" y="12" on="1"/>
        <pt x="315" y="-19" on="0"/>
        <pt x="260" y="-22" on="1"/>
        <pt x="212" y="-23" on="0"/>
        <pt x="173" y="-3" on="1"/>
        <pt x="132" y="17" on="0"/>
        <pt x="112" y="58" on="1"/>
        <pt x="98" y="89" on="0"/>
        <pt x="99" y="125" on="1"/>
        <pt x="100" y="176" on="0"/>
        <pt x="133" y="227" on="1"/>
        <pt x="174" y="289" on="0"/>
        <pt x="250" y="330" on="1"/>
        <pt x="260" y="335" on="0"/>
        <pt x="264" y="339" on="0"/>
        <pt x="259" y="342" on="1"/>
        <pt x="240" y="357" on="0"/>
        <pt x="230" y="372" on="1"/>
        <pt x="216" y="393" on="0"/>
        <pt x="211" y="420" on="1"/>
        <pt x="205" y="444" on="0"/>
        <pt x="209" y="474" on="1"/>
        <pt x="216" y="519" on="0"/>
        <pt x="244" y="564" on="1"/>
        <pt x="275" y="608" on="0"/>
        <pt x="319" y="636" on="1"/>
        <pt x="355" y="657" on="0"/>
        <pt x="394" y="664" on="1"/>
        <pt x="398" y="665" on="0"/>
      </contour>
      <contour>
        <pt x="432" y="614" on="1"/>
        <pt x="422" y="616" on="0"/>
        <pt x="401" y="616" on="1"/>
        <pt x="392" y="614" on="1"/>
        <pt x="354" y="608" on="0"/>
        <pt x="322" y="576" on="1"/>
        <pt x="281" y="534" on="0"/>
        <pt x="290" y="487" on="1"/>
        <pt x="294" y="471" on="0"/>
        <pt x="304" y="459" on="1"/>
        <pt x="382" y="391" on="1"/>
        <pt x="383" y="391" on="0"/>
        <pt x="393" y="397" on="1"/>
        <pt x="455" y="441" on="0"/>
        <pt x="475" y="500" on="1"/>
        <pt x="489" y="540" on="0"/>
        <pt x="476" y="573" on="1"/>
        <pt x="464" y="604" on="0"/>
      </contour>
      <contour>
        <pt x="342" y="271" on="1"/>
        <pt x="300" y="306" on="1"/>
        <pt x="298" y="306" on="0"/>
        <pt x="290" y="301" on="1"/>
        <pt x="209" y="251" on="0"/>
        <pt x="183" y="172" on="1"/>
        <pt x="177" y="153" on="0"/>
        <pt x="175" y="135" on="1"/>
        <pt x="169" y="74" on="0"/>
        <pt x="212" y="45" on="1"/>
        <pt x="223" y="38" on="0"/>
        <pt x="237" y="34" on="1"/>
        <pt x="255" y="29" on="0"/>
        <pt x="285" y="33" on="1"/>
        <pt x="349" y="46" on="0"/>
        <pt x="388" y="102" on="1"/>
        <pt x="425" y="157" on="0"/>
        <pt x="404" y="207" on="1"/>
        <pt x="398" y="221" on="0"/>
        <pt x="387" y="232" on="1"/>
      </contour>
    </TTGlyph>
    <TTGlyph name="equal" xMin="110" yMin="133" xMax="782" yMax="367">
      <contour>
        <pt x="176" y="365" on="1"/>
        <pt x="179" y="367" on="0"/>
        <pt x="470" y="367" on="1"/>
        <pt x="761" y="367" on="1"/>
        <pt x="766" y="364" on="1"/>
        <pt x="782" y="356" on="0"/>
        <pt x="775" y="340" on="1"/>
        <pt x="773" y="333" on="0"/>
        <pt x="766" y="330" on="1"/>
        <pt x="761" y="327" on="1"/>
        <pt x="470" y="327" on="1"/>
        <pt x="180" y="327" on="0"/>
        <pt x="176" y="329" on="1"/>
        <pt x="159" y="335" on="0"/>
        <pt x="165" y="353" on="1"/>
        <pt x="168" y="361" on="0"/>
      </contour>
      <contour>
        <pt x="126" y="170" on="1"/>
        <pt x="131" y="173" on="1"/>
        <pt x="422" y="173" on="1"/>
        <pt x="713" y="173" on="0"/>
        <pt x="717" y="171" on="1"/>
        <pt x="732" y="164" on="0"/>
        <pt x="727" y="147" on="1"/>
        <pt x="725" y="139" on="0"/>
        <pt x="717" y="135" on="1"/>
        <pt x="713" y="133" on="0"/>
        <pt x="422" y="133" on="1"/>
        <pt x="131" y="133" on="1"/>
        <pt x="126" y="136" on="1"/>
        <pt x="110" y="144" on="0"/>
        <pt x="117" y="160" on="1"/>
        <pt x="119" y="167" on="0"/>
      </contour>
    </TTGlyph>
    <TTGlyph name="exclam" xMin="103" yMin="-12" xMax="384" yMax="719">
      <contour>
        <pt x="316" y="715" on="1"/>
        <pt x="341" y="719" on="0"/>
        <pt x="357" y="710" on="1"/>
        <pt x="376" y="701" on="0"/>
        <pt x="382" y="681" on="1"/>
        <pt x="384" y="675" on="0"/>
        <pt x="384" y="664" on="1"/>
        <pt x="383" y="654" on="1"/>
        <pt x="309" y="433" on="1"/>
        <pt x="234" y="212" on="0"/>
        <pt x="234" y="211" on="1"/>
        <pt x="226" y="206" on="0"/>
        <pt x="208" y="206" on="1"/>
        <pt x="182" y="206" on="0"/>
        <pt x="180" y="212" on="1"/>
        <pt x="179" y="215" on="0"/>
        <pt x="215" y="435" on="1"/>
        <pt x="251" y="653" on="0"/>
        <pt x="253" y="661" on="1"/>
        <pt x="264" y="698" on="0"/>
        <pt x="308" y="713" on="1"/>
        <pt x="312" y="714" on="0"/>
      </contour>
      <contour>
        <pt x="169" y="129" on="1"/>
        <pt x="184" y="134" on="0"/>
        <pt x="202" y="128" on="1"/>
        <pt x="220" y="121" on="0"/>
        <pt x="226" y="111" on="1"/>
        <pt x="235" y="99" on="0"/>
        <pt x="237" y="82" on="1"/>
        <pt x="237" y="66" on="0"/>
        <pt x="232" y="53" on="1"/>
        <pt x="220" y="23" on="0"/>
        <pt x="188" y="7" on="1"/>
        <pt x="148" y="-12" on="0"/>
        <pt x="120" y="13" on="1"/>
        <pt x="112" y="19" on="0"/>
        <pt x="108" y="28" on="1"/>
        <pt x="103" y="40" on="0"/>
        <pt x="103" y="55" on="1"/>
        <pt x="104" y="69" on="0"/>
        <pt x="107" y="75" on="1"/>
        <pt x="120" y="108" on="0"/>
        <pt x="152" y="123" on="1"/>
        <pt x="162" y="129" on="0"/>
      </contour>
    </TTGlyph>
    <TTGlyph name="f" xMin="-22" yMin="-207" xMax="449" yMax="705">
      <contour>
        <pt x="348" y="704" on="1"/>
        <pt x="353" y="705" on="0"/>
        <pt x="368" y="705" on="1"/>
        <pt x="391" y="704" on="0"/>
        <pt x="410" y="694" on="1"/>
        <pt x="449" y="674" on="0"/>
        <pt x="449" y="630" on="1"/>
        <pt x="449" y="612" on="0"/>
        <pt x="441" y="596" on="1"/>
        <pt x="437" y="586" on="0"/>
        <pt x="429" y="579" on="1"/>
        <pt x="419" y="569" on="0"/>
        <pt x="412" y="566" on="1"/>
        <pt x="384" y="553" on="0"/>
        <pt x="359" y="565" on="1"/>
        <pt x="334" y="578" on="0"/>
        <pt x="341" y="611" on="1"/>
        <pt x="342" y="615" on="0"/>
        <pt x="343" y="619" on="1"/>
        <pt x="350" y="642" on="0"/>
        <pt x="368" y="653" on="1"/>
        <pt x="373" y="656" on="0"/>
        <pt x="361" y="658" on="1"/>
        <pt x="354" y="658" on="0"/>
        <pt x="351" y="656" on="1"/>
        <pt x="343" y="650" on="0"/>
        <pt x="340" y="642" on="1"/>
        <pt x="336" y="634" on="0"/>
        <pt x="319" y="550" on="1"/>
        <pt x="296" y="440" on="0"/>
        <pt x="296" y="432" on="1"/>
        <pt x="296" y="431" on="0"/>
        <pt x="350" y="431" on="1"/>
        <pt x="404" y="431" on="1"/>
        <pt x="408" y="428" on="1"/>
        <pt x="412" y="423" on="0"/>
        <pt x="402" y="379" on="0"/>
        <pt x="398" y="377" on="1"/>
        <pt x="395" y="375" on="0"/>
        <pt x="285" y="375" on="0"/>
        <pt x="285" y="373" on="1"/>
        <pt x="259" y="241" on="1"/>
        <pt x="229" y="86" on="1"/>
        <pt x="202" y="-44" on="0"/>
        <pt x="177" y="-100" on="1"/>
        <pt x="145" y="-174" on="0"/>
        <pt x="95" y="-197" on="1"/>
        <pt x="81" y="-204" on="0"/>
        <pt x="65" y="-205" on="1"/>
        <pt x="21" y="-207" on="0"/>
        <pt x="-5" y="-178" on="1"/>
        <pt x="-7" y="-177" on="0"/>
        <pt x="-8" y="-175" on="1"/>
        <pt x="-22" y="-155" on="0"/>
        <pt x="-22" y="-131" on="1"/>
        <pt x="-22" y="-112" on="0"/>
        <pt x="-14" y="-96" on="1"/>
        <pt x="-10" y="-86" on="0"/>
        <pt x="-2" y="-79" on="1"/>
        <pt x="8" y="-69" on="0"/>
        <pt x="15" y="-66" on="1"/>
        <pt x="43" y="-53" on="0"/>
        <pt x="68" y="-65" on="1"/>
        <pt x="93" y="-78" on="0"/>
        <pt x="86" y="-111" on="1"/>
        <pt x="85" y="-115" on="0"/>
        <pt x="84" y="-119" on="1"/>
        <pt x="77" y="-142" on="0"/>
        <pt x="59" y="-153" on="1"/>
        <pt x="53" y="-157" on="0"/>
        <pt x="66" y="-157" on="1"/>
        <pt x="74" y="-157" on="0"/>
        <pt x="78" y="-154" on="1"/>
        <pt x="91" y="-144" on="0"/>
        <pt x="98" y="-102" on="1"/>
        <pt x="108" y="-39" on="0"/>
        <pt x="128" y="40" on="1"/>
        <pt x="148" y="130" on="1"/>
        <pt x="195" y="381" on="0"/>
        <pt x="195" y="374" on="1"/>
        <pt x="195" y="375" on="0"/>
        <pt x="149" y="375" on="1"/>
        <pt x="100" y="375" on="0"/>
        <pt x="96" y="382" on="1"/>
        <pt x="94" y="385" on="0"/>
        <pt x="104" y="425" on="0"/>
        <pt x="107" y="428" on="1"/>
        <pt x="110" y="431" on="1"/>
        <pt x="158" y="431" on="1"/>
        <pt x="206" y="431" on="1"/>
        <pt x="206" y="433" on="1"/>
        <pt x="216" y="482" on="1"/>
        <pt x="236" y="586" on="0"/>
        <pt x="255" y="627" on="1"/>
        <pt x="286" y="690" on="0"/>
      </contour>
    </TTGlyph>
    <TTGlyph name="five" xMin="105" yMin="-25" xMax="567" yMax="667">
      <contour>
        <pt x="274" y="664" on="1"/>
        <pt x="278" y="667" on="0"/>
        <pt x="292" y="660" on="1"/>
        <pt x="328" y="644" on="0"/>
        <pt x="362" y="638" on="1"/>
        <pt x="451" y="624" on="0"/>
        <pt x="545" y="662" on="1"/>
        <pt x="557" y="666" on="0"/>
        <pt x="559" y="666" on="1"/>
        <pt x="565" y="666" on="0"/>
        <pt x="567" y="657" on="1"/>
        <pt x="557" y="623" on="1"/>
        <pt x="557" y="622" on="1"/>
        <pt x="550" y="613" on="0"/>
        <pt x="518" y="592" on="1"/>
        <pt x="486" y="570" on="0"/>
        <pt x="448" y="556" on="1"/>
        <pt x="411" y="542" on="0"/>
        <pt x="376" y="538" on="1"/>
        <pt x="348" y="534" on="0"/>
        <pt x="313" y="538" on="1"/>
        <pt x="300" y="540" on="0"/>
        <pt x="299" y="540" on="1"/>
        <pt x="297" y="540" on="0"/>
        <pt x="277" y="464" on="1"/>
        <pt x="258" y="386" on="1"/>
        <pt x="258" y="385" on="0"/>
        <pt x="268" y="391" on="1"/>
        <pt x="296" y="409" on="0"/>
        <pt x="331" y="417" on="1"/>
        <pt x="356" y="422" on="0"/>
        <pt x="388" y="418" on="1"/>
        <pt x="437" y="407" on="0"/>
        <pt x="466" y="369" on="1"/>
        <pt x="480" y="348" on="0"/>
        <pt x="488" y="324" on="1"/>
        <pt x="508" y="262" on="0"/>
        <pt x="485" y="186" on="1"/>
        <pt x="454" y="83" on="0"/>
        <pt x="363" y="23" on="1"/>
        <pt x="315" y="-10" on="0"/>
        <pt x="262" y="-19" on="1"/>
        <pt x="234" y="-25" on="0"/>
        <pt x="212" y="-21" on="1"/>
        <pt x="168" y="-16" on="0"/>
        <pt x="140" y="13" on="1"/>
        <pt x="127" y="28" on="0"/>
        <pt x="118" y="45" on="1"/>
        <pt x="105" y="74" on="0"/>
        <pt x="105" y="114" on="1"/>
        <pt x="106" y="166" on="0"/>
        <pt x="130" y="188" on="1"/>
        <pt x="141" y="199" on="0"/>
        <pt x="155" y="204" on="1"/>
        <pt x="173" y="211" on="0"/>
        <pt x="192" y="207" on="1"/>
        <pt x="212" y="201" on="0"/>
        <pt x="219" y="184" on="1"/>
        <pt x="228" y="166" on="0"/>
        <pt x="219" y="143" on="1"/>
        <pt x="213" y="127" on="0"/>
        <pt x="202" y="116" on="1"/>
        <pt x="188" y="103" on="0"/>
        <pt x="171" y="99" on="1"/>
        <pt x="164" y="97" on="0"/>
        <pt x="163" y="97" on="1"/>
        <pt x="164" y="91" on="1"/>
        <pt x="164" y="90" on="1"/>
        <pt x="173" y="49" on="0"/>
        <pt x="210" y="36" on="1"/>
        <pt x="258" y="19" on="0"/>
        <pt x="308" y="56" on="1"/>
        <pt x="328" y="70" on="0"/>
        <pt x="341" y="90" on="1"/>
        <pt x="363" y="123" on="0"/>
        <pt x="383" y="203" on="1"/>
        <pt x="403" y="280" on="0"/>
        <pt x="403" y="313" on="1"/>
        <pt x="403" y="333" on="0"/>
        <pt x="396" y="347" on="1"/>
        <pt x="386" y="369" on="0"/>
        <pt x="364" y="372" on="1"/>
        <pt x="346" y="374" on="0"/>
        <pt x="330" y="370" on="1"/>
        <pt x="305" y="365" on="0"/>
        <pt x="286" y="352" on="1"/>
        <pt x="257" y="333" on="0"/>
        <pt x="236" y="306" on="1"/>
        <pt x="228" y="296" on="0"/>
        <pt x="226" y="295" on="1"/>
        <pt x="225" y="294" on="0"/>
        <pt x="207" y="294" on="1"/>
        <pt x="186" y="294" on="0"/>
        <pt x="182" y="301" on="1"/>
        <pt x="181" y="305" on="1"/>
        <pt x="224" y="480" on="1"/>
        <pt x="270" y="660" on="0"/>
        <pt x="270" y="659" on="1"/>
        <pt x="272" y="664" on="0"/>
      </contour>
    </TTGlyph>
    <TTGlyph name="four" xMin="48" yMin="-194" xMax="484" yMax="666">
      <contour>
        <pt x="431" y="664" on="1"/>
        <pt x="441" y="666" on="0"/>
        <pt x="446" y="666" on="1"/>
        <pt x="469" y="665" on="0"/>
        <pt x="478" y="647" on="1"/>
        <pt x="484" y="635" on="0"/>
        <pt x="477" y="608" on="1"/>
        <pt x="476" y="603" on="0"/>
        <pt x="473" y="594" on="1"/>
        <pt x="444" y="483" on="0"/>
        <pt x="391" y="379" on="1"/>
        <pt x="374" y="343" on="0"/>
        <pt x="347" y="297" on="1"/>
        <pt x="281" y="186" on="0"/>
        <pt x="194" y="99" on="1"/>
        <pt x="176" y="80" on="1"/>
        <pt x="185" y="80" on="1"/>
        <pt x="222" y="80" on="0"/>
        <pt x="284" y="56" on="1"/>
        <pt x="300" y="49" on="0"/>
        <pt x="300" y="51" on="1"/>
        <pt x="302" y="53" on="0"/>
        <pt x="320" y="129" on="1"/>
        <pt x="341" y="213" on="0"/>
        <pt x="347" y="221" on="1"/>
        <pt x="349" y="223" on="0"/>
        <pt x="352" y="226" on="1"/>
        <pt x="372" y="244" on="0"/>
        <pt x="396" y="241" on="1"/>
        <pt x="410" y="239" on="0"/>
        <pt x="417" y="232" on="1"/>
        <pt x="430" y="221" on="0"/>
        <pt x="428" y="203" on="1"/>
        <pt x="426" y="199" on="0"/>
        <pt x="406" y="113" on="1"/>
        <pt x="384" y="28" on="1"/>
        <pt x="392" y="28" on="1"/>
        <pt x="412" y="28" on="0"/>
        <pt x="430" y="33" on="1"/>
        <pt x="444" y="36" on="0"/>
        <pt x="447" y="35" on="1"/>
        <pt x="450" y="33" on="0"/>
        <pt x="461" y="19" on="1"/>
        <pt x="476" y="-1" on="0"/>
        <pt x="470" y="-6" on="1"/>
        <pt x="466" y="-9" on="0"/>
        <pt x="453" y="-13" on="1"/>
        <pt x="410" y="-28" on="0"/>
        <pt x="379" y="-28" on="1"/>
        <pt x="370" y="-28" on="1"/>
        <pt x="354" y="-93" on="1"/>
        <pt x="339" y="-152" on="0"/>
        <pt x="334" y="-165" on="1"/>
        <pt x="319" y="-194" on="0"/>
        <pt x="286" y="-194" on="1"/>
        <pt x="261" y="-193" on="0"/>
        <pt x="252" y="-174" on="1"/>
        <pt x="247" y="-163" on="0"/>
        <pt x="255" y="-130" on="1"/>
        <pt x="258" y="-117" on="0"/>
        <pt x="268" y="-79" on="1"/>
        <pt x="286" y="-7" on="1"/>
        <pt x="286" y="-6" on="0"/>
        <pt x="266" y="1" on="1"/>
        <pt x="219" y="20" on="0"/>
        <pt x="191" y="23" on="1"/>
        <pt x="161" y="27" on="0"/>
        <pt x="123" y="22" on="1"/>
        <pt x="106" y="19" on="0"/>
        <pt x="94" y="10" on="1"/>
        <pt x="81" y="0" on="0"/>
        <pt x="77" y="0" on="1"/>
        <pt x="72" y="0" on="0"/>
        <pt x="59" y="18" on="1"/>
        <pt x="48" y="31" on="0"/>
        <pt x="48" y="35" on="1"/>
        <pt x="48" y="47" on="0"/>
        <pt x="71" y="62" on="1"/>
        <pt x="73" y="63" on="0"/>
        <pt x="75" y="64" on="1"/>
        <pt x="90" y="71" on="0"/>
        <pt x="130" y="111" on="1"/>
        <pt x="273" y="254" on="0"/>
        <pt x="352" y="489" on="1"/>
        <pt x="371" y="544" on="0"/>
        <pt x="390" y="617" on="1"/>
        <pt x="400" y="654" on="0"/>
      </contour>
    </TTGlyph>
    <TTGlyph name="g" xMin="43" yMin="-206" xMax="499" yMax="449">
      <contour>
        <pt x="317" y="440" on="1"/>
        <pt x="374" y="449" on="0"/>
        <pt x="411" y="411" on="1"/>
        <pt x="419" y="402" on="1"/>
        <pt x="424" y="407" on="1"/>
        <pt x="441" y="424" on="0"/>
        <pt x="463" y="422" on="1"/>
        <pt x="486" y="420" on="0"/>
        <pt x="495" y="402" on="1"/>
        <pt x="499" y="392" on="0"/>
        <pt x="493" y="367" on="1"/>
        <pt x="488" y="341" on="0"/>
        <pt x="441" y="155" on="1"/>
        <pt x="383" y="-75" on="0"/>
        <pt x="382" y="-77" on="1"/>
        <pt x="377" y="-96" on="0"/>
        <pt x="363" y="-116" on="1"/>
        <pt x="352" y="-133" on="0"/>
        <pt x="328" y="-153" on="1"/>
        <pt x="300" y="-176" on="0"/>
        <pt x="262" y="-190" on="1"/>
        <pt x="240" y="-198" on="0"/>
        <pt x="215" y="-202" on="1"/>
        <pt x="195" y="-206" on="0"/>
        <pt x="152" y="-204" on="1"/>
        <pt x="61" y="-198" on="0"/>
        <pt x="45" y="-154" on="1"/>
        <pt x="43" y="-144" on="0"/>
        <pt x="43" y="-137" on="1"/>
        <pt x="43" y="-93" on="0"/>
        <pt x="82" y="-75" on="1"/>
        <pt x="88" y="-73" on="0"/>
        <pt x="94" y="-71" on="1"/>
        <pt x="127" y="-63" on="0"/>
        <pt x="144" y="-85" on="1"/>
        <pt x="147" y="-89" on="0"/>
        <pt x="149" y="-94" on="1"/>
        <pt x="159" y="-122" on="0"/>
        <pt x="138" y="-150" on="1"/>
        <pt x="134" y="-155" on="0"/>
        <pt x="136" y="-155" on="1"/>
        <pt x="140" y="-158" on="0"/>
        <pt x="186" y="-158" on="1"/>
        <pt x="208" y="-157" on="0"/>
        <pt x="226" y="-149" on="1"/>
        <pt x="261" y="-133" on="0"/>
        <pt x="283" y="-96" on="1"/>
        <pt x="285" y="-93" on="0"/>
        <pt x="287" y="-89" on="1"/>
        <pt x="293" y="-76" on="0"/>
        <pt x="308" y="-19" on="1"/>
        <pt x="321" y="32" on="1"/>
        <pt x="311" y="26" on="1"/>
        <pt x="262" y="-5" on="0"/>
        <pt x="213" y="1" on="1"/>
        <pt x="137" y="13" on="0"/>
        <pt x="110" y="89" on="1"/>
        <pt x="101" y="112" on="0"/>
        <pt x="99" y="138" on="1"/>
        <pt x="95" y="164" on="0"/>
        <pt x="101" y="193" on="1"/>
        <pt x="118" y="305" on="0"/>
        <pt x="199" y="380" on="1"/>
        <pt x="237" y="415" on="0"/>
        <pt x="281" y="431" on="1"/>
        <pt x="298" y="437" on="0"/>
      </contour>
      <contour>
        <pt x="341" y="394" on="1"/>
        <pt x="302" y="401" on="0"/>
        <pt x="266" y="361" on="1"/>
        <pt x="253" y="347" on="0"/>
        <pt x="245" y="329" on="1"/>
        <pt x="230" y="301" on="0"/>
        <pt x="207" y="213" on="1"/>
        <pt x="190" y="142" on="0"/>
        <pt x="190" y="110" on="1"/>
        <pt x="190" y="88" on="0"/>
        <pt x="197" y="74" on="1"/>
        <pt x="211" y="45" on="0"/>
        <pt x="244" y="47" on="1"/>
        <pt x="291" y="52" on="0"/>
        <pt x="339" y="119" on="1"/>
        <pt x="345" y="128" on="1"/>
        <pt x="368" y="223" on="1"/>
        <pt x="392" y="319" on="0"/>
        <pt x="391" y="329" on="1"/>
        <pt x="390" y="330" on="0"/>
        <pt x="388" y="339" on="1"/>
        <pt x="381" y="365" on="0"/>
        <pt x="366" y="380" on="1"/>
        <pt x="356" y="391" on="0"/>
      </contour>
    </TTGlyph>
    <TTGlyph name="grave" xMin="190" yMin="370" xMax="366" yMax="696">
      <contour>
        <pt x="331" y="689" on="1"/>
        <pt x="339" y="696" on="0"/>
        <pt x="345" y="693" on="1"/>
        <pt x="364" y="667" on="1"/>
        <pt x="366" y="662" on="0"/>
        <pt x="354" y="651" on="1"/>
        <pt x="278" y="589" on="0"/>
        <pt x="249" y="505" on="1"/>
        <pt x="246" y="494" on="1"/>
        <pt x="254" y="497" on="1"/>
        <pt x="272" y="503" on="0"/>
        <pt x="290" y="499" on="1"/>
        <pt x="329" y="490" on="0"/>
        <pt x="329" y="449" on="1"/>
        <pt x="329" y="407" on="0"/>
        <pt x="293" y="383" on="1"/>
        <pt x="289" y="380" on="0"/>
        <pt x="284" y="378" on="1"/>
        <pt x="268" y="370" on="0"/>
        <pt x="249" y="370" on="1"/>
        <pt x="235" y="370" on="0"/>
        <pt x="230" y="372" on="1"/>
        <pt x="194" y="384" on="0"/>
        <pt x="191" y="437" on="1"/>
        <pt x="190" y="467" on="0"/>
        <pt x="203" y="510" on="1"/>
        <pt x="229" y="589" on="0"/>
        <pt x="292" y="655" on="1"/>
        <pt x="326" y="686" on="0"/>
      </contour>
    </TTGlyph>
    <TTGlyph name="greater" xMin="82" yMin="-226" xMax="440" yMax="503">
      <contour>
        <pt x="364" y="499" on="1"/>
        <pt x="387" y="503" on="0"/>
        <pt x="405" y="493" on="1"/>
        <pt x="419" y="486" on="0"/>
        <pt x="426" y="472" on="1"/>
        <pt x="431" y="459" on="0"/>
        <pt x="431" y="445" on="1"/>
        <pt x="430" y="427" on="0"/>
        <pt x="421" y="411" on="1"/>
        <pt x="396" y="371" on="0"/>
        <pt x="353" y="370" on="1"/>
        <pt x="333" y="369" on="0"/>
        <pt x="318" y="379" on="1"/>
        <pt x="299" y="392" on="0"/>
        <pt x="297" y="418" on="1"/>
        <pt x="297" y="434" on="0"/>
        <pt x="302" y="447" on="1"/>
        <pt x="319" y="488" on="0"/>
      </contour>
      <contour>
        <pt x="307" y="292" on="1"/>
        <pt x="328" y="298" on="0"/>
        <pt x="344" y="291" on="1"/>
        <pt x="371" y="280" on="0"/>
        <pt x="380" y="247" on="1"/>
        <pt x="383" y="237" on="0"/>
        <pt x="383" y="221" on="1"/>
        <pt x="383" y="206" on="0"/>
        <pt x="380" y="192" on="1"/>
        <pt x="372" y="158" on="0"/>
        <pt x="355" y="132" on="1"/>
        <pt x="344" y="115" on="0"/>
        <pt x="302" y="84" on="1"/>
        <pt x="291" y="76" on="0"/>
        <pt x="262" y="54" on="1"/>
        <pt x="188" y="-1" on="0"/>
        <pt x="174" y="-19" on="1"/>
        <pt x="134" y="-71" on="0"/>
        <pt x="148" y="-121" on="1"/>
        <pt x="153" y="-137" on="0"/>
        <pt x="163" y="-148" on="1"/>
        <pt x="181" y="-168" on="0"/>
        <pt x="206" y="-169" on="1"/>
        <pt x="258" y="-172" on="0"/>
        <pt x="305" y="-125" on="1"/>
        <pt x="338" y="-92" on="0"/>
        <pt x="359" y="-48" on="1"/>
        <pt x="364" y="-37" on="1"/>
        <pt x="358" y="-34" on="1"/>
        <pt x="340" y="-28" on="0"/>
        <pt x="334" y="-14" on="1"/>
        <pt x="321" y="15" on="0"/>
        <pt x="346" y="45" on="1"/>
        <pt x="355" y="56" on="0"/>
        <pt x="367" y="62" on="1"/>
        <pt x="395" y="75" on="0"/>
        <pt x="420" y="63" on="1"/>
        <pt x="435" y="54" on="0"/>
        <pt x="439" y="37" on="1"/>
        <pt x="440" y="24" on="0"/>
        <pt x="436" y="8" on="1"/>
        <pt x="410" y="-90" on="0"/>
        <pt x="339" y="-158" on="1"/>
        <pt x="332" y="-164" on="0"/>
        <pt x="325" y="-170" on="1"/>
        <pt x="254" y="-226" on="0"/>
        <pt x="182" y="-214" on="1"/>
        <pt x="166" y="-212" on="0"/>
        <pt x="152" y="-205" on="1"/>
        <pt x="124" y="-193" on="0"/>
        <pt x="107" y="-167" on="1"/>
        <pt x="91" y="-142" on="0"/>
        <pt x="86" y="-113" on="1"/>
        <pt x="82" y="-86" on="0"/>
        <pt x="88" y="-54" on="1"/>
        <pt x="104" y="17" on="0"/>
        <pt x="159" y="68" on="1"/>
        <pt x="176" y="83" on="0"/>
        <pt x="236" y="126" on="1"/>
        <pt x="304" y="177" on="0"/>
        <pt x="306" y="180" on="1"/>
        <pt x="314" y="188" on="0"/>
        <pt x="320" y="208" on="1"/>
        <pt x="326" y="232" on="0"/>
        <pt x="322" y="243" on="1"/>
        <pt x="320" y="247" on="1"/>
        <pt x="314" y="247" on="1"/>
        <pt x="282" y="243" on="0"/>
        <pt x="263" y="210" on="1"/>
        <pt x="259" y="204" on="0"/>
        <pt x="257" y="197" on="1"/>
        <pt x="253" y="186" on="0"/>
        <pt x="247" y="185" on="1"/>
        <pt x="243" y="184" on="0"/>
        <pt x="228" y="184" on="1"/>
        <pt x="203" y="184" on="0"/>
        <pt x="200" y="190" on="1"/>
        <pt x="199" y="194" on="0"/>
        <pt x="202" y="202" on="1"/>
        <pt x="207" y="220" on="0"/>
        <pt x="220" y="239" on="1"/>
        <pt x="232" y="255" on="0"/>
        <pt x="251" y="268" on="1"/>
        <pt x="277" y="287" on="0"/>
      </contour>
    </TTGlyph>
    <TTGlyph name="h" xMin="65" yMin="-14" xMax="551" yMax="694">
      <contour>
        <pt x="228" y="688" on="1"/>
        <pt x="306" y="694" on="0"/>
        <pt x="305" y="694" on="1"/>
        <pt x="314" y="694" on="0"/>
        <pt x="317" y="687" on="1"/>
        <pt x="319" y="682" on="0"/>
        <pt x="283" y="541" on="1"/>
        <pt x="247" y="399" on="1"/>
        <pt x="250" y="401" on="1"/>
        <pt x="271" y="417" on="0"/>
        <pt x="288" y="425" on="1"/>
        <pt x="319" y="440" on="0"/>
        <pt x="357" y="442" on="1"/>
        <pt x="412" y="444" on="0"/>
        <pt x="445" y="417" on="1"/>
        <pt x="467" y="400" on="0"/>
        <pt x="476" y="367" on="1"/>
        <pt x="478" y="358" on="0"/>
        <pt x="478" y="334" on="1"/>
        <pt x="478" y="308" on="0"/>
        <pt x="477" y="301" on="1"/>
        <pt x="466" y="244" on="0"/>
        <pt x="423" y="124" on="1"/>
        <pt x="407" y="81" on="0"/>
        <pt x="404" y="65" on="1"/>
        <pt x="401" y="40" on="0"/>
        <pt x="410" y="37" on="1"/>
        <pt x="422" y="33" on="0"/>
        <pt x="438" y="42" on="1"/>
        <pt x="469" y="61" on="0"/>
        <pt x="490" y="135" on="1"/>
        <pt x="495" y="151" on="0"/>
        <pt x="500" y="152" on="1"/>
        <pt x="503" y="153" on="0"/>
        <pt x="521" y="153" on="1"/>
        <pt x="543" y="153" on="0"/>
        <pt x="545" y="151" on="1"/>
        <pt x="551" y="147" on="0"/>
        <pt x="545" y="130" on="1"/>
        <pt x="534" y="91" on="0"/>
        <pt x="512" y="57" on="1"/>
        <pt x="472" y="-3" on="0"/>
        <pt x="421" y="-10" on="1"/>
        <pt x="403" y="-14" on="0"/>
        <pt x="384" y="-8" on="1"/>
        <pt x="355" y="-2" on="0"/>
        <pt x="340" y="19" on="1"/>
        <pt x="321" y="42" on="0"/>
        <pt x="321" y="73" on="1"/>
        <pt x="321" y="92" on="0"/>
        <pt x="336" y="135" on="1"/>
        <pt x="385" y="267" on="0"/>
        <pt x="391" y="322" on="1"/>
        <pt x="395" y="346" on="0"/>
        <pt x="390" y="367" on="1"/>
        <pt x="383" y="387" on="0"/>
        <pt x="370" y="392" on="1"/>
        <pt x="360" y="397" on="0"/>
        <pt x="339" y="394" on="1"/>
        <pt x="273" y="384" on="0"/>
        <pt x="225" y="294" on="1"/>
        <pt x="218" y="281" on="1"/>
        <pt x="186" y="154" on="1"/>
        <pt x="154" y="26" on="0"/>
        <pt x="150" y="19" on="1"/>
        <pt x="133" y="-8" on="0"/>
        <pt x="103" y="-11" on="1"/>
        <pt x="74" y="-11" on="0"/>
        <pt x="67" y="13" on="1"/>
        <pt x="65" y="18" on="0"/>
        <pt x="65" y="22" on="1"/>
        <pt x="65" y="29" on="0"/>
        <pt x="136" y="314" on="1"/>
        <pt x="210" y="610" on="0"/>
        <pt x="206" y="619" on="1"/>
        <pt x="199" y="626" on="0"/>
        <pt x="163" y="627" on="1"/>
        <pt x="139" y="627" on="0"/>
        <pt x="135" y="634" on="1"/>
        <pt x="134" y="637" on="1"/>
        <pt x="139" y="657" on="1"/>
        <pt x="143" y="676" on="0"/>
        <pt x="147" y="680" on="1"/>
        <pt x="150" y="683" on="0"/>
        <pt x="153" y="683" on="1"/>
      </contour>
    </TTGlyph>
    <TTGlyph name="hyphen" xMin="83" yMin="175" xMax="342" yMax="256">
      <contour>
        <pt x="102" y="254" on="1"/>
        <pt x="105" y="256" on="0"/>
        <pt x="220" y="256" on="1"/>
        <pt x="335" y="256" on="1"/>
        <pt x="339" y="253" on="1"/>
        <pt x="342" y="248" on="0"/>
        <pt x="342" y="245" on="1"/>
        <pt x="325" y="180" on="1"/>
        <pt x="321" y="176" on="1"/>
        <pt x="319" y="175" on="0"/>
        <pt x="205" y="175" on="1"/>
        <pt x="88" y="175" on="0"/>
        <pt x="85" y="180" on="1"/>
        <pt x="83" y="182" on="0"/>
        <pt x="83" y="186" on="1"/>
        <pt x="98" y="249" on="1"/>
        <pt x="99" y="251" on="0"/>
      </contour>
    </TTGlyph>
    <TTGlyph name="i" xMin="70" yMin="-14" xMax="347" yMax="663">
      <contour>
        <pt x="278" y="654" on="1"/>
        <pt x="314" y="663" on="0"/>
        <pt x="330" y="636" on="1"/>
        <pt x="335" y="627" on="0"/>
        <pt x="336" y="616" on="1"/>
        <pt x="336" y="601" on="0"/>
        <pt x="329" y="587" on="1"/>
        <pt x="306" y="555" on="0"/>
        <pt x="271" y="550" on="1"/>
        <pt x="260" y="550" on="0"/>
        <pt x="248" y="556" on="1"/>
        <pt x="238" y="561" on="0"/>
        <pt x="232" y="574" on="1"/>
        <pt x="229" y="578" on="0"/>
        <pt x="228" y="590" on="1"/>
        <pt x="228" y="606" on="0"/>
        <pt x="234" y="618" on="1"/>
        <pt x="248" y="646" on="0"/>
      </contour>
      <contour>
        <pt x="192" y="440" on="1"/>
        <pt x="199" y="442" on="0"/>
        <pt x="214" y="442" on="1"/>
        <pt x="237" y="441" on="0"/>
        <pt x="254" y="432" on="1"/>
        <pt x="267" y="425" on="0"/>
        <pt x="274" y="417" on="1"/>
        <pt x="282" y="410" on="0"/>
        <pt x="289" y="397" on="1"/>
        <pt x="298" y="378" on="0"/>
        <pt x="297" y="357" on="1"/>
        <pt x="297" y="340" on="0"/>
        <pt x="295" y="333" on="1"/>
        <pt x="294" y="331" on="0"/>
        <pt x="250" y="208" on="1"/>
        <pt x="208" y="96" on="0"/>
        <pt x="205" y="84" on="1"/>
        <pt x="195" y="51" on="0"/>
        <pt x="202" y="40" on="1"/>
        <pt x="207" y="34" on="0"/>
        <pt x="223" y="38" on="1"/>
        <pt x="262" y="47" on="0"/>
        <pt x="286" y="135" on="1"/>
        <pt x="291" y="151" on="0"/>
        <pt x="296" y="152" on="1"/>
        <pt x="299" y="153" on="0"/>
        <pt x="317" y="153" on="1"/>
        <pt x="339" y="153" on="0"/>
        <pt x="341" y="151" on="1"/>
        <pt x="347" y="147" on="0"/>
        <pt x="341" y="130" on="1"/>
        <pt x="330" y="91" on="0"/>
        <pt x="308" y="57" on="1"/>
        <pt x="268" y="-3" on="0"/>
        <pt x="217" y="-10" on="1"/>
        <pt x="199" y="-14" on="0"/>
        <pt x="180" y="-8" on="1"/>
        <pt x="160" y="-2" on="0"/>
        <pt x="147" y="7" on="1"/>
        <pt x="125" y="25" on="0"/>
        <pt x="118" y="58" on="1"/>
        <pt x="114" y="77" on="0"/>
        <pt x="120" y="98" on="1"/>
        <pt x="122" y="106" on="0"/>
        <pt x="164" y="221" on="1"/>
        <pt x="200" y="317" on="0"/>
        <pt x="210" y="347" on="1"/>
        <pt x="220" y="378" on="0"/>
        <pt x="213" y="390" on="1"/>
        <pt x="210" y="398" on="0"/>
        <pt x="192" y="393" on="1"/>
        <pt x="162" y="386" on="0"/>
        <pt x="139" y="330" on="1"/>
        <pt x="126" y="285" on="0"/>
        <pt x="126" y="287" on="1"/>
        <pt x="123" y="281" on="0"/>
        <pt x="122" y="280" on="1"/>
        <pt x="120" y="278" on="0"/>
        <pt x="98" y="278" on="1"/>
        <pt x="76" y="278" on="1"/>
        <pt x="73" y="281" on="1"/>
        <pt x="70" y="284" on="0"/>
        <pt x="70" y="289" on="1"/>
        <pt x="72" y="305" on="0"/>
        <pt x="87" y="339" on="1"/>
        <pt x="99" y="365" on="0"/>
        <pt x="112" y="382" on="1"/>
        <pt x="125" y="400" on="0"/>
        <pt x="145" y="418" on="1"/>
        <pt x="167" y="435" on="0"/>
      </contour>
    </TTGlyph>
    <TTGlyph name="idieresis" xMin="85" yMin="280" xMax="352" yMax="393">
      <contour>
        <pt x="339" y="392" on="1"/>
        <pt x="342" y="393" on="0"/>
        <pt x="345" y="392" on="1"/>
        <pt x="352" y="382" on="0"/>
        <pt x="352" y="365" on="1"/>
        <pt x="352" y="342" on="0"/>
        <pt x="345" y="339" on="1"/>
        <pt x="93" y="280" on="1"/>
        <pt x="87" y="283" on="1"/>
        <pt x="85" y="286" on="1"/>
        <pt x="85" y="307" on="1"/>
        <pt x="85" y="329" on="1"/>
        <pt x="87" y="332" on="1"/>
        <pt x="89" y="334" on="0"/>
        <pt x="213" y="363" on="1"/>
        <pt x="336" y="392" on="0"/>
      </contour>
    </TTGlyph>
    <TTGlyph name="j" xMin="-31" yMin="-205" xMax="367" yMax="657">
      <contour>
        <pt x="311" y="654" on="1"/>
        <pt x="322" y="657" on="0"/>
        <pt x="336" y="655" on="1"/>
        <pt x="345" y="652" on="0"/>
        <pt x="357" y="643" on="1"/>
        <pt x="361" y="639" on="0"/>
        <pt x="363" y="632" on="1"/>
        <pt x="366" y="628" on="0"/>
        <pt x="367" y="616" on="1"/>
        <pt x="367" y="600" on="0"/>
        <pt x="361" y="588" on="1"/>
        <pt x="347" y="560" on="0"/>
        <pt x="316" y="552" on="1"/>
        <pt x="281" y="543" on="0"/>
        <pt x="263" y="574" on="1"/>
        <pt x="250" y="603" on="0"/>
        <pt x="274" y="630" on="1"/>
        <pt x="275" y="632" on="0"/>
        <pt x="277" y="634" on="1"/>
        <pt x="290" y="649" on="0"/>
      </contour>
      <contour>
        <pt x="217" y="440" on="1"/>
        <pt x="238" y="445" on="0"/>
        <pt x="264" y="439" on="1"/>
        <pt x="288" y="433" on="0"/>
        <pt x="305" y="417" on="1"/>
        <pt x="322" y="400" on="0"/>
        <pt x="330" y="374" on="1"/>
        <pt x="332" y="367" on="0"/>
        <pt x="332" y="349" on="1"/>
        <pt x="332" y="332" on="1"/>
        <pt x="283" y="135" on="1"/>
        <pt x="233" y="-65" on="0"/>
        <pt x="231" y="-69" on="1"/>
        <pt x="230" y="-73" on="0"/>
        <pt x="223" y="-90" on="1"/>
        <pt x="193" y="-153" on="0"/>
        <pt x="127" y="-185" on="1"/>
        <pt x="90" y="-203" on="0"/>
        <pt x="52" y="-205" on="1"/>
        <pt x="25" y="-205" on="0"/>
        <pt x="11" y="-199" on="1"/>
        <pt x="-31" y="-182" on="0"/>
        <pt x="-31" y="-137" on="1"/>
        <pt x="-31" y="-93" on="0"/>
        <pt x="8" y="-75" on="1"/>
        <pt x="14" y="-73" on="0"/>
        <pt x="20" y="-71" on="1"/>
        <pt x="49" y="-63" on="0"/>
        <pt x="68" y="-83" on="1"/>
        <pt x="87" y="-104" on="0"/>
        <pt x="70" y="-139" on="1"/>
        <pt x="67" y="-147" on="0"/>
        <pt x="61" y="-153" on="1"/>
        <pt x="57" y="-158" on="1"/>
        <pt x="60" y="-157" on="1"/>
        <pt x="72" y="-155" on="0"/>
        <pt x="79" y="-151" on="1"/>
        <pt x="109" y="-136" on="0"/>
        <pt x="129" y="-98" on="1"/>
        <pt x="140" y="-78" on="0"/>
        <pt x="164" y="17" on="1"/>
        <pt x="173" y="53" on="0"/>
        <pt x="194" y="136" on="1"/>
        <pt x="245" y="339" on="0"/>
        <pt x="246" y="348" on="1"/>
        <pt x="249" y="374" on="0"/>
        <pt x="244" y="386" on="1"/>
        <pt x="239" y="395" on="0"/>
        <pt x="227" y="394" on="1"/>
        <pt x="214" y="394" on="0"/>
        <pt x="201" y="388" on="1"/>
        <pt x="159" y="366" on="0"/>
        <pt x="129" y="294" on="1"/>
        <pt x="124" y="282" on="0"/>
        <pt x="120" y="278" on="0"/>
        <pt x="98" y="278" on="1"/>
        <pt x="76" y="278" on="1"/>
        <pt x="73" y="281" on="1"/>
        <pt x="68" y="286" on="0"/>
        <pt x="73" y="298" on="1"/>
        <pt x="104" y="376" on="0"/>
        <pt x="159" y="415" on="1"/>
        <pt x="187" y="435" on="0"/>
      </contour>
    </TTGlyph>
    <TTGlyph name="k" xMin="65" yMin="-13" xMax="503" yMax="694">
      <contour>
        <pt x="228" y="688" on="1"/>
        <pt x="306" y="694" on="0"/>
        <pt x="305" y="694" on="1"/>
        <pt x="314" y="694" on="0"/>
        <pt x="317" y="687" on="1"/>
        <pt x="318" y="683" on="0"/>
        <pt x="268" y="483" on="1"/>
        <pt x="218" y="277" on="0"/>
        <pt x="218" y="281" on="1"/>
        <pt x="221" y="281" on="0"/>
        <pt x="241" y="297" on="1"/>
        <pt x="258" y="310" on="0"/>
        <pt x="310" y="364" on="1"/>
        <pt x="360" y="418" on="0"/>
        <pt x="397" y="433" on="1"/>
        <pt x="429" y="446" on="0"/>
        <pt x="451" y="441" on="1"/>
        <pt x="483" y="435" on="0"/>
        <pt x="494" y="396" on="1"/>
        <pt x="503" y="363" on="0"/>
        <pt x="489" y="320" on="1"/>
        <pt x="488" y="316" on="0"/>
        <pt x="486" y="312" on="1"/>
        <pt x="469" y="279" on="0"/>
        <pt x="432" y="276" on="1"/>
        <pt x="400" y="274" on="0"/>
        <pt x="388" y="299" on="1"/>
        <pt x="385" y="304" on="0"/>
        <pt x="384" y="315" on="1"/>
        <pt x="382" y="354" on="0"/>
        <pt x="420" y="374" on="1"/>
        <pt x="429" y="379" on="0"/>
        <pt x="437" y="381" on="1"/>
        <pt x="441" y="381" on="0"/>
        <pt x="444" y="383" on="1"/>
        <pt x="444" y="391" on="0"/>
        <pt x="440" y="393" on="1"/>
        <pt x="432" y="400" on="0"/>
        <pt x="402" y="389" on="1"/>
        <pt x="378" y="382" on="0"/>
        <pt x="344" y="351" on="1"/>
        <pt x="336" y="344" on="0"/>
        <pt x="308" y="314" on="1"/>
        <pt x="268" y="274" on="0"/>
        <pt x="267" y="273" on="1"/>
        <pt x="250" y="257" on="0"/>
        <pt x="254" y="256" on="1"/>
        <pt x="354" y="233" on="0"/>
        <pt x="369" y="169" on="1"/>
        <pt x="371" y="162" on="0"/>
        <pt x="371" y="132" on="0"/>
        <pt x="367" y="113" on="1"/>
        <pt x="360" y="83" on="0"/>
        <pt x="360" y="62" on="1"/>
        <pt x="361" y="49" on="0"/>
        <pt x="363" y="45" on="1"/>
        <pt x="368" y="36" on="0"/>
        <pt x="381" y="36" on="1"/>
        <pt x="393" y="37" on="0"/>
        <pt x="403" y="47" on="1"/>
        <pt x="421" y="65" on="0"/>
        <pt x="439" y="132" on="1"/>
        <pt x="444" y="151" on="0"/>
        <pt x="448" y="152" on="1"/>
        <pt x="451" y="153" on="0"/>
        <pt x="470" y="153" on="1"/>
        <pt x="492" y="153" on="0"/>
        <pt x="494" y="151" on="1"/>
        <pt x="500" y="147" on="0"/>
        <pt x="494" y="127" on="1"/>
        <pt x="475" y="58" on="0"/>
        <pt x="439" y="21" on="1"/>
        <pt x="425" y="6" on="0"/>
        <pt x="409" y="-2" on="1"/>
        <pt x="395" y="-9" on="0"/>
        <pt x="376" y="-11" on="1"/>
        <pt x="323" y="-13" on="0"/>
        <pt x="294" y="26" on="1"/>
        <pt x="267" y="67" on="0"/>
        <pt x="279" y="119" on="1"/>
        <pt x="284" y="145" on="0"/>
        <pt x="279" y="161" on="1"/>
        <pt x="272" y="184" on="0"/>
        <pt x="242" y="201" on="1"/>
        <pt x="219" y="211" on="0"/>
        <pt x="205" y="213" on="1"/>
        <pt x="201" y="214" on="1"/>
        <pt x="200" y="210" on="1"/>
        <pt x="177" y="118" on="1"/>
        <pt x="153" y="20" on="0"/>
        <pt x="146" y="11" on="1"/>
        <pt x="144" y="9" on="0"/>
        <pt x="140" y="5" on="1"/>
        <pt x="124" y="-11" on="0"/>
        <pt x="103" y="-11" on="1"/>
        <pt x="74" y="-11" on="0"/>
        <pt x="67" y="13" on="1"/>
        <pt x="65" y="18" on="0"/>
        <pt x="65" y="22" on="1"/>
        <pt x="65" y="29" on="0"/>
        <pt x="136" y="314" on="1"/>
        <pt x="210" y="610" on="0"/>
        <pt x="206" y="619" on="1"/>
        <pt x="199" y="626" on="0"/>
        <pt x="163" y="627" on="1"/>
        <pt x="139" y="627" on="0"/>
        <pt x="135" y="634" on="1"/>
        <pt x="134" y="637" on="1"/>
        <pt x="139" y="657" on="1"/>
        <pt x="143" y="676" on="0"/>
        <pt x="147" y="680" on="1"/>
        <pt x="150" y="683" on="0"/>
        <pt x="153" y="683" on="1"/>
      </contour>
    </TTGlyph>
    <TTGlyph name="l" xMin="79" yMin="-11" xMax="318" yMax="694">
      <contour>
        <pt x="228" y="688" on="1"/>
        <pt x="306" y="694" on="0"/>
        <pt x="305" y="694" on="1"/>
        <pt x="314" y="694" on="0"/>
        <pt x="317" y="687" on="1"/>
        <pt x="318" y="683" on="0"/>
        <pt x="245" y="389" on="1"/>
        <pt x="169" y="85" on="1"/>
        <pt x="167" y="62" on="0"/>
        <pt x="169" y="48" on="1"/>
        <pt x="171" y="43" on="0"/>
        <pt x="175" y="40" on="1"/>
        <pt x="178" y="37" on="0"/>
        <pt x="184" y="37" on="1"/>
        <pt x="191" y="37" on="0"/>
        <pt x="195" y="39" on="1"/>
        <pt x="214" y="53" on="0"/>
        <pt x="234" y="130" on="1"/>
        <pt x="239" y="149" on="0"/>
        <pt x="242" y="151" on="1"/>
        <pt x="244" y="153" on="0"/>
        <pt x="288" y="153" on="0"/>
        <pt x="291" y="151" on="1"/>
        <pt x="293" y="149" on="0"/>
        <pt x="293" y="137" on="0"/>
        <pt x="288" y="119" on="1"/>
        <pt x="250" y="-10" on="0"/>
        <pt x="178" y="-11" on="1"/>
        <pt x="171" y="-11" on="0"/>
        <pt x="164" y="-10" on="1"/>
        <pt x="102" y="-2" on="0"/>
        <pt x="85" y="55" on="1"/>
        <pt x="79" y="77" on="0"/>
        <pt x="83" y="102" on="1"/>
        <pt x="146" y="355" on="1"/>
        <pt x="210" y="611" on="0"/>
        <pt x="206" y="619" on="1"/>
        <pt x="199" y="626" on="0"/>
        <pt x="163" y="627" on="1"/>
        <pt x="139" y="627" on="0"/>
        <pt x="135" y="634" on="1"/>
        <pt x="134" y="637" on="1"/>
        <pt x="139" y="657" on="1"/>
        <pt x="143" y="676" on="0"/>
        <pt x="147" y="680" on="1"/>
        <pt x="150" y="683" on="0"/>
        <pt x="153" y="683" on="1"/>
      </contour>
    </TTGlyph>
    <TTGlyph name="less" xMin="48" yMin="-227" xMax="329" yMax="503">
      <contour>
        <pt x="262" y="499" on="1"/>
        <pt x="285" y="503" on="0"/>
        <pt x="303" y="493" on="1"/>
        <pt x="317" y="486" on="0"/>
        <pt x="324" y="472" on="1"/>
        <pt x="329" y="459" on="0"/>
        <pt x="329" y="445" on="1"/>
        <pt x="328" y="427" on="0"/>
        <pt x="319" y="411" on="1"/>
        <pt x="294" y="371" on="0"/>
        <pt x="251" y="370" on="1"/>
        <pt x="231" y="369" on="0"/>
        <pt x="216" y="379" on="1"/>
        <pt x="197" y="392" on="0"/>
        <pt x="195" y="418" on="1"/>
        <pt x="195" y="434" on="0"/>
        <pt x="200" y="447" on="1"/>
        <pt x="217" y="488" on="0"/>
      </contour>
      <contour>
        <pt x="201" y="292" on="1"/>
        <pt x="205" y="296" on="0"/>
        <pt x="241" y="294" on="1"/>
        <pt x="247" y="294" on="0"/>
        <pt x="248" y="293" on="1"/>
        <pt x="252" y="290" on="0"/>
        <pt x="250" y="275" on="1"/>
        <pt x="248" y="255" on="0"/>
        <pt x="217" y="65" on="1"/>
        <pt x="180" y="-157" on="0"/>
        <pt x="179" y="-161" on="1"/>
        <pt x="172" y="-184" on="0"/>
        <pt x="153" y="-198" on="1"/>
        <pt x="115" y="-227" on="0"/>
        <pt x="78" y="-211" on="1"/>
        <pt x="57" y="-202" on="0"/>
        <pt x="50" y="-181" on="1"/>
        <pt x="48" y="-175" on="0"/>
        <pt x="48" y="-164" on="1"/>
        <pt x="49" y="-153" on="1"/>
        <pt x="123" y="67" on="1"/>
        <pt x="198" y="288" on="0"/>
        <pt x="198" y="289" on="1"/>
        <pt x="200" y="291" on="0"/>
      </contour>
    </TTGlyph>
    <TTGlyph name="m" xMin="69" yMin="-22" xMax="858" yMax="452">
      <contour>
        <pt x="170" y="440" on="1"/>
        <pt x="187" y="445" on="0"/>
        <pt x="213" y="439" on="1"/>
        <pt x="241" y="431" on="0"/>
        <pt x="257" y="413" on="1"/>
        <pt x="268" y="402" on="0"/>
        <pt x="276" y="383" on="1"/>
        <pt x="278" y="379" on="1"/>
        <pt x="286" y="387" on="1"/>
        <pt x="326" y="425" on="0"/>
        <pt x="371" y="437" on="1"/>
        <pt x="429" y="452" on="0"/>
        <pt x="476" y="430" on="1"/>
        <pt x="493" y="422" on="0"/>
        <pt x="506" y="409" on="1"/>
        <pt x="515" y="399" on="0"/>
        <pt x="519" y="389" on="1"/>
        <pt x="526" y="374" on="1"/>
        <pt x="526" y="371" on="1"/>
        <pt x="536" y="381" on="1"/>
        <pt x="582" y="430" on="0"/>
        <pt x="640" y="439" on="1"/>
        <pt x="676" y="446" on="0"/>
        <pt x="706" y="438" on="1"/>
        <pt x="745" y="430" on="0"/>
        <pt x="765" y="404" on="1"/>
        <pt x="776" y="390" on="0"/>
        <pt x="783" y="367" on="1"/>
        <pt x="785" y="358" on="0"/>
        <pt x="785" y="334" on="1"/>
        <pt x="785" y="308" on="0"/>
        <pt x="784" y="301" on="1"/>
        <pt x="773" y="242" on="0"/>
        <pt x="730" y="124" on="1"/>
        <pt x="709" y="66" on="0"/>
        <pt x="710" y="48" on="1"/>
        <pt x="711" y="37" on="0"/>
        <pt x="721" y="36" on="1"/>
        <pt x="745" y="34" on="0"/>
        <pt x="785" y="90" on="0"/>
        <pt x="797" y="135" on="1"/>
        <pt x="802" y="151" on="0"/>
        <pt x="807" y="152" on="1"/>
        <pt x="810" y="153" on="0"/>
        <pt x="828" y="153" on="1"/>
        <pt x="850" y="153" on="0"/>
        <pt x="852" y="151" on="1"/>
        <pt x="858" y="147" on="0"/>
        <pt x="852" y="130" on="1"/>
        <pt x="833" y="63" on="0"/>
        <pt x="792" y="24" on="1"/>
        <pt x="779" y="11" on="0"/>
        <pt x="760" y="0" on="1"/>
        <pt x="716" y="-22" on="0"/>
        <pt x="674" y="-2" on="1"/>
        <pt x="656" y="7" on="0"/>
        <pt x="647" y="19" on="1"/>
        <pt x="628" y="42" on="0"/>
        <pt x="628" y="73" on="1"/>
        <pt x="628" y="92" on="0"/>
        <pt x="643" y="135" on="1"/>
        <pt x="692" y="267" on="0"/>
        <pt x="698" y="322" on="1"/>
        <pt x="702" y="346" on="0"/>
        <pt x="697" y="367" on="1"/>
        <pt x="690" y="387" on="0"/>
        <pt x="677" y="392" on="1"/>
        <pt x="667" y="397" on="0"/>
        <pt x="646" y="394" on="1"/>
        <pt x="580" y="384" on="0"/>
        <pt x="532" y="294" on="1"/>
        <pt x="524" y="280" on="1"/>
        <pt x="492" y="153" on="1"/>
        <pt x="460" y="24" on="0"/>
        <pt x="457" y="19" on="1"/>
        <pt x="444" y="-7" on="0"/>
        <pt x="414" y="-11" on="1"/>
        <pt x="406" y="-12" on="0"/>
        <pt x="399" y="-10" on="1"/>
        <pt x="374" y="-3" on="0"/>
        <pt x="372" y="21" on="1"/>
        <pt x="372" y="29" on="0"/>
        <pt x="404" y="159" on="1"/>
        <pt x="438" y="295" on="0"/>
        <pt x="439" y="301" on="1"/>
        <pt x="444" y="325" on="0"/>
        <pt x="444" y="346" on="1"/>
        <pt x="443" y="373" on="0"/>
        <pt x="431" y="385" on="1"/>
        <pt x="428" y="390" on="0"/>
        <pt x="422" y="392" on="1"/>
        <pt x="418" y="394" on="0"/>
        <pt x="405" y="394" on="1"/>
        <pt x="388" y="394" on="0"/>
        <pt x="373" y="389" on="1"/>
        <pt x="345" y="380" on="0"/>
        <pt x="297" y="332" on="0"/>
        <pt x="275" y="292" on="1"/>
        <pt x="268" y="280" on="1"/>
        <pt x="237" y="153" on="1"/>
        <pt x="203" y="19" on="0"/>
        <pt x="197" y="11" on="1"/>
        <pt x="196" y="9" on="0"/>
        <pt x="192" y="5" on="1"/>
        <pt x="171" y="-16" on="0"/>
        <pt x="143" y="-10" on="1"/>
        <pt x="118" y="-3" on="0"/>
        <pt x="116" y="21" on="1"/>
        <pt x="116" y="30" on="0"/>
        <pt x="154" y="183" on="1"/>
        <pt x="193" y="334" on="0"/>
        <pt x="195" y="348" on="1"/>
        <pt x="198" y="374" on="0"/>
        <pt x="193" y="386" on="1"/>
        <pt x="188" y="395" on="0"/>
        <pt x="179" y="395" on="1"/>
        <pt x="173" y="395" on="0"/>
        <pt x="168" y="391" on="1"/>
        <pt x="160" y="386" on="0"/>
        <pt x="151" y="368" on="1"/>
        <pt x="141" y="344" on="0"/>
        <pt x="126" y="287" on="1"/>
        <pt x="123" y="281" on="0"/>
        <pt x="122" y="280" on="1"/>
        <pt x="120" y="278" on="0"/>
        <pt x="98" y="278" on="1"/>
        <pt x="76" y="278" on="1"/>
        <pt x="73" y="281" on="1"/>
        <pt x="69" y="285" on="0"/>
        <pt x="74" y="305" on="1"/>
        <pt x="100" y="399" on="0"/>
        <pt x="140" y="427" on="1"/>
        <pt x="159" y="439" on="0"/>
      </contour>
    </TTGlyph>
    <TTGlyph name="n" xMin="70" yMin="-14" xMax="602" yMax="446">
      <contour>
        <pt x="170" y="440" on="1"/>
        <pt x="187" y="445" on="0"/>
        <pt x="213" y="439" on="1"/>
        <pt x="237" y="433" on="0"/>
        <pt x="254" y="417" on="1"/>
        <pt x="269" y="402" on="0"/>
        <pt x="274" y="388" on="1"/>
        <pt x="278" y="380" on="1"/>
        <pt x="286" y="387" on="1"/>
        <pt x="329" y="430" on="0"/>
        <pt x="384" y="439" on="1"/>
        <pt x="420" y="446" on="0"/>
        <pt x="450" y="438" on="1"/>
        <pt x="489" y="430" on="0"/>
        <pt x="509" y="404" on="1"/>
        <pt x="520" y="390" on="0"/>
        <pt x="527" y="367" on="1"/>
        <pt x="529" y="358" on="0"/>
        <pt x="529" y="334" on="1"/>
        <pt x="529" y="308" on="0"/>
        <pt x="528" y="301" on="1"/>
        <pt x="517" y="244" on="0"/>
        <pt x="474" y="124" on="1"/>
        <pt x="458" y="81" on="0"/>
        <pt x="455" y="65" on="1"/>
        <pt x="452" y="40" on="0"/>
        <pt x="461" y="37" on="1"/>
        <pt x="473" y="33" on="0"/>
        <pt x="489" y="42" on="1"/>
        <pt x="520" y="61" on="0"/>
        <pt x="541" y="135" on="1"/>
        <pt x="546" y="151" on="0"/>
        <pt x="551" y="152" on="1"/>
        <pt x="554" y="153" on="0"/>
        <pt x="572" y="153" on="1"/>
        <pt x="594" y="153" on="0"/>
        <pt x="596" y="151" on="1"/>
        <pt x="602" y="147" on="0"/>
        <pt x="596" y="130" on="1"/>
        <pt x="585" y="91" on="0"/>
        <pt x="563" y="57" on="1"/>
        <pt x="523" y="-3" on="0"/>
        <pt x="472" y="-10" on="1"/>
        <pt x="454" y="-14" on="0"/>
        <pt x="435" y="-8" on="1"/>
        <pt x="406" y="-2" on="0"/>
        <pt x="391" y="19" on="1"/>
        <pt x="372" y="42" on="0"/>
        <pt x="372" y="73" on="1"/>
        <pt x="372" y="92" on="0"/>
        <pt x="387" y="135" on="1"/>
        <pt x="436" y="267" on="0"/>
        <pt x="442" y="322" on="1"/>
        <pt x="446" y="346" on="0"/>
        <pt x="441" y="367" on="1"/>
        <pt x="434" y="387" on="0"/>
        <pt x="421" y="392" on="1"/>
        <pt x="411" y="397" on="0"/>
        <pt x="390" y="394" on="1"/>
        <pt x="324" y="384" on="0"/>
        <pt x="276" y="294" on="1"/>
        <pt x="268" y="280" on="1"/>
        <pt x="236" y="153" on="1"/>
        <pt x="204" y="24" on="0"/>
        <pt x="201" y="19" on="1"/>
        <pt x="188" y="-7" on="0"/>
        <pt x="158" y="-11" on="1"/>
        <pt x="150" y="-12" on="0"/>
        <pt x="143" y="-10" on="1"/>
        <pt x="118" y="-3" on="0"/>
        <pt x="116" y="21" on="1"/>
        <pt x="116" y="30" on="0"/>
        <pt x="154" y="183" on="1"/>
        <pt x="193" y="334" on="0"/>
        <pt x="195" y="348" on="1"/>
        <pt x="198" y="374" on="0"/>
        <pt x="193" y="386" on="1"/>
        <pt x="189" y="393" on="0"/>
        <pt x="180" y="395" on="1"/>
        <pt x="174" y="395" on="0"/>
        <pt x="170" y="392" on="1"/>
        <pt x="155" y="383" on="0"/>
        <pt x="142" y="343" on="1"/>
        <pt x="137" y="329" on="0"/>
        <pt x="126" y="287" on="1"/>
        <pt x="123" y="281" on="0"/>
        <pt x="122" y="280" on="1"/>
        <pt x="120" y="278" on="0"/>
        <pt x="98" y="278" on="1"/>
        <pt x="76" y="278" on="1"/>
        <pt x="73" y="281" on="1"/>
        <pt x="70" y="284" on="0"/>
        <pt x="70" y="289" on="1"/>
        <pt x="76" y="312" on="1"/>
        <pt x="101" y="399" on="0"/>
        <pt x="140" y="427" on="1"/>
        <pt x="156" y="437" on="0"/>
      </contour>
    </TTGlyph>
    <TTGlyph name="nine" xMin="100" yMin="-34" xMax="563" yMax="666">
      <contour>
        <pt x="402" y="665" on="1"/>
        <pt x="426" y="666" on="1"/>
        <pt x="427" y="666" on="1"/>
        <pt x="453" y="665" on="0"/>
        <pt x="473" y="656" on="1"/>
        <pt x="522" y="636" on="0"/>
        <pt x="540" y="579" on="1"/>
        <pt x="563" y="512" on="0"/>
        <pt x="546" y="412" on="1"/>
        <pt x="537" y="351" on="0"/>
        <pt x="521" y="299" on="1"/>
        <pt x="487" y="179" on="0"/>
        <pt x="410" y="89" on="1"/>
        <pt x="385" y="60" on="0"/>
        <pt x="358" y="37" on="1"/>
        <pt x="303" y="-5" on="0"/>
        <pt x="254" y="-17" on="1"/>
        <pt x="188" y="-34" on="0"/>
        <pt x="141" y="-3" on="1"/>
        <pt x="131" y="4" on="0"/>
        <pt x="124" y="12" on="1"/>
        <pt x="115" y="24" on="0"/>
        <pt x="110" y="40" on="1"/>
        <pt x="100" y="72" on="0"/>
        <pt x="114" y="107" on="1"/>
        <pt x="115" y="110" on="0"/>
        <pt x="116" y="112" on="1"/>
        <pt x="133" y="145" on="0"/>
        <pt x="170" y="148" on="1"/>
        <pt x="202" y="150" on="0"/>
        <pt x="214" y="125" on="1"/>
        <pt x="217" y="120" on="0"/>
        <pt x="218" y="109" on="1"/>
        <pt x="218" y="92" on="0"/>
        <pt x="211" y="78" on="1"/>
        <pt x="202" y="59" on="0"/>
        <pt x="183" y="50" on="1"/>
        <pt x="175" y="46" on="1"/>
        <pt x="179" y="43" on="1"/>
        <pt x="193" y="32" on="0"/>
        <pt x="222" y="32" on="1"/>
        <pt x="239" y="32" on="0"/>
        <pt x="247" y="34" on="1"/>
        <pt x="305" y="50" on="0"/>
        <pt x="347" y="114" on="1"/>
        <pt x="362" y="138" on="0"/>
        <pt x="374" y="168" on="1"/>
        <pt x="388" y="204" on="0"/>
        <pt x="397" y="240" on="1"/>
        <pt x="403" y="258" on="1"/>
        <pt x="397" y="254" on="1"/>
        <pt x="376" y="233" on="0"/>
        <pt x="349" y="220" on="1"/>
        <pt x="310" y="200" on="0"/>
        <pt x="268" y="208" on="1"/>
        <pt x="211" y="215" on="0"/>
        <pt x="182" y="277" on="1"/>
        <pt x="151" y="343" on="0"/>
        <pt x="170" y="426" on="1"/>
        <pt x="172" y="431" on="0"/>
        <pt x="173" y="437" on="1"/>
        <pt x="194" y="521" on="0"/>
        <pt x="251" y="581" on="1"/>
        <pt x="326" y="656" on="0"/>
      </contour>
      <contour>
        <pt x="434" y="613" on="1"/>
        <pt x="423" y="617" on="0"/>
        <pt x="403" y="615" on="1"/>
        <pt x="361" y="611" on="0"/>
        <pt x="330" y="574" on="1"/>
        <pt x="316" y="556" on="0"/>
        <pt x="304" y="517" on="1"/>
        <pt x="278" y="439" on="0"/>
        <pt x="258" y="337" on="1"/>
        <pt x="258" y="334" on="0"/>
        <pt x="257" y="331" on="1"/>
        <pt x="253" y="300" on="0"/>
        <pt x="256" y="291" on="1"/>
        <pt x="265" y="262" on="0"/>
        <pt x="290" y="255" on="1"/>
        <pt x="311" y="251" on="0"/>
        <pt x="332" y="256" on="1"/>
        <pt x="397" y="274" on="0"/>
        <pt x="435" y="394" on="1"/>
        <pt x="443" y="415" on="0"/>
        <pt x="457" y="480" on="1"/>
        <pt x="469" y="532" on="0"/>
        <pt x="469" y="551" on="1"/>
        <pt x="469" y="572" on="0"/>
        <pt x="462" y="587" on="1"/>
        <pt x="453" y="607" on="0"/>
      </contour>
    </TTGlyph>
</ttFont>
